# Tiled2Unity generated file. Do not modify by hand.
# Wavefront file for 'HouseWater_mesh_0006.obj'

# Vertices (Count = 64)
v -896 -256 0
v -928 -256 0
v -928 -224 0
v -896 -224 0
v -928 -256 0
v -960 -256 0
v -960 -224 0
v -928 -224 0
v -960 -256 0
v -992 -256 0
v -992 -224 0
v -960 -224 0
v -448 -288 0
v -480 -288 0
v -480 -256 0
v -448 -256 0
v -480 -288 0
v -512 -288 0
v -512 -256 0
v -480 -256 0
v -896 -288 0
v -928 -288 0
v -928 -256 0
v -896 -256 0
v -928 -288 0
v -960 -288 0
v -960 -256 0
v -928 -256 0
v -960 -288 0
v -992 -288 0
v -992 -256 0
v -960 -256 0
v -1216 -384 0
v -1248 -384 0
v -1248 -352 0
v -1216 -352 0
v -832 -608 0
v -864 -608 0
v -864 -576 0
v -832 -576 0
v -864 -608 0
v -896 -608 0
v -896 -576 0
v -864 -576 0
v -448 -640 0
v -480 -640 0
v -480 -608 0
v -448 -608 0
v -480 -640 0
v -512 -640 0
v -512 -608 0
v -480 -608 0
v -1152 -800 0
v -1184 -800 0
v -1184 -768 0
v -1152 -768 0
v -1184 -800 0
v -1216 -800 0
v -1216 -768 0
v -1184 -768 0
v -1216 -800 0
v -1248 -800 0
v -1248 -768 0
v -1216 -768 0

# Texture cooridinates (Count = 40)
vt 0.3076923 0.07692307
vt 0.3846154 0.07692307
vt 0.3846154 0.1538461
vt 0.3076923 0.1538461
vt 0.4615385 0.07692307
vt 0.4615385 0.1538461
vt 0.5384616 0.07692307
vt 0.5384616 0.1538461
vt 0 0.6153846
vt 0.07692308 0.6153846
vt 0.07692308 0.6923077
vt 0 0.6923077
vt 0.1538462 0.6153846
vt 0.1538462 0.6923077
vt 0.3076923 0
vt 0.3846154 0
vt 0.4615385 0
vt 0.5384616 0
vt 0.8461539 0
vt 0.9230769 0
vt 0.9230769 0.07692307
vt 0.8461539 0.07692307
vt 0.07692308 0
vt 0.1538462 0
vt 0.1538462 0.07692307
vt 0.07692308 0.07692307
vt 0.2307692 0
vt 0.2307692 0.07692307
vt 0.6923077 0.3076923
vt 0.7692308 0.3076923
vt 0.7692308 0.3846154
vt 0.6923077 0.3846154
vt 0.8461539 0.3076923
vt 0.8461539 0.3846154
vt 0.6153846 0
vt 0.6153846 0.07692307
vt 0.6923077 0
vt 0.6923077 0.07692307
vt 0.7692308 0
vt 0.7692308 0.07692307

# Normal
vn 0 0 -1

# Mesh description
g HouseWater_mesh_0006

# Faces
f 1/1/1 2/2/1 3/3/1 4/4/1
f 5/2/1 6/5/1 7/6/1 8/3/1
f 9/5/1 10/7/1 11/8/1 12/6/1
f 13/9/1 14/10/1 15/11/1 16/12/1
f 17/10/1 18/13/1 19/14/1 20/11/1
f 21/15/1 22/16/1 23/2/1 24/1/1
f 25/16/1 26/17/1 27/5/1 28/2/1
f 29/17/1 30/18/1 31/7/1 32/5/1
f 33/19/1 34/20/1 35/21/1 36/22/1
f 37/23/1 38/24/1 39/25/1 40/26/1
f 41/24/1 42/27/1 43/28/1 44/25/1
f 45/29/1 46/30/1 47/31/1 48/32/1
f 49/30/1 50/33/1 51/34/1 52/31/1
f 53/18/1 54/35/1 55/36/1 56/7/1
f 57/35/1 58/37/1 59/38/1 60/36/1
f 61/37/1 62/39/1 63/40/1 64/38/1

