# Tiled2Unity generated file. Do not modify by hand.
# Wavefront file for 'house_mesh_0003.obj'

# Vertices (Count = 288)
v -576 -128 0
v -608 -128 0
v -608 -96 0
v -576 -96 0
v -608 -128 0
v -640 -128 0
v -640 -96 0
v -608 -96 0
v -640 -128 0
v -672 -128 0
v -672 -96 0
v -640 -96 0
v -864 -128 0
v -896 -128 0
v -896 -96 0
v -864 -96 0
v -896 -128 0
v -928 -128 0
v -928 -96 0
v -896 -96 0
v -928 -128 0
v -960 -128 0
v -960 -96 0
v -928 -96 0
v -576 -160 0
v -608 -160 0
v -608 -128 0
v -576 -128 0
v -608 -160 0
v -640 -160 0
v -640 -128 0
v -608 -128 0
v -640 -160 0
v -672 -160 0
v -672 -128 0
v -640 -128 0
v -864 -160 0
v -896 -160 0
v -896 -128 0
v -864 -128 0
v -896 -160 0
v -928 -160 0
v -928 -128 0
v -896 -128 0
v -928 -160 0
v -960 -160 0
v -960 -128 0
v -928 -128 0
v -1024 -224 0
v -1056 -224 0
v -1056 -192 0
v -1024 -192 0
v -1056 -224 0
v -1088 -224 0
v -1088 -192 0
v -1056 -192 0
v -1088 -224 0
v -1120 -224 0
v -1120 -192 0
v -1088 -192 0
v -1024 -256 0
v -1056 -256 0
v -1056 -224 0
v -1024 -224 0
v -1056 -256 0
v -1088 -256 0
v -1088 -224 0
v -1056 -224 0
v -1088 -256 0
v -1120 -256 0
v -1120 -224 0
v -1088 -224 0
v 0 -320 0
v -32 -320 0
v -32 -288 0
v 0 -288 0
v -32 -320 0
v -64 -320 0
v -64 -288 0
v -32 -288 0
v -64 -320 0
v -96 -320 0
v -96 -288 0
v -64 -288 0
v 0 -352 0
v -32 -352 0
v -32 -320 0
v 0 -320 0
v -32 -352 0
v -64 -352 0
v -64 -320 0
v -32 -320 0
v -64 -352 0
v -96 -352 0
v -96 -320 0
v -64 -320 0
v -1152 -384 0
v -1184 -384 0
v -1184 -352 0
v -1152 -352 0
v -1184 -384 0
v -1216 -384 0
v -1216 -352 0
v -1184 -352 0
v -1216 -384 0
v -1248 -384 0
v -1248 -352 0
v -1216 -352 0
v -576 -416 0
v -608 -416 0
v -608 -384 0
v -576 -384 0
v -608 -416 0
v -640 -416 0
v -640 -384 0
v -608 -384 0
v -640 -416 0
v -672 -416 0
v -672 -384 0
v -640 -384 0
v -1152 -416 0
v -1184 -416 0
v -1184 -384 0
v -1152 -384 0
v -1184 -416 0
v -1216 -416 0
v -1216 -384 0
v -1184 -384 0
v -1216 -416 0
v -1248 -416 0
v -1248 -384 0
v -1216 -384 0
v -384 -448 0
v -416 -448 0
v -416 -416 0
v -384 -416 0
v -416 -448 0
v -448 -448 0
v -448 -416 0
v -416 -416 0
v -448 -448 0
v -480 -448 0
v -480 -416 0
v -448 -416 0
v -576 -448 0
v -608 -448 0
v -608 -416 0
v -576 -416 0
v -608 -448 0
v -640 -448 0
v -640 -416 0
v -608 -416 0
v -640 -448 0
v -672 -448 0
v -672 -416 0
v -640 -416 0
v -384 -480 0
v -416 -480 0
v -416 -448 0
v -384 -448 0
v -416 -480 0
v -448 -480 0
v -448 -448 0
v -416 -448 0
v -448 -480 0
v -480 -480 0
v -480 -448 0
v -448 -448 0
v -32 -512 0
v -64 -512 0
v -64 -480 0
v -32 -480 0
v -64 -512 0
v -96 -512 0
v -96 -480 0
v -64 -480 0
v -96 -512 0
v -128 -512 0
v -128 -480 0
v -96 -480 0
v -32 -544 0
v -64 -544 0
v -64 -512 0
v -32 -512 0
v -64 -544 0
v -96 -544 0
v -96 -512 0
v -64 -512 0
v -96 -544 0
v -128 -544 0
v -128 -512 0
v -96 -512 0
v -992 -832 0
v -1024 -832 0
v -1024 -800 0
v -992 -800 0
v -1024 -832 0
v -1056 -832 0
v -1056 -800 0
v -1024 -800 0
v -1056 -832 0
v -1088 -832 0
v -1088 -800 0
v -1056 -800 0
v -32 -864 0
v -64 -864 0
v -64 -832 0
v -32 -832 0
v -64 -864 0
v -96 -864 0
v -96 -832 0
v -64 -832 0
v -96 -864 0
v -128 -864 0
v -128 -832 0
v -96 -832 0
v -992 -864 0
v -1024 -864 0
v -1024 -832 0
v -992 -832 0
v -1024 -864 0
v -1056 -864 0
v -1056 -832 0
v -1024 -832 0
v -1056 -864 0
v -1088 -864 0
v -1088 -832 0
v -1056 -832 0
v -32 -896 0
v -64 -896 0
v -64 -864 0
v -32 -864 0
v -64 -896 0
v -96 -896 0
v -96 -864 0
v -64 -864 0
v -96 -896 0
v -128 -896 0
v -128 -864 0
v -96 -864 0
v -288 -896 0
v -320 -896 0
v -320 -864 0
v -288 -864 0
v -320 -896 0
v -352 -896 0
v -352 -864 0
v -320 -864 0
v -352 -896 0
v -384 -896 0
v -384 -864 0
v -352 -864 0
v -576 -896 0
v -608 -896 0
v -608 -864 0
v -576 -864 0
v -608 -896 0
v -640 -896 0
v -640 -864 0
v -608 -864 0
v -640 -896 0
v -672 -896 0
v -672 -864 0
v -640 -864 0
v -288 -928 0
v -320 -928 0
v -320 -896 0
v -288 -896 0
v -320 -928 0
v -352 -928 0
v -352 -896 0
v -320 -896 0
v -352 -928 0
v -384 -928 0
v -384 -896 0
v -352 -896 0
v -576 -928 0
v -608 -928 0
v -608 -896 0
v -576 -896 0
v -608 -928 0
v -640 -928 0
v -640 -896 0
v -608 -896 0
v -640 -928 0
v -672 -928 0
v -672 -896 0
v -640 -896 0

# Texture cooridinates (Count = 33)
vt 0.2307692 0.3846154
vt 0.3076923 0.3846154
vt 0.3076923 0.4615384
vt 0.2307692 0.4615384
vt 0.3846154 0.3846154
vt 0.3846154 0.4615384
vt 0.4615385 0.3846154
vt 0.4615385 0.4615384
vt 0.5384616 0.3846154
vt 0.5384616 0.4615384
vt 0.6153846 0.3846154
vt 0.6153846 0.4615384
vt 0.6923077 0.3846154
vt 0.6923077 0.4615384
vt 0.2307692 0.3076923
vt 0.3076923 0.3076923
vt 0.3846154 0.3076923
vt 0.4615385 0.3076923
vt 0.5384616 0.3076923
vt 0.6153846 0.3076923
vt 0.6923077 0.3076923
vt 0.4615385 0.7692308
vt 0.5384616 0.7692308
vt 0.5384616 0.8461539
vt 0.4615385 0.8461539
vt 0.6153846 0.7692308
vt 0.6153846 0.8461539
vt 0.6923077 0.7692308
vt 0.6923077 0.8461539
vt 0.4615385 0.6923077
vt 0.5384616 0.6923077
vt 0.6153846 0.6923077
vt 0.6923077 0.6923077

# Normal
vn 0 0 -1

# Mesh description
g house_mesh_0003

# Faces
f 1/1/1 2/2/1 3/3/1 4/4/1
f 5/2/1 6/5/1 7/6/1 8/3/1
f 9/5/1 10/7/1 11/8/1 12/6/1
f 13/7/1 14/9/1 15/10/1 16/8/1
f 17/9/1 18/11/1 19/12/1 20/10/1
f 21/11/1 22/13/1 23/14/1 24/12/1
f 25/15/1 26/16/1 27/2/1 28/1/1
f 29/16/1 30/17/1 31/5/1 32/2/1
f 33/17/1 34/18/1 35/7/1 36/5/1
f 37/18/1 38/19/1 39/9/1 40/7/1
f 41/19/1 42/20/1 43/11/1 44/9/1
f 45/20/1 46/21/1 47/13/1 48/11/1
f 49/1/1 50/2/1 51/3/1 52/4/1
f 53/2/1 54/5/1 55/6/1 56/3/1
f 57/5/1 58/7/1 59/8/1 60/6/1
f 61/15/1 62/16/1 63/2/1 64/1/1
f 65/16/1 66/17/1 67/5/1 68/2/1
f 69/17/1 70/18/1 71/7/1 72/5/1
f 73/7/1 74/9/1 75/10/1 76/8/1
f 77/9/1 78/11/1 79/12/1 80/10/1
f 81/11/1 82/13/1 83/14/1 84/12/1
f 85/18/1 86/19/1 87/9/1 88/7/1
f 89/19/1 90/20/1 91/11/1 92/9/1
f 93/20/1 94/21/1 95/13/1 96/11/1
f 97/7/1 98/9/1 99/10/1 100/8/1
f 101/9/1 102/11/1 103/12/1 104/10/1
f 105/11/1 106/13/1 107/14/1 108/12/1
f 109/7/1 110/9/1 111/10/1 112/8/1
f 113/9/1 114/11/1 115/12/1 116/10/1
f 117/11/1 118/13/1 119/14/1 120/12/1
f 121/18/1 122/19/1 123/9/1 124/7/1
f 125/19/1 126/20/1 127/11/1 128/9/1
f 129/20/1 130/21/1 131/13/1 132/11/1
f 133/1/1 134/2/1 135/3/1 136/4/1
f 137/2/1 138/5/1 139/6/1 140/3/1
f 141/5/1 142/7/1 143/8/1 144/6/1
f 145/18/1 146/19/1 147/9/1 148/7/1
f 149/19/1 150/20/1 151/11/1 152/9/1
f 153/20/1 154/21/1 155/13/1 156/11/1
f 157/15/1 158/16/1 159/2/1 160/1/1
f 161/16/1 162/17/1 163/5/1 164/2/1
f 165/17/1 166/18/1 167/7/1 168/5/1
f 169/1/1 170/2/1 171/3/1 172/4/1
f 173/2/1 174/5/1 175/6/1 176/3/1
f 177/5/1 178/7/1 179/8/1 180/6/1
f 181/15/1 182/16/1 183/2/1 184/1/1
f 185/16/1 186/17/1 187/5/1 188/2/1
f 189/17/1 190/18/1 191/7/1 192/5/1
f 193/22/1 194/23/1 195/24/1 196/25/1
f 197/23/1 198/26/1 199/27/1 200/24/1
f 201/26/1 202/28/1 203/29/1 204/27/1
f 205/7/1 206/9/1 207/10/1 208/8/1
f 209/9/1 210/11/1 211/12/1 212/10/1
f 213/11/1 214/13/1 215/14/1 216/12/1
f 217/30/1 218/31/1 219/23/1 220/22/1
f 221/31/1 222/32/1 223/26/1 224/23/1
f 225/32/1 226/33/1 227/28/1 228/26/1
f 229/18/1 230/19/1 231/9/1 232/7/1
f 233/19/1 234/20/1 235/11/1 236/9/1
f 237/20/1 238/21/1 239/13/1 240/11/1
f 241/1/1 242/2/1 243/3/1 244/4/1
f 245/2/1 246/5/1 247/6/1 248/3/1
f 249/5/1 250/7/1 251/8/1 252/6/1
f 253/7/1 254/9/1 255/10/1 256/8/1
f 257/9/1 258/11/1 259/12/1 260/10/1
f 261/11/1 262/13/1 263/14/1 264/12/1
f 265/15/1 266/16/1 267/2/1 268/1/1
f 269/16/1 270/17/1 271/5/1 272/2/1
f 273/17/1 274/18/1 275/7/1 276/5/1
f 277/18/1 278/19/1 279/9/1 280/7/1
f 281/19/1 282/20/1 283/11/1 284/9/1
f 285/20/1 286/21/1 287/13/1 288/11/1

