# Tiled2Unity generated file. Do not modify by hand.
# Wavefront file for 'house_mesh_0004.obj'

# Vertices (Count = 420)
v -864 -32 0
v -896 -32 0
v -896 0 0
v -864 0 0
v -896 -32 0
v -928 -32 0
v -928 0 0
v -896 0 0
v -928 -32 0
v -960 -32 0
v -960 0 0
v -928 0 0
v -576 -64 0
v -608 -64 0
v -608 -32 0
v -576 -32 0
v -608 -64 0
v -640 -64 0
v -640 -32 0
v -608 -32 0
v -640 -64 0
v -672 -64 0
v -672 -32 0
v -640 -32 0
v -864 -64 0
v -896 -64 0
v -896 -32 0
v -864 -32 0
v -896 -64 0
v -928 -64 0
v -928 -32 0
v -896 -32 0
v -928 -64 0
v -960 -64 0
v -960 -32 0
v -928 -32 0
v -576 -96 0
v -608 -96 0
v -608 -64 0
v -576 -64 0
v -608 -96 0
v -640 -96 0
v -640 -64 0
v -608 -64 0
v -640 -96 0
v -672 -96 0
v -672 -64 0
v -640 -64 0
v -864 -96 0
v -896 -96 0
v -896 -64 0
v -864 -64 0
v -896 -96 0
v -928 -96 0
v -928 -64 0
v -896 -64 0
v -928 -96 0
v -960 -96 0
v -960 -64 0
v -928 -64 0
v -576 -128 0
v -608 -128 0
v -608 -96 0
v -576 -96 0
v -608 -128 0
v -640 -128 0
v -640 -96 0
v -608 -96 0
v -640 -128 0
v -672 -128 0
v -672 -96 0
v -640 -96 0
v -1024 -128 0
v -1056 -128 0
v -1056 -96 0
v -1024 -96 0
v -1056 -128 0
v -1088 -128 0
v -1088 -96 0
v -1056 -96 0
v -1088 -128 0
v -1120 -128 0
v -1120 -96 0
v -1088 -96 0
v -1024 -160 0
v -1056 -160 0
v -1056 -128 0
v -1024 -128 0
v -1056 -160 0
v -1088 -160 0
v -1088 -128 0
v -1056 -128 0
v -1088 -160 0
v -1120 -160 0
v -1120 -128 0
v -1088 -128 0
v -1024 -192 0
v -1056 -192 0
v -1056 -160 0
v -1024 -160 0
v -1056 -192 0
v -1088 -192 0
v -1088 -160 0
v -1056 -160 0
v -1088 -192 0
v -1120 -192 0
v -1120 -160 0
v -1088 -160 0
v 0 -224 0
v -32 -224 0
v -32 -192 0
v 0 -192 0
v -32 -224 0
v -64 -224 0
v -64 -192 0
v -32 -192 0
v -64 -224 0
v -96 -224 0
v -96 -192 0
v -64 -192 0
v 0 -256 0
v -32 -256 0
v -32 -224 0
v 0 -224 0
v -32 -256 0
v -64 -256 0
v -64 -224 0
v -32 -224 0
v -64 -256 0
v -96 -256 0
v -96 -224 0
v -64 -224 0
v 0 -288 0
v -32 -288 0
v -32 -256 0
v 0 -256 0
v -32 -288 0
v -64 -288 0
v -64 -256 0
v -32 -256 0
v -64 -288 0
v -96 -288 0
v -96 -256 0
v -64 -256 0
v -1152 -288 0
v -1184 -288 0
v -1184 -256 0
v -1152 -256 0
v -1184 -288 0
v -1216 -288 0
v -1216 -256 0
v -1184 -256 0
v -1216 -288 0
v -1248 -288 0
v -1248 -256 0
v -1216 -256 0
v -1152 -320 0
v -1184 -320 0
v -1184 -288 0
v -1152 -288 0
v -1184 -320 0
v -1216 -320 0
v -1216 -288 0
v -1184 -288 0
v -1216 -320 0
v -1248 -320 0
v -1248 -288 0
v -1216 -288 0
v -576 -352 0
v -608 -352 0
v -608 -320 0
v -576 -320 0
v -608 -352 0
v -640 -352 0
v -640 -320 0
v -608 -320 0
v -640 -352 0
v -672 -352 0
v -672 -320 0
v -640 -320 0
v -1152 -352 0
v -1184 -352 0
v -1184 -320 0
v -1152 -320 0
v -1184 -352 0
v -1216 -352 0
v -1216 -320 0
v -1184 -320 0
v -1216 -352 0
v -1248 -352 0
v -1248 -320 0
v -1216 -320 0
v -384 -384 0
v -416 -384 0
v -416 -352 0
v -384 -352 0
v -416 -384 0
v -448 -384 0
v -448 -352 0
v -416 -352 0
v -448 -384 0
v -480 -384 0
v -480 -352 0
v -448 -352 0
v -576 -384 0
v -608 -384 0
v -608 -352 0
v -576 -352 0
v -608 -384 0
v -640 -384 0
v -640 -352 0
v -608 -352 0
v -640 -384 0
v -672 -384 0
v -672 -352 0
v -640 -352 0
v -32 -416 0
v -64 -416 0
v -64 -384 0
v -32 -384 0
v -64 -416 0
v -96 -416 0
v -96 -384 0
v -64 -384 0
v -96 -416 0
v -128 -416 0
v -128 -384 0
v -96 -384 0
v -384 -416 0
v -416 -416 0
v -416 -384 0
v -384 -384 0
v -416 -416 0
v -448 -416 0
v -448 -384 0
v -416 -384 0
v -448 -416 0
v -480 -416 0
v -480 -384 0
v -448 -384 0
v -576 -416 0
v -608 -416 0
v -608 -384 0
v -576 -384 0
v -608 -416 0
v -640 -416 0
v -640 -384 0
v -608 -384 0
v -640 -416 0
v -672 -416 0
v -672 -384 0
v -640 -384 0
v -32 -448 0
v -64 -448 0
v -64 -416 0
v -32 -416 0
v -64 -448 0
v -96 -448 0
v -96 -416 0
v -64 -416 0
v -96 -448 0
v -128 -448 0
v -128 -416 0
v -96 -416 0
v -384 -448 0
v -416 -448 0
v -416 -416 0
v -384 -416 0
v -416 -448 0
v -448 -448 0
v -448 -416 0
v -416 -416 0
v -448 -448 0
v -480 -448 0
v -480 -416 0
v -448 -416 0
v -32 -480 0
v -64 -480 0
v -64 -448 0
v -32 -448 0
v -64 -480 0
v -96 -480 0
v -96 -448 0
v -64 -448 0
v -96 -480 0
v -128 -480 0
v -128 -448 0
v -96 -448 0
v -32 -768 0
v -64 -768 0
v -64 -736 0
v -32 -736 0
v -64 -768 0
v -96 -768 0
v -96 -736 0
v -64 -736 0
v -96 -768 0
v -128 -768 0
v -128 -736 0
v -96 -736 0
v -992 -768 0
v -1024 -768 0
v -1024 -736 0
v -992 -736 0
v -1024 -768 0
v -1056 -768 0
v -1056 -736 0
v -1024 -736 0
v -1056 -768 0
v -1088 -768 0
v -1088 -736 0
v -1056 -736 0
v -32 -800 0
v -64 -800 0
v -64 -768 0
v -32 -768 0
v -64 -800 0
v -96 -800 0
v -96 -768 0
v -64 -768 0
v -96 -800 0
v -128 -800 0
v -128 -768 0
v -96 -768 0
v -288 -800 0
v -320 -800 0
v -320 -768 0
v -288 -768 0
v -320 -800 0
v -352 -800 0
v -352 -768 0
v -320 -768 0
v -352 -800 0
v -384 -800 0
v -384 -768 0
v -352 -768 0
v -576 -800 0
v -608 -800 0
v -608 -768 0
v -576 -768 0
v -608 -800 0
v -640 -800 0
v -640 -768 0
v -608 -768 0
v -640 -800 0
v -672 -800 0
v -672 -768 0
v -640 -768 0
v -992 -800 0
v -1024 -800 0
v -1024 -768 0
v -992 -768 0
v -1024 -800 0
v -1056 -800 0
v -1056 -768 0
v -1024 -768 0
v -1056 -800 0
v -1088 -800 0
v -1088 -768 0
v -1056 -768 0
v -32 -832 0
v -64 -832 0
v -64 -800 0
v -32 -800 0
v -64 -832 0
v -96 -832 0
v -96 -800 0
v -64 -800 0
v -96 -832 0
v -128 -832 0
v -128 -800 0
v -96 -800 0
v -288 -832 0
v -320 -832 0
v -320 -800 0
v -288 -800 0
v -320 -832 0
v -352 -832 0
v -352 -800 0
v -320 -800 0
v -352 -832 0
v -384 -832 0
v -384 -800 0
v -352 -800 0
v -576 -832 0
v -608 -832 0
v -608 -800 0
v -576 -800 0
v -608 -832 0
v -640 -832 0
v -640 -800 0
v -608 -800 0
v -640 -832 0
v -672 -832 0
v -672 -800 0
v -640 -800 0
v -288 -864 0
v -320 -864 0
v -320 -832 0
v -288 -832 0
v -320 -864 0
v -352 -864 0
v -352 -832 0
v -320 -832 0
v -352 -864 0
v -384 -864 0
v -384 -832 0
v -352 -832 0
v -576 -864 0
v -608 -864 0
v -608 -832 0
v -576 -832 0
v -608 -864 0
v -640 -864 0
v -640 -832 0
v -608 -832 0
v -640 -864 0
v -672 -864 0
v -672 -832 0
v -640 -832 0

# Texture cooridinates (Count = 40)
vt 0.4615385 0.6153846
vt 0.5384616 0.6153846
vt 0.5384616 0.6923077
vt 0.4615385 0.6923077
vt 0.6153846 0.6153846
vt 0.6153846 0.6923077
vt 0.6923077 0.6153846
vt 0.6923077 0.6923077
vt 0.2307692 0.6153846
vt 0.3076923 0.6153846
vt 0.3076923 0.6923077
vt 0.2307692 0.6923077
vt 0.3846154 0.6153846
vt 0.3846154 0.6923077
vt 0.4615385 0.5384616
vt 0.5384616 0.5384616
vt 0.6153846 0.5384616
vt 0.6923077 0.5384616
vt 0.2307692 0.5384616
vt 0.3076923 0.5384616
vt 0.3846154 0.5384616
vt 0.4615385 0.4615384
vt 0.5384616 0.4615384
vt 0.6153846 0.4615384
vt 0.6923077 0.4615384
vt 0.2307692 0.4615384
vt 0.3076923 0.4615384
vt 0.3846154 0.4615384
vt 0.4615385 0.9230769
vt 0.5384616 0.9230769
vt 0.5384616 1
vt 0.4615385 1
vt 0.6153846 0.9230769
vt 0.6153846 1
vt 0.6923077 0.9230769
vt 0.6923077 1
vt 0.4615385 0.8461539
vt 0.5384616 0.8461539
vt 0.6153846 0.8461539
vt 0.6923077 0.8461539

# Normal
vn 0 0 -1

# Mesh description
g house_mesh_0004

# Faces
f 1/1/1 2/2/1 3/3/1 4/4/1
f 5/2/1 6/5/1 7/6/1 8/3/1
f 9/5/1 10/7/1 11/8/1 12/6/1
f 13/9/1 14/10/1 15/11/1 16/12/1
f 17/10/1 18/13/1 19/14/1 20/11/1
f 21/13/1 22/1/1 23/4/1 24/14/1
f 25/15/1 26/16/1 27/2/1 28/1/1
f 29/16/1 30/17/1 31/5/1 32/2/1
f 33/17/1 34/18/1 35/7/1 36/5/1
f 37/19/1 38/20/1 39/10/1 40/9/1
f 41/20/1 42/21/1 43/13/1 44/10/1
f 45/21/1 46/15/1 47/1/1 48/13/1
f 49/22/1 50/23/1 51/16/1 52/15/1
f 53/23/1 54/24/1 55/17/1 56/16/1
f 57/24/1 58/25/1 59/18/1 60/17/1
f 61/26/1 62/27/1 63/20/1 64/19/1
f 65/27/1 66/28/1 67/21/1 68/20/1
f 69/28/1 70/22/1 71/15/1 72/21/1
f 73/9/1 74/10/1 75/11/1 76/12/1
f 77/10/1 78/13/1 79/14/1 80/11/1
f 81/13/1 82/1/1 83/4/1 84/14/1
f 85/19/1 86/20/1 87/10/1 88/9/1
f 89/20/1 90/21/1 91/13/1 92/10/1
f 93/21/1 94/15/1 95/1/1 96/13/1
f 97/26/1 98/27/1 99/20/1 100/19/1
f 101/27/1 102/28/1 103/21/1 104/20/1
f 105/28/1 106/22/1 107/15/1 108/21/1
f 109/1/1 110/2/1 111/3/1 112/4/1
f 113/2/1 114/5/1 115/6/1 116/3/1
f 117/5/1 118/7/1 119/8/1 120/6/1
f 121/15/1 122/16/1 123/2/1 124/1/1
f 125/16/1 126/17/1 127/5/1 128/2/1
f 129/17/1 130/18/1 131/7/1 132/5/1
f 133/22/1 134/23/1 135/16/1 136/15/1
f 137/23/1 138/24/1 139/17/1 140/16/1
f 141/24/1 142/25/1 143/18/1 144/17/1
f 145/1/1 146/2/1 147/3/1 148/4/1
f 149/2/1 150/5/1 151/6/1 152/3/1
f 153/5/1 154/7/1 155/8/1 156/6/1
f 157/15/1 158/16/1 159/2/1 160/1/1
f 161/16/1 162/17/1 163/5/1 164/2/1
f 165/17/1 166/18/1 167/7/1 168/5/1
f 169/1/1 170/2/1 171/3/1 172/4/1
f 173/2/1 174/5/1 175/6/1 176/3/1
f 177/5/1 178/7/1 179/8/1 180/6/1
f 181/22/1 182/23/1 183/16/1 184/15/1
f 185/23/1 186/24/1 187/17/1 188/16/1
f 189/24/1 190/25/1 191/18/1 192/17/1
f 193/9/1 194/10/1 195/11/1 196/12/1
f 197/10/1 198/13/1 199/14/1 200/11/1
f 201/13/1 202/1/1 203/4/1 204/14/1
f 205/15/1 206/16/1 207/2/1 208/1/1
f 209/16/1 210/17/1 211/5/1 212/2/1
f 213/17/1 214/18/1 215/7/1 216/5/1
f 217/9/1 218/10/1 219/11/1 220/12/1
f 221/10/1 222/13/1 223/14/1 224/11/1
f 225/13/1 226/1/1 227/4/1 228/14/1
f 229/19/1 230/20/1 231/10/1 232/9/1
f 233/20/1 234/21/1 235/13/1 236/10/1
f 237/21/1 238/15/1 239/1/1 240/13/1
f 241/22/1 242/23/1 243/16/1 244/15/1
f 245/23/1 246/24/1 247/17/1 248/16/1
f 249/24/1 250/25/1 251/18/1 252/17/1
f 253/19/1 254/20/1 255/10/1 256/9/1
f 257/20/1 258/21/1 259/13/1 260/10/1
f 261/21/1 262/15/1 263/1/1 264/13/1
f 265/26/1 266/27/1 267/20/1 268/19/1
f 269/27/1 270/28/1 271/21/1 272/20/1
f 273/28/1 274/22/1 275/15/1 276/21/1
f 277/26/1 278/27/1 279/20/1 280/19/1
f 281/27/1 282/28/1 283/21/1 284/20/1
f 285/28/1 286/22/1 287/15/1 288/21/1
f 289/1/1 290/2/1 291/3/1 292/4/1
f 293/2/1 294/5/1 295/6/1 296/3/1
f 297/5/1 298/7/1 299/8/1 300/6/1
f 301/29/1 302/30/1 303/31/1 304/32/1
f 305/30/1 306/33/1 307/34/1 308/31/1
f 309/33/1 310/35/1 311/36/1 312/34/1
f 313/15/1 314/16/1 315/2/1 316/1/1
f 317/16/1 318/17/1 319/5/1 320/2/1
f 321/17/1 322/18/1 323/7/1 324/5/1
f 325/9/1 326/10/1 327/11/1 328/12/1
f 329/10/1 330/13/1 331/14/1 332/11/1
f 333/13/1 334/1/1 335/4/1 336/14/1
f 337/1/1 338/2/1 339/3/1 340/4/1
f 341/2/1 342/5/1 343/6/1 344/3/1
f 345/5/1 346/7/1 347/8/1 348/6/1
f 349/37/1 350/38/1 351/30/1 352/29/1
f 353/38/1 354/39/1 355/33/1 356/30/1
f 357/39/1 358/40/1 359/35/1 360/33/1
f 361/22/1 362/23/1 363/16/1 364/15/1
f 365/23/1 366/24/1 367/17/1 368/16/1
f 369/24/1 370/25/1 371/18/1 372/17/1
f 373/19/1 374/20/1 375/10/1 376/9/1
f 377/20/1 378/21/1 379/13/1 380/10/1
f 381/21/1 382/15/1 383/1/1 384/13/1
f 385/15/1 386/16/1 387/2/1 388/1/1
f 389/16/1 390/17/1 391/5/1 392/2/1
f 393/17/1 394/18/1 395/7/1 396/5/1
f 397/26/1 398/27/1 399/20/1 400/19/1
f 401/27/1 402/28/1 403/21/1 404/20/1
f 405/28/1 406/22/1 407/15/1 408/21/1
f 409/22/1 410/23/1 411/16/1 412/15/1
f 413/23/1 414/24/1 415/17/1 416/16/1
f 417/24/1 418/25/1 419/18/1 420/17/1

