# Tiled2Unity generated file. Do not modify by hand.
# Wavefront file for 'roomInside_mesh_0009.obj'

# Vertices (Count = 60)
v -1024 -544 0
v -1056 -544 0
v -1056 -512 0
v -1024 -512 0
v -1056 -544 0
v -1088 -544 0
v -1088 -512 0
v -1056 -512 0
v -1088 -544 0
v -1120 -544 0
v -1120 -512 0
v -1088 -512 0
v -1120 -544 0
v -1152 -544 0
v -1152 -512 0
v -1120 -512 0
v -1152 -544 0
v -1184 -544 0
v -1184 -512 0
v -1152 -512 0
v -1184 -544 0
v -1216 -544 0
v -1216 -512 0
v -1184 -512 0
v -1216 -544 0
v -1248 -544 0
v -1248 -512 0
v -1216 -512 0
v -1024 -576 0
v -1056 -576 0
v -1056 -544 0
v -1024 -544 0
v -1056 -576 0
v -1088 -576 0
v -1088 -544 0
v -1056 -544 0
v -1088 -576 0
v -1120 -576 0
v -1120 -544 0
v -1088 -544 0
v -1120 -576 0
v -1152 -576 0
v -1152 -544 0
v -1120 -544 0
v -1024 -608 0
v -1056 -608 0
v -1056 -576 0
v -1024 -576 0
v -1056 -608 0
v -1088 -608 0
v -1088 -576 0
v -1056 -576 0
v -1088 -608 0
v -1120 -608 0
v -1120 -576 0
v -1088 -576 0
v -1120 -608 0
v -1152 -608 0
v -1152 -576 0
v -1120 -576 0

# Texture cooridinates (Count = 18)
vt 0.7619048 0.6363636
vt 0.8095238 0.6363636
vt 0.8095238 0.6818182
vt 0.7619048 0.6818182
vt 0.8571429 0.6363636
vt 0.8571429 0.6818182
vt 0.7619048 0.5909091
vt 0.8095238 0.5909091
vt 0.8571429 0.5909091
vt 0.9047619 0.5909091
vt 0.9047619 0.6363636
vt 0.952381 0.5909091
vt 0.952381 0.6363636
vt 0.7619048 0.5454545
vt 0.8095238 0.5454545
vt 0.8571429 0.5454545
vt 0.9047619 0.5454545
vt 0.952381 0.5454545

# Normal
vn 0 0 -1

# Mesh description
g roomInside_mesh_0009

# Faces
f 1/1/1 2/2/1 3/3/1 4/4/1
f 5/2/1 6/5/1 7/6/1 8/3/1
f 9/2/1 10/5/1 11/6/1 12/3/1
f 13/2/1 14/5/1 15/6/1 16/3/1
f 17/2/1 18/5/1 19/6/1 20/3/1
f 21/2/1 22/5/1 23/6/1 24/3/1
f 25/2/1 26/5/1 27/6/1 28/3/1
f 29/7/1 30/8/1 31/2/1 32/1/1
f 33/8/1 34/9/1 35/5/1 36/2/1
f 37/9/1 38/10/1 39/11/1 40/5/1
f 41/10/1 42/12/1 43/13/1 44/11/1
f 45/14/1 46/15/1 47/8/1 48/7/1
f 49/15/1 50/16/1 51/9/1 52/8/1
f 53/16/1 54/17/1 55/10/1 56/9/1
f 57/17/1 58/18/1 59/12/1 60/10/1

