# Tiled2Unity generated file. Do not modify by hand.
# Wavefront file for 'map1_mesh_0004.obj'

# Vertices (Count = 816)
v -2144 -1088 0
v -2176 -1088 0
v -2176 -1056 0
v -2144 -1056 0
v -2176 -1088 0
v -2208 -1088 0
v -2208 -1056 0
v -2176 -1056 0
v -2208 -1088 0
v -2240 -1088 0
v -2240 -1056 0
v -2208 -1056 0
v -1728 -1120 0
v -1760 -1120 0
v -1760 -1088 0
v -1728 -1088 0
v -1760 -1120 0
v -1792 -1120 0
v -1792 -1088 0
v -1760 -1088 0
v -1792 -1120 0
v -1824 -1120 0
v -1824 -1088 0
v -1792 -1088 0
v -2144 -1120 0
v -2176 -1120 0
v -2176 -1088 0
v -2144 -1088 0
v -2176 -1120 0
v -2208 -1120 0
v -2208 -1088 0
v -2176 -1088 0
v -2208 -1120 0
v -2240 -1120 0
v -2240 -1088 0
v -2208 -1088 0
v -2656 -1120 0
v -2688 -1120 0
v -2688 -1088 0
v -2656 -1088 0
v -2688 -1120 0
v -2720 -1120 0
v -2720 -1088 0
v -2688 -1088 0
v -2720 -1120 0
v -2752 -1120 0
v -2752 -1088 0
v -2720 -1088 0
v -1376 -1152 0
v -1408 -1152 0
v -1408 -1120 0
v -1376 -1120 0
v -1408 -1152 0
v -1440 -1152 0
v -1440 -1120 0
v -1408 -1120 0
v -1440 -1152 0
v -1472 -1152 0
v -1472 -1120 0
v -1440 -1120 0
v -1728 -1152 0
v -1760 -1152 0
v -1760 -1120 0
v -1728 -1120 0
v -1760 -1152 0
v -1792 -1152 0
v -1792 -1120 0
v -1760 -1120 0
v -1792 -1152 0
v -1824 -1152 0
v -1824 -1120 0
v -1792 -1120 0
v -2656 -1152 0
v -2688 -1152 0
v -2688 -1120 0
v -2656 -1120 0
v -2688 -1152 0
v -2720 -1152 0
v -2720 -1120 0
v -2688 -1120 0
v -2720 -1152 0
v -2752 -1152 0
v -2752 -1120 0
v -2720 -1120 0
v -2912 -1152 0
v -2944 -1152 0
v -2944 -1120 0
v -2912 -1120 0
v -2944 -1152 0
v -2976 -1152 0
v -2976 -1120 0
v -2944 -1120 0
v -2976 -1152 0
v -3008 -1152 0
v -3008 -1120 0
v -2976 -1120 0
v -1376 -1184 0
v -1408 -1184 0
v -1408 -1152 0
v -1376 -1152 0
v -1408 -1184 0
v -1440 -1184 0
v -1440 -1152 0
v -1408 -1152 0
v -1440 -1184 0
v -1472 -1184 0
v -1472 -1152 0
v -1440 -1152 0
v -1920 -1184 0
v -1952 -1184 0
v -1952 -1152 0
v -1920 -1152 0
v -1952 -1184 0
v -1984 -1184 0
v -1984 -1152 0
v -1952 -1152 0
v -1984 -1184 0
v -2016 -1184 0
v -2016 -1152 0
v -1984 -1152 0
v -2368 -1184 0
v -2400 -1184 0
v -2400 -1152 0
v -2368 -1152 0
v -2400 -1184 0
v -2432 -1184 0
v -2432 -1152 0
v -2400 -1152 0
v -2432 -1184 0
v -2464 -1184 0
v -2464 -1152 0
v -2432 -1152 0
v -2912 -1184 0
v -2944 -1184 0
v -2944 -1152 0
v -2912 -1152 0
v -2944 -1184 0
v -2976 -1184 0
v -2976 -1152 0
v -2944 -1152 0
v -2976 -1184 0
v -3008 -1184 0
v -3008 -1152 0
v -2976 -1152 0
v -1920 -1216 0
v -1952 -1216 0
v -1952 -1184 0
v -1920 -1184 0
v -1952 -1216 0
v -1984 -1216 0
v -1984 -1184 0
v -1952 -1184 0
v -1984 -1216 0
v -2016 -1216 0
v -2016 -1184 0
v -1984 -1184 0
v -2368 -1216 0
v -2400 -1216 0
v -2400 -1184 0
v -2368 -1184 0
v -2400 -1216 0
v -2432 -1216 0
v -2432 -1184 0
v -2400 -1184 0
v -2432 -1216 0
v -2464 -1216 0
v -2464 -1184 0
v -2432 -1184 0
v -1600 -1312 0
v -1632 -1312 0
v -1632 -1280 0
v -1600 -1280 0
v -1632 -1312 0
v -1664 -1312 0
v -1664 -1280 0
v -1632 -1280 0
v -1664 -1312 0
v -1696 -1312 0
v -1696 -1280 0
v -1664 -1280 0
v -1600 -1344 0
v -1632 -1344 0
v -1632 -1312 0
v -1600 -1312 0
v -1632 -1344 0
v -1664 -1344 0
v -1664 -1312 0
v -1632 -1312 0
v -1664 -1344 0
v -1696 -1344 0
v -1696 -1312 0
v -1664 -1312 0
v -1344 -1376 0
v -1376 -1376 0
v -1376 -1344 0
v -1344 -1344 0
v -1376 -1376 0
v -1408 -1376 0
v -1408 -1344 0
v -1376 -1344 0
v -1408 -1376 0
v -1440 -1376 0
v -1440 -1344 0
v -1408 -1344 0
v -960 -1408 0
v -992 -1408 0
v -992 -1376 0
v -960 -1376 0
v -992 -1408 0
v -1024 -1408 0
v -1024 -1376 0
v -992 -1376 0
v -1024 -1408 0
v -1056 -1408 0
v -1056 -1376 0
v -1024 -1376 0
v -1344 -1408 0
v -1376 -1408 0
v -1376 -1376 0
v -1344 -1376 0
v -1376 -1408 0
v -1408 -1408 0
v -1408 -1376 0
v -1376 -1376 0
v -1408 -1408 0
v -1440 -1408 0
v -1440 -1376 0
v -1408 -1376 0
v -960 -1440 0
v -992 -1440 0
v -992 -1408 0
v -960 -1408 0
v -992 -1440 0
v -1024 -1440 0
v -1024 -1408 0
v -992 -1408 0
v -1024 -1440 0
v -1056 -1440 0
v -1056 -1408 0
v -1024 -1408 0
v -3040 -1504 0
v -3072 -1504 0
v -3072 -1472 0
v -3040 -1472 0
v -3072 -1504 0
v -3104 -1504 0
v -3104 -1472 0
v -3072 -1472 0
v -3104 -1504 0
v -3136 -1504 0
v -3136 -1472 0
v -3104 -1472 0
v -1984 -1536 0
v -2016 -1536 0
v -2016 -1504 0
v -1984 -1504 0
v -2016 -1536 0
v -2048 -1536 0
v -2048 -1504 0
v -2016 -1504 0
v -2048 -1536 0
v -2080 -1536 0
v -2080 -1504 0
v -2048 -1504 0
v -2816 -1536 0
v -2848 -1536 0
v -2848 -1504 0
v -2816 -1504 0
v -2848 -1536 0
v -2880 -1536 0
v -2880 -1504 0
v -2848 -1504 0
v -2880 -1536 0
v -2912 -1536 0
v -2912 -1504 0
v -2880 -1504 0
v -3040 -1536 0
v -3072 -1536 0
v -3072 -1504 0
v -3040 -1504 0
v -3072 -1536 0
v -3104 -1536 0
v -3104 -1504 0
v -3072 -1504 0
v -3104 -1536 0
v -3136 -1536 0
v -3136 -1504 0
v -3104 -1504 0
v -768 -1568 0
v -800 -1568 0
v -800 -1536 0
v -768 -1536 0
v -800 -1568 0
v -832 -1568 0
v -832 -1536 0
v -800 -1536 0
v -832 -1568 0
v -864 -1568 0
v -864 -1536 0
v -832 -1536 0
v -1024 -1568 0
v -1056 -1568 0
v -1056 -1536 0
v -1024 -1536 0
v -1056 -1568 0
v -1088 -1568 0
v -1088 -1536 0
v -1056 -1536 0
v -1088 -1568 0
v -1120 -1568 0
v -1120 -1536 0
v -1088 -1536 0
v -1984 -1568 0
v -2016 -1568 0
v -2016 -1536 0
v -1984 -1536 0
v -2016 -1568 0
v -2048 -1568 0
v -2048 -1536 0
v -2016 -1536 0
v -2048 -1568 0
v -2080 -1568 0
v -2080 -1536 0
v -2048 -1536 0
v -2400 -1568 0
v -2432 -1568 0
v -2432 -1536 0
v -2400 -1536 0
v -2432 -1568 0
v -2464 -1568 0
v -2464 -1536 0
v -2432 -1536 0
v -2464 -1568 0
v -2496 -1568 0
v -2496 -1536 0
v -2464 -1536 0
v -2816 -1568 0
v -2848 -1568 0
v -2848 -1536 0
v -2816 -1536 0
v -2848 -1568 0
v -2880 -1568 0
v -2880 -1536 0
v -2848 -1536 0
v -2880 -1568 0
v -2912 -1568 0
v -2912 -1536 0
v -2880 -1536 0
v -768 -1600 0
v -800 -1600 0
v -800 -1568 0
v -768 -1568 0
v -800 -1600 0
v -832 -1600 0
v -832 -1568 0
v -800 -1568 0
v -832 -1600 0
v -864 -1600 0
v -864 -1568 0
v -832 -1568 0
v -1024 -1600 0
v -1056 -1600 0
v -1056 -1568 0
v -1024 -1568 0
v -1056 -1600 0
v -1088 -1600 0
v -1088 -1568 0
v -1056 -1568 0
v -1088 -1600 0
v -1120 -1600 0
v -1120 -1568 0
v -1088 -1568 0
v -2400 -1600 0
v -2432 -1600 0
v -2432 -1568 0
v -2400 -1568 0
v -2432 -1600 0
v -2464 -1600 0
v -2464 -1568 0
v -2432 -1568 0
v -2464 -1600 0
v -2496 -1600 0
v -2496 -1568 0
v -2464 -1568 0
v -32 -1632 0
v -64 -1632 0
v -64 -1600 0
v -32 -1600 0
v -64 -1632 0
v -96 -1632 0
v -96 -1600 0
v -64 -1600 0
v -96 -1632 0
v -128 -1632 0
v -128 -1600 0
v -96 -1600 0
v -384 -1632 0
v -416 -1632 0
v -416 -1600 0
v -384 -1600 0
v -416 -1632 0
v -448 -1632 0
v -448 -1600 0
v -416 -1600 0
v -448 -1632 0
v -480 -1632 0
v -480 -1600 0
v -448 -1600 0
v -32 -1664 0
v -64 -1664 0
v -64 -1632 0
v -32 -1632 0
v -64 -1664 0
v -96 -1664 0
v -96 -1632 0
v -64 -1632 0
v -96 -1664 0
v -128 -1664 0
v -128 -1632 0
v -96 -1632 0
v -384 -1664 0
v -416 -1664 0
v -416 -1632 0
v -384 -1632 0
v -416 -1664 0
v -448 -1664 0
v -448 -1632 0
v -416 -1632 0
v -448 -1664 0
v -480 -1664 0
v -480 -1632 0
v -448 -1632 0
v -2176 -1664 0
v -2208 -1664 0
v -2208 -1632 0
v -2176 -1632 0
v -2208 -1664 0
v -2240 -1664 0
v -2240 -1632 0
v -2208 -1632 0
v -2240 -1664 0
v -2272 -1664 0
v -2272 -1632 0
v -2240 -1632 0
v -2624 -1664 0
v -2656 -1664 0
v -2656 -1632 0
v -2624 -1632 0
v -2656 -1664 0
v -2688 -1664 0
v -2688 -1632 0
v -2656 -1632 0
v -2688 -1664 0
v -2720 -1664 0
v -2720 -1632 0
v -2688 -1632 0
v -800 -1696 0
v -832 -1696 0
v -832 -1664 0
v -800 -1664 0
v -832 -1696 0
v -864 -1696 0
v -864 -1664 0
v -832 -1664 0
v -864 -1696 0
v -896 -1696 0
v -896 -1664 0
v -864 -1664 0
v -2176 -1696 0
v -2208 -1696 0
v -2208 -1664 0
v -2176 -1664 0
v -2208 -1696 0
v -2240 -1696 0
v -2240 -1664 0
v -2208 -1664 0
v -2240 -1696 0
v -2272 -1696 0
v -2272 -1664 0
v -2240 -1664 0
v -2624 -1696 0
v -2656 -1696 0
v -2656 -1664 0
v -2624 -1664 0
v -2656 -1696 0
v -2688 -1696 0
v -2688 -1664 0
v -2656 -1664 0
v -2688 -1696 0
v -2720 -1696 0
v -2720 -1664 0
v -2688 -1664 0
v -800 -1728 0
v -832 -1728 0
v -832 -1696 0
v -800 -1696 0
v -832 -1728 0
v -864 -1728 0
v -864 -1696 0
v -832 -1696 0
v -864 -1728 0
v -896 -1728 0
v -896 -1696 0
v -864 -1696 0
v -1312 -1728 0
v -1344 -1728 0
v -1344 -1696 0
v -1312 -1696 0
v -1344 -1728 0
v -1376 -1728 0
v -1376 -1696 0
v -1344 -1696 0
v -1376 -1728 0
v -1408 -1728 0
v -1408 -1696 0
v -1376 -1696 0
v -1664 -1728 0
v -1696 -1728 0
v -1696 -1696 0
v -1664 -1696 0
v -1696 -1728 0
v -1728 -1728 0
v -1728 -1696 0
v -1696 -1696 0
v -1728 -1728 0
v -1760 -1728 0
v -1760 -1696 0
v -1728 -1696 0
v -1856 -1728 0
v -1888 -1728 0
v -1888 -1696 0
v -1856 -1696 0
v -1888 -1728 0
v -1920 -1728 0
v -1920 -1696 0
v -1888 -1696 0
v -1920 -1728 0
v -1952 -1728 0
v -1952 -1696 0
v -1920 -1696 0
v -1312 -1760 0
v -1344 -1760 0
v -1344 -1728 0
v -1312 -1728 0
v -1344 -1760 0
v -1376 -1760 0
v -1376 -1728 0
v -1344 -1728 0
v -1376 -1760 0
v -1408 -1760 0
v -1408 -1728 0
v -1376 -1728 0
v -1664 -1760 0
v -1696 -1760 0
v -1696 -1728 0
v -1664 -1728 0
v -1696 -1760 0
v -1728 -1760 0
v -1728 -1728 0
v -1696 -1728 0
v -1728 -1760 0
v -1760 -1760 0
v -1760 -1728 0
v -1728 -1728 0
v -1856 -1760 0
v -1888 -1760 0
v -1888 -1728 0
v -1856 -1728 0
v -1888 -1760 0
v -1920 -1760 0
v -1920 -1728 0
v -1888 -1728 0
v -1920 -1760 0
v -1952 -1760 0
v -1952 -1728 0
v -1920 -1728 0
v -512 -1792 0
v -544 -1792 0
v -544 -1760 0
v -512 -1760 0
v -544 -1792 0
v -576 -1792 0
v -576 -1760 0
v -544 -1760 0
v -576 -1792 0
v -608 -1792 0
v -608 -1760 0
v -576 -1760 0
v -128 -1824 0
v -160 -1824 0
v -160 -1792 0
v -128 -1792 0
v -160 -1824 0
v -192 -1824 0
v -192 -1792 0
v -160 -1792 0
v -192 -1824 0
v -224 -1824 0
v -224 -1792 0
v -192 -1792 0
v -512 -1824 0
v -544 -1824 0
v -544 -1792 0
v -512 -1792 0
v -544 -1824 0
v -576 -1824 0
v -576 -1792 0
v -544 -1792 0
v -576 -1824 0
v -608 -1824 0
v -608 -1792 0
v -576 -1792 0
v -128 -1856 0
v -160 -1856 0
v -160 -1824 0
v -128 -1824 0
v -160 -1856 0
v -192 -1856 0
v -192 -1824 0
v -160 -1824 0
v -192 -1856 0
v -224 -1856 0
v -224 -1824 0
v -192 -1824 0
v -1472 -1888 0
v -1504 -1888 0
v -1504 -1856 0
v -1472 -1856 0
v -1504 -1888 0
v -1536 -1888 0
v -1536 -1856 0
v -1504 -1856 0
v -1536 -1888 0
v -1568 -1888 0
v -1568 -1856 0
v -1536 -1856 0
v -1472 -1920 0
v -1504 -1920 0
v -1504 -1888 0
v -1472 -1888 0
v -1504 -1920 0
v -1536 -1920 0
v -1536 -1888 0
v -1504 -1888 0
v -1536 -1920 0
v -1568 -1920 0
v -1568 -1888 0
v -1536 -1888 0
v -1184 -1984 0
v -1216 -1984 0
v -1216 -1952 0
v -1184 -1952 0
v -1216 -1984 0
v -1248 -1984 0
v -1248 -1952 0
v -1216 -1952 0
v -1248 -1984 0
v -1280 -1984 0
v -1280 -1952 0
v -1248 -1952 0
v -1184 -2016 0
v -1216 -2016 0
v -1216 -1984 0
v -1184 -1984 0
v -1216 -2016 0
v -1248 -2016 0
v -1248 -1984 0
v -1216 -1984 0
v -1248 -2016 0
v -1280 -2016 0
v -1280 -1984 0
v -1248 -1984 0
v -832 -2080 0
v -864 -2080 0
v -864 -2048 0
v -832 -2048 0
v -864 -2080 0
v -896 -2080 0
v -896 -2048 0
v -864 -2048 0
v -896 -2080 0
v -928 -2080 0
v -928 -2048 0
v -896 -2048 0
v -832 -2112 0
v -864 -2112 0
v -864 -2080 0
v -832 -2080 0
v -864 -2112 0
v -896 -2112 0
v -896 -2080 0
v -864 -2080 0
v -896 -2112 0
v -928 -2112 0
v -928 -2080 0
v -896 -2080 0
v -512 -2144 0
v -544 -2144 0
v -544 -2112 0
v -512 -2112 0
v -544 -2144 0
v -576 -2144 0
v -576 -2112 0
v -544 -2112 0
v -576 -2144 0
v -608 -2144 0
v -608 -2112 0
v -576 -2112 0
v -1088 -2144 0
v -1120 -2144 0
v -1120 -2112 0
v -1088 -2112 0
v -1120 -2144 0
v -1152 -2144 0
v -1152 -2112 0
v -1120 -2112 0
v -1152 -2144 0
v -1184 -2144 0
v -1184 -2112 0
v -1152 -2112 0
v -160 -2176 0
v -192 -2176 0
v -192 -2144 0
v -160 -2144 0
v -192 -2176 0
v -224 -2176 0
v -224 -2144 0
v -192 -2144 0
v -224 -2176 0
v -256 -2176 0
v -256 -2144 0
v -224 -2144 0
v -512 -2176 0
v -544 -2176 0
v -544 -2144 0
v -512 -2144 0
v -544 -2176 0
v -576 -2176 0
v -576 -2144 0
v -544 -2144 0
v -576 -2176 0
v -608 -2176 0
v -608 -2144 0
v -576 -2144 0
v -1088 -2176 0
v -1120 -2176 0
v -1120 -2144 0
v -1088 -2144 0
v -1120 -2176 0
v -1152 -2176 0
v -1152 -2144 0
v -1120 -2144 0
v -1152 -2176 0
v -1184 -2176 0
v -1184 -2144 0
v -1152 -2144 0
v -160 -2208 0
v -192 -2208 0
v -192 -2176 0
v -160 -2176 0
v -192 -2208 0
v -224 -2208 0
v -224 -2176 0
v -192 -2176 0
v -224 -2208 0
v -256 -2208 0
v -256 -2176 0
v -224 -2176 0
v -352 -2272 0
v -384 -2272 0
v -384 -2240 0
v -352 -2240 0
v -384 -2272 0
v -416 -2272 0
v -416 -2240 0
v -384 -2240 0
v -416 -2272 0
v -448 -2272 0
v -448 -2240 0
v -416 -2240 0
v -64 -2304 0
v -96 -2304 0
v -96 -2272 0
v -64 -2272 0
v -96 -2304 0
v -128 -2304 0
v -128 -2272 0
v -96 -2272 0
v -128 -2304 0
v -160 -2304 0
v -160 -2272 0
v -128 -2272 0
v -352 -2304 0
v -384 -2304 0
v -384 -2272 0
v -352 -2272 0
v -384 -2304 0
v -416 -2304 0
v -416 -2272 0
v -384 -2272 0
v -416 -2304 0
v -448 -2304 0
v -448 -2272 0
v -416 -2272 0
v -64 -2336 0
v -96 -2336 0
v -96 -2304 0
v -64 -2304 0
v -96 -2336 0
v -128 -2336 0
v -128 -2304 0
v -96 -2304 0
v -128 -2336 0
v -160 -2336 0
v -160 -2304 0
v -128 -2304 0

# Texture cooridinates (Count = 21)
vt 0.4615385 0.3846154
vt 0.5384616 0.3846154
vt 0.5384616 0.4615384
vt 0.4615385 0.4615384
vt 0.6153846 0.3846154
vt 0.6153846 0.4615384
vt 0.6923077 0.3846154
vt 0.6923077 0.4615384
vt 0.4615385 0.3076923
vt 0.5384616 0.3076923
vt 0.6153846 0.3076923
vt 0.6923077 0.3076923
vt 0.2307692 0.3846154
vt 0.3076923 0.3846154
vt 0.3076923 0.4615384
vt 0.2307692 0.4615384
vt 0.3846154 0.3846154
vt 0.3846154 0.4615384
vt 0.2307692 0.3076923
vt 0.3076923 0.3076923
vt 0.3846154 0.3076923

# Normal
vn 0 0 -1

# Mesh description
g map1_mesh_0004

# Faces
f 1/1/1 2/2/1 3/3/1 4/4/1
f 5/2/1 6/5/1 7/6/1 8/3/1
f 9/5/1 10/7/1 11/8/1 12/6/1
f 13/1/1 14/2/1 15/3/1 16/4/1
f 17/2/1 18/5/1 19/6/1 20/3/1
f 21/5/1 22/7/1 23/8/1 24/6/1
f 25/9/1 26/10/1 27/2/1 28/1/1
f 29/10/1 30/11/1 31/5/1 32/2/1
f 33/11/1 34/12/1 35/7/1 36/5/1
f 37/1/1 38/2/1 39/3/1 40/4/1
f 41/2/1 42/5/1 43/6/1 44/3/1
f 45/5/1 46/7/1 47/8/1 48/6/1
f 49/1/1 50/2/1 51/3/1 52/4/1
f 53/2/1 54/5/1 55/6/1 56/3/1
f 57/5/1 58/7/1 59/8/1 60/6/1
f 61/9/1 62/10/1 63/2/1 64/1/1
f 65/10/1 66/11/1 67/5/1 68/2/1
f 69/11/1 70/12/1 71/7/1 72/5/1
f 73/9/1 74/10/1 75/2/1 76/1/1
f 77/10/1 78/11/1 79/5/1 80/2/1
f 81/11/1 82/12/1 83/7/1 84/5/1
f 85/13/1 86/14/1 87/15/1 88/16/1
f 89/14/1 90/17/1 91/18/1 92/15/1
f 93/17/1 94/1/1 95/4/1 96/18/1
f 97/9/1 98/10/1 99/2/1 100/1/1
f 101/10/1 102/11/1 103/5/1 104/2/1
f 105/11/1 106/12/1 107/7/1 108/5/1
f 109/13/1 110/14/1 111/15/1 112/16/1
f 113/14/1 114/17/1 115/18/1 116/15/1
f 117/17/1 118/1/1 119/4/1 120/18/1
f 121/13/1 122/14/1 123/15/1 124/16/1
f 125/14/1 126/17/1 127/18/1 128/15/1
f 129/17/1 130/1/1 131/4/1 132/18/1
f 133/19/1 134/20/1 135/14/1 136/13/1
f 137/20/1 138/21/1 139/17/1 140/14/1
f 141/21/1 142/9/1 143/1/1 144/17/1
f 145/19/1 146/20/1 147/14/1 148/13/1
f 149/20/1 150/21/1 151/17/1 152/14/1
f 153/21/1 154/9/1 155/1/1 156/17/1
f 157/19/1 158/20/1 159/14/1 160/13/1
f 161/20/1 162/21/1 163/17/1 164/14/1
f 165/21/1 166/9/1 167/1/1 168/17/1
f 169/13/1 170/14/1 171/15/1 172/16/1
f 173/14/1 174/17/1 175/18/1 176/15/1
f 177/17/1 178/1/1 179/4/1 180/18/1
f 181/19/1 182/20/1 183/14/1 184/13/1
f 185/20/1 186/21/1 187/17/1 188/14/1
f 189/21/1 190/9/1 191/1/1 192/17/1
f 193/13/1 194/14/1 195/15/1 196/16/1
f 197/14/1 198/17/1 199/18/1 200/15/1
f 201/17/1 202/1/1 203/4/1 204/18/1
f 205/1/1 206/2/1 207/3/1 208/4/1
f 209/2/1 210/5/1 211/6/1 212/3/1
f 213/5/1 214/7/1 215/8/1 216/6/1
f 217/19/1 218/20/1 219/14/1 220/13/1
f 221/20/1 222/21/1 223/17/1 224/14/1
f 225/21/1 226/9/1 227/1/1 228/17/1
f 229/9/1 230/10/1 231/2/1 232/1/1
f 233/10/1 234/11/1 235/5/1 236/2/1
f 237/11/1 238/12/1 239/7/1 240/5/1
f 241/1/1 242/2/1 243/3/1 244/4/1
f 245/2/1 246/5/1 247/6/1 248/3/1
f 249/5/1 250/7/1 251/8/1 252/6/1
f 253/13/1 254/14/1 255/15/1 256/16/1
f 257/14/1 258/17/1 259/18/1 260/15/1
f 261/17/1 262/1/1 263/4/1 264/18/1
f 265/13/1 266/14/1 267/15/1 268/16/1
f 269/14/1 270/17/1 271/18/1 272/15/1
f 273/17/1 274/1/1 275/4/1 276/18/1
f 277/9/1 278/10/1 279/2/1 280/1/1
f 281/10/1 282/11/1 283/5/1 284/2/1
f 285/11/1 286/12/1 287/7/1 288/5/1
f 289/1/1 290/2/1 291/3/1 292/4/1
f 293/2/1 294/5/1 295/6/1 296/3/1
f 297/5/1 298/7/1 299/8/1 300/6/1
f 301/13/1 302/14/1 303/15/1 304/16/1
f 305/14/1 306/17/1 307/18/1 308/15/1
f 309/17/1 310/1/1 311/4/1 312/18/1
f 313/19/1 314/20/1 315/14/1 316/13/1
f 317/20/1 318/21/1 319/17/1 320/14/1
f 321/21/1 322/9/1 323/1/1 324/17/1
f 325/13/1 326/14/1 327/15/1 328/16/1
f 329/14/1 330/17/1 331/18/1 332/15/1
f 333/17/1 334/1/1 335/4/1 336/18/1
f 337/19/1 338/20/1 339/14/1 340/13/1
f 341/20/1 342/21/1 343/17/1 344/14/1
f 345/21/1 346/9/1 347/1/1 348/17/1
f 349/9/1 350/10/1 351/2/1 352/1/1
f 353/10/1 354/11/1 355/5/1 356/2/1
f 357/11/1 358/12/1 359/7/1 360/5/1
f 361/19/1 362/20/1 363/14/1 364/13/1
f 365/20/1 366/21/1 367/17/1 368/14/1
f 369/21/1 370/9/1 371/1/1 372/17/1
f 373/19/1 374/20/1 375/14/1 376/13/1
f 377/20/1 378/21/1 379/17/1 380/14/1
f 381/21/1 382/9/1 383/1/1 384/17/1
f 385/1/1 386/2/1 387/3/1 388/4/1
f 389/2/1 390/5/1 391/6/1 392/3/1
f 393/5/1 394/7/1 395/8/1 396/6/1
f 397/1/1 398/2/1 399/3/1 400/4/1
f 401/2/1 402/5/1 403/6/1 404/3/1
f 405/5/1 406/7/1 407/8/1 408/6/1
f 409/9/1 410/10/1 411/2/1 412/1/1
f 413/10/1 414/11/1 415/5/1 416/2/1
f 417/11/1 418/12/1 419/7/1 420/5/1
f 421/9/1 422/10/1 423/2/1 424/1/1
f 425/10/1 426/11/1 427/5/1 428/2/1
f 429/11/1 430/12/1 431/7/1 432/5/1
f 433/1/1 434/2/1 435/3/1 436/4/1
f 437/2/1 438/5/1 439/6/1 440/3/1
f 441/5/1 442/7/1 443/8/1 444/6/1
f 445/1/1 446/2/1 447/3/1 448/4/1
f 449/2/1 450/5/1 451/6/1 452/3/1
f 453/5/1 454/7/1 455/8/1 456/6/1
f 457/13/1 458/14/1 459/15/1 460/16/1
f 461/14/1 462/17/1 463/18/1 464/15/1
f 465/17/1 466/1/1 467/4/1 468/18/1
f 469/9/1 470/10/1 471/2/1 472/1/1
f 473/10/1 474/11/1 475/5/1 476/2/1
f 477/11/1 478/12/1 479/7/1 480/5/1
f 481/9/1 482/10/1 483/2/1 484/1/1
f 485/10/1 486/11/1 487/5/1 488/2/1
f 489/11/1 490/12/1 491/7/1 492/5/1
f 493/19/1 494/20/1 495/14/1 496/13/1
f 497/20/1 498/21/1 499/17/1 500/14/1
f 501/21/1 502/9/1 503/1/1 504/17/1
f 505/13/1 506/14/1 507/15/1 508/16/1
f 509/14/1 510/17/1 511/18/1 512/15/1
f 513/17/1 514/1/1 515/4/1 516/18/1
f 517/13/1 518/14/1 519/15/1 520/16/1
f 521/14/1 522/17/1 523/18/1 524/15/1
f 525/17/1 526/1/1 527/4/1 528/18/1
f 529/1/1 530/2/1 531/3/1 532/4/1
f 533/2/1 534/5/1 535/6/1 536/3/1
f 537/5/1 538/7/1 539/8/1 540/6/1
f 541/19/1 542/20/1 543/14/1 544/13/1
f 545/20/1 546/21/1 547/17/1 548/14/1
f 549/21/1 550/9/1 551/1/1 552/17/1
f 553/19/1 554/20/1 555/14/1 556/13/1
f 557/20/1 558/21/1 559/17/1 560/14/1
f 561/21/1 562/9/1 563/1/1 564/17/1
f 565/9/1 566/10/1 567/2/1 568/1/1
f 569/10/1 570/11/1 571/5/1 572/2/1
f 573/11/1 574/12/1 575/7/1 576/5/1
f 577/13/1 578/14/1 579/15/1 580/16/1
f 581/14/1 582/17/1 583/18/1 584/15/1
f 585/17/1 586/1/1 587/4/1 588/18/1
f 589/13/1 590/14/1 591/15/1 592/16/1
f 593/14/1 594/17/1 595/18/1 596/15/1
f 597/17/1 598/1/1 599/4/1 600/18/1
f 601/19/1 602/20/1 603/14/1 604/13/1
f 605/20/1 606/21/1 607/17/1 608/14/1
f 609/21/1 610/9/1 611/1/1 612/17/1
f 613/19/1 614/20/1 615/14/1 616/13/1
f 617/20/1 618/21/1 619/17/1 620/14/1
f 621/21/1 622/9/1 623/1/1 624/17/1
f 625/1/1 626/2/1 627/3/1 628/4/1
f 629/2/1 630/5/1 631/6/1 632/3/1
f 633/5/1 634/7/1 635/8/1 636/6/1
f 637/9/1 638/10/1 639/2/1 640/1/1
f 641/10/1 642/11/1 643/5/1 644/2/1
f 645/11/1 646/12/1 647/7/1 648/5/1
f 649/13/1 650/14/1 651/15/1 652/16/1
f 653/14/1 654/17/1 655/18/1 656/15/1
f 657/17/1 658/1/1 659/4/1 660/18/1
f 661/19/1 662/20/1 663/14/1 664/13/1
f 665/20/1 666/21/1 667/17/1 668/14/1
f 669/21/1 670/9/1 671/1/1 672/17/1
f 673/13/1 674/14/1 675/15/1 676/16/1
f 677/14/1 678/17/1 679/18/1 680/15/1
f 681/17/1 682/1/1 683/4/1 684/18/1
f 685/19/1 686/20/1 687/14/1 688/13/1
f 689/20/1 690/21/1 691/17/1 692/14/1
f 693/21/1 694/9/1 695/1/1 696/17/1
f 697/13/1 698/14/1 699/15/1 700/16/1
f 701/14/1 702/17/1 703/18/1 704/15/1
f 705/17/1 706/1/1 707/4/1 708/18/1
f 709/1/1 710/2/1 711/3/1 712/4/1
f 713/2/1 714/5/1 715/6/1 716/3/1
f 717/5/1 718/7/1 719/8/1 720/6/1
f 721/13/1 722/14/1 723/15/1 724/16/1
f 725/14/1 726/17/1 727/18/1 728/15/1
f 729/17/1 730/1/1 731/4/1 732/18/1
f 733/19/1 734/20/1 735/14/1 736/13/1
f 737/20/1 738/21/1 739/17/1 740/14/1
f 741/21/1 742/9/1 743/1/1 744/17/1
f 745/9/1 746/10/1 747/2/1 748/1/1
f 749/10/1 750/11/1 751/5/1 752/2/1
f 753/11/1 754/12/1 755/7/1 756/5/1
f 757/19/1 758/20/1 759/14/1 760/13/1
f 761/20/1 762/21/1 763/17/1 764/14/1
f 765/21/1 766/9/1 767/1/1 768/17/1
f 769/1/1 770/2/1 771/3/1 772/4/1
f 773/2/1 774/5/1 775/6/1 776/3/1
f 777/5/1 778/7/1 779/8/1 780/6/1
f 781/1/1 782/2/1 783/3/1 784/4/1
f 785/2/1 786/5/1 787/6/1 788/3/1
f 789/5/1 790/7/1 791/8/1 792/6/1
f 793/9/1 794/10/1 795/2/1 796/1/1
f 797/10/1 798/11/1 799/5/1 800/2/1
f 801/11/1 802/12/1 803/7/1 804/5/1
f 805/9/1 806/10/1 807/2/1 808/1/1
f 809/10/1 810/11/1 811/5/1 812/2/1
f 813/11/1 814/12/1 815/7/1 816/5/1

