# Tiled2Unity generated file. Do not modify by hand.
# Wavefront file for 'map1_mesh_0003.obj'

# Vertices (Count = 84)
v -1856 -1216 0
v -1888 -1216 0
v -1888 -1184 0
v -1856 -1184 0
v -2048 -1280 0
v -2080 -1280 0
v -2080 -1248 0
v -2048 -1248 0
v -2336 -1312 0
v -2368 -1312 0
v -2368 -1280 0
v -2336 -1280 0
v -2592 -1312 0
v -2624 -1312 0
v -2624 -1280 0
v -2592 -1280 0
v -2784 -1312 0
v -2816 -1312 0
v -2816 -1280 0
v -2784 -1280 0
v -3168 -1408 0
v -3200 -1408 0
v -3200 -1376 0
v -3168 -1376 0
v -1568 -1440 0
v -1600 -1440 0
v -1600 -1408 0
v -1568 -1408 0
v -2304 -1440 0
v -2336 -1440 0
v -2336 -1408 0
v -2304 -1408 0
v -2336 -1440 0
v -2368 -1440 0
v -2368 -1408 0
v -2336 -1408 0
v -2592 -1440 0
v -2624 -1440 0
v -2624 -1408 0
v -2592 -1408 0
v -1920 -1536 0
v -1952 -1536 0
v -1952 -1504 0
v -1920 -1504 0
v -1440 -1696 0
v -1472 -1696 0
v -1472 -1664 0
v -1440 -1664 0
v -1088 -1728 0
v -1120 -1728 0
v -1120 -1696 0
v -1088 -1696 0
v -704 -1792 0
v -736 -1792 0
v -736 -1760 0
v -704 -1760 0
v -640 -1856 0
v -672 -1856 0
v -672 -1824 0
v -640 -1824 0
v -128 -1920 0
v -160 -1920 0
v -160 -1888 0
v -128 -1888 0
v -288 -1920 0
v -320 -1920 0
v -320 -1888 0
v -288 -1888 0
v -960 -2016 0
v -992 -2016 0
v -992 -1984 0
v -960 -1984 0
v -64 -2048 0
v -96 -2048 0
v -96 -2016 0
v -64 -2016 0
v -448 -2048 0
v -480 -2048 0
v -480 -2016 0
v -448 -2016 0
v -704 -2112 0
v -736 -2112 0
v -736 -2080 0
v -704 -2080 0

# Texture cooridinates (Count = 6)
vt 0.5 0
vt 1 0
vt 1 1
vt 0.5 1
vt 0 0
vt 0 1

# Normal
vn 0 0 -1

# Mesh description
g map1_mesh_0003

# Faces
f 1/1/1 2/2/1 3/3/1 4/4/1
f 5/5/1 6/1/1 7/4/1 8/6/1
f 9/1/1 10/2/1 11/3/1 12/4/1
f 13/5/1 14/1/1 15/4/1 16/6/1
f 17/1/1 18/2/1 19/3/1 20/4/1
f 21/5/1 22/1/1 23/4/1 24/6/1
f 25/5/1 26/1/1 27/4/1 28/6/1
f 29/1/1 30/2/1 31/3/1 32/4/1
f 33/5/1 34/1/1 35/4/1 36/6/1
f 37/5/1 38/1/1 39/4/1 40/6/1
f 41/1/1 42/2/1 43/3/1 44/4/1
f 45/5/1 46/1/1 47/4/1 48/6/1
f 49/1/1 50/2/1 51/3/1 52/4/1
f 53/1/1 54/2/1 55/3/1 56/4/1
f 57/5/1 58/1/1 59/4/1 60/6/1
f 61/5/1 62/1/1 63/4/1 64/6/1
f 65/1/1 66/2/1 67/3/1 68/4/1
f 69/5/1 70/1/1 71/4/1 72/6/1
f 73/1/1 74/2/1 75/3/1 76/4/1
f 77/1/1 78/2/1 79/3/1 80/4/1
f 81/5/1 82/1/1 83/4/1 84/6/1

