# Tiled2Unity generated file. Do not modify by hand.
# Wavefront file for 'map1_mesh_0006.obj'

# Vertices (Count = 40)
v -3072 -1312 0
v -3104 -1312 0
v -3104 -1280 0
v -3072 -1280 0
v -2144 -1344 0
v -2176 -1344 0
v -2176 -1312 0
v -2144 -1312 0
v -1728 -1408 0
v -1760 -1408 0
v -1760 -1376 0
v -1728 -1376 0
v -1984 -1408 0
v -2016 -1408 0
v -2016 -1376 0
v -1984 -1376 0
v -2784 -1408 0
v -2816 -1408 0
v -2816 -1376 0
v -2784 -1376 0
v -1440 -1600 0
v -1472 -1600 0
v -1472 -1568 0
v -1440 -1568 0
v -1152 -1792 0
v -1184 -1792 0
v -1184 -1760 0
v -1152 -1760 0
v -768 -1888 0
v -800 -1888 0
v -800 -1856 0
v -768 -1856 0
v -224 -1952 0
v -256 -1952 0
v -256 -1920 0
v -224 -1920 0
v -576 -2016 0
v -608 -2016 0
v -608 -1984 0
v -576 -1984 0

# Texture cooridinates (Count = 6)
vt 0 0
vt 0.5 0
vt 0.5 1
vt 0 1
vt 1 0
vt 1 1

# Normal
vn 0 0 -1

# Mesh description
g map1_mesh_0006

# Faces
f 1/1/1 2/2/1 3/3/1 4/4/1
f 5/1/1 6/2/1 7/3/1 8/4/1
f 9/1/1 10/2/1 11/3/1 12/4/1
f 13/2/1 14/5/1 15/6/1 16/3/1
f 17/1/1 18/2/1 19/3/1 20/4/1
f 21/2/1 22/5/1 23/6/1 24/3/1
f 25/1/1 26/2/1 27/3/1 28/4/1
f 29/2/1 30/5/1 31/6/1 32/3/1
f 33/1/1 34/2/1 35/3/1 36/4/1
f 37/1/1 38/2/1 39/3/1 40/4/1

