# Tiled2Unity generated file. Do not modify by hand.
# Wavefront file for 'forest11_mesh_0005.obj'

# Vertices (Count = 504)
v -928 -32 0
v -960 -32 0
v -960 0 0
v -928 0 0
v -960 -32 0
v -992 -32 0
v -992 0 0
v -960 0 0
v -992 -32 0
v -1024 -32 0
v -1024 0 0
v -992 0 0
v -928 -64 0
v -960 -64 0
v -960 -32 0
v -928 -32 0
v -960 -64 0
v -992 -64 0
v -992 -32 0
v -960 -32 0
v -992 -64 0
v -1024 -64 0
v -1024 -32 0
v -992 -32 0
v -608 -96 0
v -640 -96 0
v -640 -64 0
v -608 -64 0
v -640 -96 0
v -672 -96 0
v -672 -64 0
v -640 -64 0
v -672 -96 0
v -704 -96 0
v -704 -64 0
v -672 -64 0
v -928 -96 0
v -960 -96 0
v -960 -64 0
v -928 -64 0
v -960 -96 0
v -992 -96 0
v -992 -64 0
v -960 -64 0
v -992 -96 0
v -1024 -96 0
v -1024 -64 0
v -992 -64 0
v -608 -128 0
v -640 -128 0
v -640 -96 0
v -608 -96 0
v -640 -128 0
v -672 -128 0
v -672 -96 0
v -640 -96 0
v -672 -128 0
v -704 -128 0
v -704 -96 0
v -672 -96 0
v -1088 -128 0
v -1120 -128 0
v -1120 -96 0
v -1088 -96 0
v -1120 -128 0
v -1152 -128 0
v -1152 -96 0
v -1120 -96 0
v -1152 -128 0
v -1184 -128 0
v -1184 -96 0
v -1152 -96 0
v -192 -160 0
v -224 -160 0
v -224 -128 0
v -192 -128 0
v -224 -160 0
v -256 -160 0
v -256 -128 0
v -224 -128 0
v -256 -160 0
v -288 -160 0
v -288 -128 0
v -256 -128 0
v -608 -160 0
v -640 -160 0
v -640 -128 0
v -608 -128 0
v -640 -160 0
v -672 -160 0
v -672 -128 0
v -640 -128 0
v -672 -160 0
v -704 -160 0
v -704 -128 0
v -672 -128 0
v -1088 -160 0
v -1120 -160 0
v -1120 -128 0
v -1088 -128 0
v -1120 -160 0
v -1152 -160 0
v -1152 -128 0
v -1120 -128 0
v -1152 -160 0
v -1184 -160 0
v -1184 -128 0
v -1152 -128 0
v -192 -192 0
v -224 -192 0
v -224 -160 0
v -192 -160 0
v -224 -192 0
v -256 -192 0
v -256 -160 0
v -224 -160 0
v -256 -192 0
v -288 -192 0
v -288 -160 0
v -256 -160 0
v -1088 -192 0
v -1120 -192 0
v -1120 -160 0
v -1088 -160 0
v -1120 -192 0
v -1152 -192 0
v -1152 -160 0
v -1120 -160 0
v -1152 -192 0
v -1184 -192 0
v -1184 -160 0
v -1152 -160 0
v -192 -224 0
v -224 -224 0
v -224 -192 0
v -192 -192 0
v -224 -224 0
v -256 -224 0
v -256 -192 0
v -224 -192 0
v -256 -224 0
v -288 -224 0
v -288 -192 0
v -256 -192 0
v -416 -224 0
v -448 -224 0
v -448 -192 0
v -416 -192 0
v -448 -224 0
v -480 -224 0
v -480 -192 0
v -448 -192 0
v -480 -224 0
v -512 -224 0
v -512 -192 0
v -480 -192 0
v -800 -224 0
v -832 -224 0
v -832 -192 0
v -800 -192 0
v -832 -224 0
v -864 -224 0
v -864 -192 0
v -832 -192 0
v -864 -224 0
v -896 -224 0
v -896 -192 0
v -864 -192 0
v -416 -256 0
v -448 -256 0
v -448 -224 0
v -416 -224 0
v -448 -256 0
v -480 -256 0
v -480 -224 0
v -448 -224 0
v -480 -256 0
v -512 -256 0
v -512 -224 0
v -480 -224 0
v -800 -256 0
v -832 -256 0
v -832 -224 0
v -800 -224 0
v -832 -256 0
v -864 -256 0
v -864 -224 0
v -832 -224 0
v -864 -256 0
v -896 -256 0
v -896 -224 0
v -864 -224 0
v -416 -288 0
v -448 -288 0
v -448 -256 0
v -416 -256 0
v -448 -288 0
v -480 -288 0
v -480 -256 0
v -448 -256 0
v -480 -288 0
v -512 -288 0
v -512 -256 0
v -480 -256 0
v -800 -288 0
v -832 -288 0
v -832 -256 0
v -800 -256 0
v -832 -288 0
v -864 -288 0
v -864 -256 0
v -832 -256 0
v -864 -288 0
v -896 -288 0
v -896 -256 0
v -864 -256 0
v -64 -320 0
v -96 -320 0
v -96 -288 0
v -64 -288 0
v -96 -320 0
v -128 -320 0
v -128 -288 0
v -96 -288 0
v -128 -320 0
v -160 -320 0
v -160 -288 0
v -128 -288 0
v -64 -352 0
v -96 -352 0
v -96 -320 0
v -64 -320 0
v -96 -352 0
v -128 -352 0
v -128 -320 0
v -96 -320 0
v -128 -352 0
v -160 -352 0
v -160 -320 0
v -128 -320 0
v -64 -384 0
v -96 -384 0
v -96 -352 0
v -64 -352 0
v -96 -384 0
v -128 -384 0
v -128 -352 0
v -96 -352 0
v -128 -384 0
v -160 -384 0
v -160 -352 0
v -128 -352 0
v -1152 -512 0
v -1184 -512 0
v -1184 -480 0
v -1152 -480 0
v -1184 -512 0
v -1216 -512 0
v -1216 -480 0
v -1184 -480 0
v -1216 -512 0
v -1248 -512 0
v -1248 -480 0
v -1216 -480 0
v -1152 -544 0
v -1184 -544 0
v -1184 -512 0
v -1152 -512 0
v -1184 -544 0
v -1216 -544 0
v -1216 -512 0
v -1184 -512 0
v -1216 -544 0
v -1248 -544 0
v -1248 -512 0
v -1216 -512 0
v -512 -576 0
v -544 -576 0
v -544 -544 0
v -512 -544 0
v -544 -576 0
v -576 -576 0
v -576 -544 0
v -544 -544 0
v -576 -576 0
v -608 -576 0
v -608 -544 0
v -576 -544 0
v -928 -576 0
v -960 -576 0
v -960 -544 0
v -928 -544 0
v -960 -576 0
v -992 -576 0
v -992 -544 0
v -960 -544 0
v -992 -576 0
v -1024 -576 0
v -1024 -544 0
v -992 -544 0
v -1152 -576 0
v -1184 -576 0
v -1184 -544 0
v -1152 -544 0
v -1184 -576 0
v -1216 -576 0
v -1216 -544 0
v -1184 -544 0
v -1216 -576 0
v -1248 -576 0
v -1248 -544 0
v -1216 -544 0
v -512 -608 0
v -544 -608 0
v -544 -576 0
v -512 -576 0
v -544 -608 0
v -576 -608 0
v -576 -576 0
v -544 -576 0
v -576 -608 0
v -608 -608 0
v -608 -576 0
v -576 -576 0
v -928 -608 0
v -960 -608 0
v -960 -576 0
v -928 -576 0
v -960 -608 0
v -992 -608 0
v -992 -576 0
v -960 -576 0
v -992 -608 0
v -1024 -608 0
v -1024 -576 0
v -992 -576 0
v -512 -640 0
v -544 -640 0
v -544 -608 0
v -512 -608 0
v -544 -640 0
v -576 -640 0
v -576 -608 0
v -544 -608 0
v -576 -640 0
v -608 -640 0
v -608 -608 0
v -576 -608 0
v -928 -640 0
v -960 -640 0
v -960 -608 0
v -928 -608 0
v -960 -640 0
v -992 -640 0
v -992 -608 0
v -960 -608 0
v -992 -640 0
v -1024 -640 0
v -1024 -608 0
v -992 -608 0
v -96 -736 0
v -128 -736 0
v -128 -704 0
v -96 -704 0
v -128 -736 0
v -160 -736 0
v -160 -704 0
v -128 -704 0
v -160 -736 0
v -192 -736 0
v -192 -704 0
v -160 -704 0
v -320 -736 0
v -352 -736 0
v -352 -704 0
v -320 -704 0
v -352 -736 0
v -384 -736 0
v -384 -704 0
v -352 -704 0
v -384 -736 0
v -416 -736 0
v -416 -704 0
v -384 -704 0
v -736 -736 0
v -768 -736 0
v -768 -704 0
v -736 -704 0
v -768 -736 0
v -800 -736 0
v -800 -704 0
v -768 -704 0
v -800 -736 0
v -832 -736 0
v -832 -704 0
v -800 -704 0
v -1088 -736 0
v -1120 -736 0
v -1120 -704 0
v -1088 -704 0
v -1120 -736 0
v -1152 -736 0
v -1152 -704 0
v -1120 -704 0
v -1152 -736 0
v -1184 -736 0
v -1184 -704 0
v -1152 -704 0
v -96 -768 0
v -128 -768 0
v -128 -736 0
v -96 -736 0
v -128 -768 0
v -160 -768 0
v -160 -736 0
v -128 -736 0
v -160 -768 0
v -192 -768 0
v -192 -736 0
v -160 -736 0
v -320 -768 0
v -352 -768 0
v -352 -736 0
v -320 -736 0
v -352 -768 0
v -384 -768 0
v -384 -736 0
v -352 -736 0
v -384 -768 0
v -416 -768 0
v -416 -736 0
v -384 -736 0
v -736 -768 0
v -768 -768 0
v -768 -736 0
v -736 -736 0
v -768 -768 0
v -800 -768 0
v -800 -736 0
v -768 -736 0
v -800 -768 0
v -832 -768 0
v -832 -736 0
v -800 -736 0
v -1088 -768 0
v -1120 -768 0
v -1120 -736 0
v -1088 -736 0
v -1120 -768 0
v -1152 -768 0
v -1152 -736 0
v -1120 -736 0
v -1152 -768 0
v -1184 -768 0
v -1184 -736 0
v -1152 -736 0
v -96 -800 0
v -128 -800 0
v -128 -768 0
v -96 -768 0
v -128 -800 0
v -160 -800 0
v -160 -768 0
v -128 -768 0
v -160 -800 0
v -192 -800 0
v -192 -768 0
v -160 -768 0
v -320 -800 0
v -352 -800 0
v -352 -768 0
v -320 -768 0
v -352 -800 0
v -384 -800 0
v -384 -768 0
v -352 -768 0
v -384 -800 0
v -416 -800 0
v -416 -768 0
v -384 -768 0
v -736 -800 0
v -768 -800 0
v -768 -768 0
v -736 -768 0
v -768 -800 0
v -800 -800 0
v -800 -768 0
v -768 -768 0
v -800 -800 0
v -832 -800 0
v -832 -768 0
v -800 -768 0
v -1088 -800 0
v -1120 -800 0
v -1120 -768 0
v -1088 -768 0
v -1120 -800 0
v -1152 -800 0
v -1152 -768 0
v -1120 -768 0
v -1152 -800 0
v -1184 -800 0
v -1184 -768 0
v -1152 -768 0

# Texture cooridinates (Count = 28)
vt 0.4615385 0.6153846
vt 0.5384616 0.6153846
vt 0.5384616 0.6923077
vt 0.4615385 0.6923077
vt 0.6153846 0.6153846
vt 0.6153846 0.6923077
vt 0.6923077 0.6153846
vt 0.6923077 0.6923077
vt 0.4615385 0.5384616
vt 0.5384616 0.5384616
vt 0.6153846 0.5384616
vt 0.6923077 0.5384616
vt 0.4615385 0.4615384
vt 0.5384616 0.4615384
vt 0.6153846 0.4615384
vt 0.6923077 0.4615384
vt 0.2307692 0.6153846
vt 0.3076923 0.6153846
vt 0.3076923 0.6923077
vt 0.2307692 0.6923077
vt 0.3846154 0.6153846
vt 0.3846154 0.6923077
vt 0.2307692 0.5384616
vt 0.3076923 0.5384616
vt 0.3846154 0.5384616
vt 0.2307692 0.4615384
vt 0.3076923 0.4615384
vt 0.3846154 0.4615384

# Normal
vn 0 0 -1

# Mesh description
g forest11_mesh_0005

# Faces
f 1/1/1 2/2/1 3/3/1 4/4/1
f 5/2/1 6/5/1 7/6/1 8/3/1
f 9/5/1 10/7/1 11/8/1 12/6/1
f 13/9/1 14/10/1 15/2/1 16/1/1
f 17/10/1 18/11/1 19/5/1 20/2/1
f 21/11/1 22/12/1 23/7/1 24/5/1
f 25/1/1 26/2/1 27/3/1 28/4/1
f 29/2/1 30/5/1 31/6/1 32/3/1
f 33/5/1 34/7/1 35/8/1 36/6/1
f 37/13/1 38/14/1 39/10/1 40/9/1
f 41/14/1 42/15/1 43/11/1 44/10/1
f 45/15/1 46/16/1 47/12/1 48/11/1
f 49/9/1 50/10/1 51/2/1 52/1/1
f 53/10/1 54/11/1 55/5/1 56/2/1
f 57/11/1 58/12/1 59/7/1 60/5/1
f 61/17/1 62/18/1 63/19/1 64/20/1
f 65/18/1 66/21/1 67/22/1 68/19/1
f 69/21/1 70/1/1 71/4/1 72/22/1
f 73/1/1 74/2/1 75/3/1 76/4/1
f 77/2/1 78/5/1 79/6/1 80/3/1
f 81/5/1 82/7/1 83/8/1 84/6/1
f 85/13/1 86/14/1 87/10/1 88/9/1
f 89/14/1 90/15/1 91/11/1 92/10/1
f 93/15/1 94/16/1 95/12/1 96/11/1
f 97/23/1 98/24/1 99/18/1 100/17/1
f 101/24/1 102/25/1 103/21/1 104/18/1
f 105/25/1 106/9/1 107/1/1 108/21/1
f 109/9/1 110/10/1 111/2/1 112/1/1
f 113/10/1 114/11/1 115/5/1 116/2/1
f 117/11/1 118/12/1 119/7/1 120/5/1
f 121/26/1 122/27/1 123/24/1 124/23/1
f 125/27/1 126/28/1 127/25/1 128/24/1
f 129/28/1 130/13/1 131/9/1 132/25/1
f 133/13/1 134/14/1 135/10/1 136/9/1
f 137/14/1 138/15/1 139/11/1 140/10/1
f 141/15/1 142/16/1 143/12/1 144/11/1
f 145/17/1 146/18/1 147/19/1 148/20/1
f 149/18/1 150/21/1 151/22/1 152/19/1
f 153/21/1 154/1/1 155/4/1 156/22/1
f 157/17/1 158/18/1 159/19/1 160/20/1
f 161/18/1 162/21/1 163/22/1 164/19/1
f 165/21/1 166/1/1 167/4/1 168/22/1
f 169/23/1 170/24/1 171/18/1 172/17/1
f 173/24/1 174/25/1 175/21/1 176/18/1
f 177/25/1 178/9/1 179/1/1 180/21/1
f 181/23/1 182/24/1 183/18/1 184/17/1
f 185/24/1 186/25/1 187/21/1 188/18/1
f 189/25/1 190/9/1 191/1/1 192/21/1
f 193/26/1 194/27/1 195/24/1 196/23/1
f 197/27/1 198/28/1 199/25/1 200/24/1
f 201/28/1 202/13/1 203/9/1 204/25/1
f 205/26/1 206/27/1 207/24/1 208/23/1
f 209/27/1 210/28/1 211/25/1 212/24/1
f 213/28/1 214/13/1 215/9/1 216/25/1
f 217/17/1 218/18/1 219/19/1 220/20/1
f 221/18/1 222/21/1 223/22/1 224/19/1
f 225/21/1 226/1/1 227/4/1 228/22/1
f 229/23/1 230/24/1 231/18/1 232/17/1
f 233/24/1 234/25/1 235/21/1 236/18/1
f 237/25/1 238/9/1 239/1/1 240/21/1
f 241/26/1 242/27/1 243/24/1 244/23/1
f 245/27/1 246/28/1 247/25/1 248/24/1
f 249/28/1 250/13/1 251/9/1 252/25/1
f 253/17/1 254/18/1 255/19/1 256/20/1
f 257/18/1 258/21/1 259/22/1 260/19/1
f 261/21/1 262/1/1 263/4/1 264/22/1
f 265/23/1 266/24/1 267/18/1 268/17/1
f 269/24/1 270/25/1 271/21/1 272/18/1
f 273/25/1 274/9/1 275/1/1 276/21/1
f 277/17/1 278/18/1 279/19/1 280/20/1
f 281/18/1 282/21/1 283/22/1 284/19/1
f 285/21/1 286/1/1 287/4/1 288/22/1
f 289/17/1 290/18/1 291/19/1 292/20/1
f 293/18/1 294/21/1 295/22/1 296/19/1
f 297/21/1 298/1/1 299/4/1 300/22/1
f 301/26/1 302/27/1 303/24/1 304/23/1
f 305/27/1 306/28/1 307/25/1 308/24/1
f 309/28/1 310/13/1 311/9/1 312/25/1
f 313/23/1 314/24/1 315/18/1 316/17/1
f 317/24/1 318/25/1 319/21/1 320/18/1
f 321/25/1 322/9/1 323/1/1 324/21/1
f 325/23/1 326/24/1 327/18/1 328/17/1
f 329/24/1 330/25/1 331/21/1 332/18/1
f 333/25/1 334/9/1 335/1/1 336/21/1
f 337/26/1 338/27/1 339/24/1 340/23/1
f 341/27/1 342/28/1 343/25/1 344/24/1
f 345/28/1 346/13/1 347/9/1 348/25/1
f 349/26/1 350/27/1 351/24/1 352/23/1
f 353/27/1 354/28/1 355/25/1 356/24/1
f 357/28/1 358/13/1 359/9/1 360/25/1
f 361/17/1 362/18/1 363/19/1 364/20/1
f 365/18/1 366/21/1 367/22/1 368/19/1
f 369/21/1 370/1/1 371/4/1 372/22/1
f 373/1/1 374/2/1 375/3/1 376/4/1
f 377/2/1 378/5/1 379/6/1 380/3/1
f 381/5/1 382/7/1 383/8/1 384/6/1
f 385/1/1 386/2/1 387/3/1 388/4/1
f 389/2/1 390/5/1 391/6/1 392/3/1
f 393/5/1 394/7/1 395/8/1 396/6/1
f 397/1/1 398/2/1 399/3/1 400/4/1
f 401/2/1 402/5/1 403/6/1 404/3/1
f 405/5/1 406/7/1 407/8/1 408/6/1
f 409/23/1 410/24/1 411/18/1 412/17/1
f 413/24/1 414/25/1 415/21/1 416/18/1
f 417/25/1 418/9/1 419/1/1 420/21/1
f 421/9/1 422/10/1 423/2/1 424/1/1
f 425/10/1 426/11/1 427/5/1 428/2/1
f 429/11/1 430/12/1 431/7/1 432/5/1
f 433/9/1 434/10/1 435/2/1 436/1/1
f 437/10/1 438/11/1 439/5/1 440/2/1
f 441/11/1 442/12/1 443/7/1 444/5/1
f 445/9/1 446/10/1 447/2/1 448/1/1
f 449/10/1 450/11/1 451/5/1 452/2/1
f 453/11/1 454/12/1 455/7/1 456/5/1
f 457/26/1 458/27/1 459/24/1 460/23/1
f 461/27/1 462/28/1 463/25/1 464/24/1
f 465/28/1 466/13/1 467/9/1 468/25/1
f 469/13/1 470/14/1 471/10/1 472/9/1
f 473/14/1 474/15/1 475/11/1 476/10/1
f 477/15/1 478/16/1 479/12/1 480/11/1
f 481/13/1 482/14/1 483/10/1 484/9/1
f 485/14/1 486/15/1 487/11/1 488/10/1
f 489/15/1 490/16/1 491/12/1 492/11/1
f 493/13/1 494/14/1 495/10/1 496/9/1
f 497/14/1 498/15/1 499/11/1 500/10/1
f 501/15/1 502/16/1 503/12/1 504/11/1

