# Tiled2Unity generated file. Do not modify by hand.
# Wavefront file for 'untitled_mesh_0002.obj'

# Vertices (Count = 524)
v -896 -416 0
v -928 -416 0
v -928 -384 0
v -896 -384 0
v -928 -416 0
v -960 -416 0
v -960 -384 0
v -928 -384 0
v -960 -416 0
v -992 -416 0
v -992 -384 0
v -960 -384 0
v -992 -416 0
v -1024 -416 0
v -1024 -384 0
v -992 -384 0
v -1024 -416 0
v -1056 -416 0
v -1056 -384 0
v -1024 -384 0
v -1056 -416 0
v -1088 -416 0
v -1088 -384 0
v -1056 -384 0
v -1088 -416 0
v -1120 -416 0
v -1120 -384 0
v -1088 -384 0
v -1120 -416 0
v -1152 -416 0
v -1152 -384 0
v -1120 -384 0
v -1152 -416 0
v -1184 -416 0
v -1184 -384 0
v -1152 -384 0
v -1184 -416 0
v -1216 -416 0
v -1216 -384 0
v -1184 -384 0
v -1216 -416 0
v -1248 -416 0
v -1248 -384 0
v -1216 -384 0
v -1248 -416 0
v -1280 -416 0
v -1280 -384 0
v -1248 -384 0
v -864 -448 0
v -896 -448 0
v -896 -416 0
v -864 -416 0
v -896 -448 0
v -928 -448 0
v -928 -416 0
v -896 -416 0
v -928 -448 0
v -960 -448 0
v -960 -416 0
v -928 -416 0
v -960 -448 0
v -992 -448 0
v -992 -416 0
v -960 -416 0
v -992 -448 0
v -1024 -448 0
v -1024 -416 0
v -992 -416 0
v -1024 -448 0
v -1056 -448 0
v -1056 -416 0
v -1024 -416 0
v -1056 -448 0
v -1088 -448 0
v -1088 -416 0
v -1056 -416 0
v -1088 -448 0
v -1120 -448 0
v -1120 -416 0
v -1088 -416 0
v -1120 -448 0
v -1152 -448 0
v -1152 -416 0
v -1120 -416 0
v -1152 -448 0
v -1184 -448 0
v -1184 -416 0
v -1152 -416 0
v -1184 -448 0
v -1216 -448 0
v -1216 -416 0
v -1184 -416 0
v -1216 -448 0
v -1248 -448 0
v -1248 -416 0
v -1216 -416 0
v -1248 -448 0
v -1280 -448 0
v -1280 -416 0
v -1248 -416 0
v -320 -480 0
v -352 -480 0
v -352 -448 0
v -320 -448 0
v -352 -480 0
v -384 -480 0
v -384 -448 0
v -352 -448 0
v -384 -480 0
v -416 -480 0
v -416 -448 0
v -384 -448 0
v -416 -480 0
v -448 -480 0
v -448 -448 0
v -416 -448 0
v -448 -480 0
v -480 -480 0
v -480 -448 0
v -448 -448 0
v -480 -480 0
v -512 -480 0
v -512 -448 0
v -480 -448 0
v -512 -480 0
v -544 -480 0
v -544 -448 0
v -512 -448 0
v -544 -480 0
v -576 -480 0
v -576 -448 0
v -544 -448 0
v -576 -480 0
v -608 -480 0
v -608 -448 0
v -576 -448 0
v -608 -480 0
v -640 -480 0
v -640 -448 0
v -608 -448 0
v -640 -480 0
v -672 -480 0
v -672 -448 0
v -640 -448 0
v -672 -480 0
v -704 -480 0
v -704 -448 0
v -672 -448 0
v -704 -480 0
v -736 -480 0
v -736 -448 0
v -704 -448 0
v -736 -480 0
v -768 -480 0
v -768 -448 0
v -736 -448 0
v -768 -480 0
v -800 -480 0
v -800 -448 0
v -768 -448 0
v -800 -480 0
v -832 -480 0
v -832 -448 0
v -800 -448 0
v -832 -480 0
v -864 -480 0
v -864 -448 0
v -832 -448 0
v -864 -480 0
v -896 -480 0
v -896 -448 0
v -864 -448 0
v -896 -480 0
v -928 -480 0
v -928 -448 0
v -896 -448 0
v -928 -480 0
v -960 -480 0
v -960 -448 0
v -928 -448 0
v -960 -480 0
v -992 -480 0
v -992 -448 0
v -960 -448 0
v -992 -480 0
v -1024 -480 0
v -1024 -448 0
v -992 -448 0
v -1024 -480 0
v -1056 -480 0
v -1056 -448 0
v -1024 -448 0
v -1056 -480 0
v -1088 -480 0
v -1088 -448 0
v -1056 -448 0
v -1088 -480 0
v -1120 -480 0
v -1120 -448 0
v -1088 -448 0
v -1120 -480 0
v -1152 -480 0
v -1152 -448 0
v -1120 -448 0
v -1152 -480 0
v -1184 -480 0
v -1184 -448 0
v -1152 -448 0
v -1184 -480 0
v -1216 -480 0
v -1216 -448 0
v -1184 -448 0
v -1216 -480 0
v -1248 -480 0
v -1248 -448 0
v -1216 -448 0
v -1248 -480 0
v -1280 -480 0
v -1280 -448 0
v -1248 -448 0
v -288 -512 0
v -320 -512 0
v -320 -480 0
v -288 -480 0
v -320 -512 0
v -352 -512 0
v -352 -480 0
v -320 -480 0
v -352 -512 0
v -384 -512 0
v -384 -480 0
v -352 -480 0
v -384 -512 0
v -416 -512 0
v -416 -480 0
v -384 -480 0
v -416 -512 0
v -448 -512 0
v -448 -480 0
v -416 -480 0
v -448 -512 0
v -480 -512 0
v -480 -480 0
v -448 -480 0
v -480 -512 0
v -512 -512 0
v -512 -480 0
v -480 -480 0
v -512 -512 0
v -544 -512 0
v -544 -480 0
v -512 -480 0
v -544 -512 0
v -576 -512 0
v -576 -480 0
v -544 -480 0
v -576 -512 0
v -608 -512 0
v -608 -480 0
v -576 -480 0
v -608 -512 0
v -640 -512 0
v -640 -480 0
v -608 -480 0
v -640 -512 0
v -672 -512 0
v -672 -480 0
v -640 -480 0
v -672 -512 0
v -704 -512 0
v -704 -480 0
v -672 -480 0
v -704 -512 0
v -736 -512 0
v -736 -480 0
v -704 -480 0
v -736 -512 0
v -768 -512 0
v -768 -480 0
v -736 -480 0
v -768 -512 0
v -800 -512 0
v -800 -480 0
v -768 -480 0
v -800 -512 0
v -832 -512 0
v -832 -480 0
v -800 -480 0
v -832 -512 0
v -864 -512 0
v -864 -480 0
v -832 -480 0
v -864 -512 0
v -896 -512 0
v -896 -480 0
v -864 -480 0
v -896 -512 0
v -928 -512 0
v -928 -480 0
v -896 -480 0
v -928 -512 0
v -960 -512 0
v -960 -480 0
v -928 -480 0
v -224 -544 0
v -256 -544 0
v -256 -512 0
v -224 -512 0
v -256 -544 0
v -288 -544 0
v -288 -512 0
v -256 -512 0
v -288 -544 0
v -320 -544 0
v -320 -512 0
v -288 -512 0
v -320 -544 0
v -352 -544 0
v -352 -512 0
v -320 -512 0
v -352 -544 0
v -384 -544 0
v -384 -512 0
v -352 -512 0
v -384 -544 0
v -416 -544 0
v -416 -512 0
v -384 -512 0
v -416 -544 0
v -448 -544 0
v -448 -512 0
v -416 -512 0
v -448 -544 0
v -480 -544 0
v -480 -512 0
v -448 -512 0
v -480 -544 0
v -512 -544 0
v -512 -512 0
v -480 -512 0
v -512 -544 0
v -544 -544 0
v -544 -512 0
v -512 -512 0
v -544 -544 0
v -576 -544 0
v -576 -512 0
v -544 -512 0
v -576 -544 0
v -608 -544 0
v -608 -512 0
v -576 -512 0
v -608 -544 0
v -640 -544 0
v -640 -512 0
v -608 -512 0
v -640 -544 0
v -672 -544 0
v -672 -512 0
v -640 -512 0
v -672 -544 0
v -704 -544 0
v -704 -512 0
v -672 -512 0
v -704 -544 0
v -736 -544 0
v -736 -512 0
v -704 -512 0
v -736 -544 0
v -768 -544 0
v -768 -512 0
v -736 -512 0
v -768 -544 0
v -800 -544 0
v -800 -512 0
v -768 -512 0
v -800 -544 0
v -832 -544 0
v -832 -512 0
v -800 -512 0
v -832 -544 0
v -864 -544 0
v -864 -512 0
v -832 -512 0
v -864 -544 0
v -896 -544 0
v -896 -512 0
v -864 -512 0
v -896 -544 0
v -928 -544 0
v -928 -512 0
v -896 -512 0
v 0 -576 0
v -32 -576 0
v -32 -544 0
v 0 -544 0
v -32 -576 0
v -64 -576 0
v -64 -544 0
v -32 -544 0
v -64 -576 0
v -96 -576 0
v -96 -544 0
v -64 -544 0
v -96 -576 0
v -128 -576 0
v -128 -544 0
v -96 -544 0
v -128 -576 0
v -160 -576 0
v -160 -544 0
v -128 -544 0
v -160 -576 0
v -192 -576 0
v -192 -544 0
v -160 -544 0
v -192 -576 0
v -224 -576 0
v -224 -544 0
v -192 -544 0
v -224 -576 0
v -256 -576 0
v -256 -544 0
v -224 -544 0
v -256 -576 0
v -288 -576 0
v -288 -544 0
v -256 -544 0
v -288 -576 0
v -320 -576 0
v -320 -544 0
v -288 -544 0
v -320 -576 0
v -352 -576 0
v -352 -544 0
v -320 -544 0
v -352 -576 0
v -384 -576 0
v -384 -544 0
v -352 -544 0
v 0 -608 0
v -32 -608 0
v -32 -576 0
v 0 -576 0
v -32 -608 0
v -64 -608 0
v -64 -576 0
v -32 -576 0
v -64 -608 0
v -96 -608 0
v -96 -576 0
v -64 -576 0
v -96 -608 0
v -128 -608 0
v -128 -576 0
v -96 -576 0
v -128 -608 0
v -160 -608 0
v -160 -576 0
v -128 -576 0
v -160 -608 0
v -192 -608 0
v -192 -576 0
v -160 -576 0
v -192 -608 0
v -224 -608 0
v -224 -576 0
v -192 -576 0
v -224 -608 0
v -256 -608 0
v -256 -576 0
v -224 -576 0
v -256 -608 0
v -288 -608 0
v -288 -576 0
v -256 -576 0
v -288 -608 0
v -320 -608 0
v -320 -576 0
v -288 -576 0
v -320 -608 0
v -352 -608 0
v -352 -576 0
v -320 -576 0
v 0 -640 0
v -32 -640 0
v -32 -608 0
v 0 -608 0
v -32 -640 0
v -64 -640 0
v -64 -608 0
v -32 -608 0
v -64 -640 0
v -96 -640 0
v -96 -608 0
v -64 -608 0
v -96 -640 0
v -128 -640 0
v -128 -608 0
v -96 -608 0
v -128 -640 0
v -160 -640 0
v -160 -608 0
v -128 -608 0
v -160 -640 0
v -192 -640 0
v -192 -608 0
v -160 -608 0
v -192 -640 0
v -224 -640 0
v -224 -608 0
v -192 -608 0
v -224 -640 0
v -256 -640 0
v -256 -608 0
v -224 -608 0
v -256 -640 0
v -288 -640 0
v -288 -608 0
v -256 -608 0
v -288 -640 0
v -320 -640 0
v -320 -608 0
v -288 -608 0

# Texture cooridinates (Count = 18)
vt 0 0.5
vt 0.3333333 0.5
vt 0.3333333 0.6666666
vt 0 0.6666666
vt 0.6666667 0.5
vt 0.6666667 0.6666666
vt 1 0.6666666
vt 1 0.8333333
vt 0.6666667 0.8333333
vt 0.3333333 0.3333333
vt 0.6666667 0.3333333
vt 0.3333333 0.8333333
vt 0.6666667 1
vt 0.3333333 1
vt 0.3333333 0.1666667
vt 0.6666667 0.1666667
vt 1 0.1666667
vt 1 0.3333333

# Normal
vn 0 0 -1

# Mesh description
g untitled_mesh_0002

# Faces
f 1/1/1 2/2/1 3/3/1 4/4/1
f 5/2/1 6/5/1 7/6/1 8/3/1
f 9/2/1 10/5/1 11/6/1 12/3/1
f 13/2/1 14/5/1 15/6/1 16/3/1
f 17/2/1 18/5/1 19/6/1 20/3/1
f 21/2/1 22/5/1 23/6/1 24/3/1
f 25/2/1 26/5/1 27/6/1 28/3/1
f 29/2/1 30/5/1 31/6/1 32/3/1
f 33/2/1 34/5/1 35/6/1 36/3/1
f 37/2/1 38/5/1 39/6/1 40/3/1
f 41/2/1 42/5/1 43/6/1 44/3/1
f 45/2/1 46/5/1 47/6/1 48/3/1
f 49/1/1 50/2/1 51/3/1 52/4/1
f 53/6/1 54/7/1 55/8/1 56/9/1
f 57/10/1 58/11/1 59/5/1 60/2/1
f 61/10/1 62/11/1 63/5/1 64/2/1
f 65/10/1 66/11/1 67/5/1 68/2/1
f 69/10/1 70/11/1 71/5/1 72/2/1
f 73/10/1 74/11/1 75/5/1 76/2/1
f 77/10/1 78/11/1 79/5/1 80/2/1
f 81/10/1 82/11/1 83/5/1 84/2/1
f 85/10/1 86/11/1 87/5/1 88/2/1
f 89/10/1 90/11/1 91/5/1 92/2/1
f 93/10/1 94/11/1 95/5/1 96/2/1
f 97/10/1 98/11/1 99/5/1 100/2/1
f 101/1/1 102/2/1 103/3/1 104/4/1
f 105/2/1 106/5/1 107/6/1 108/3/1
f 109/2/1 110/5/1 111/6/1 112/3/1
f 113/2/1 114/5/1 115/6/1 116/3/1
f 117/2/1 118/5/1 119/6/1 120/3/1
f 121/2/1 122/5/1 123/6/1 124/3/1
f 125/2/1 126/5/1 127/6/1 128/3/1
f 129/2/1 130/5/1 131/6/1 132/3/1
f 133/2/1 134/5/1 135/6/1 136/3/1
f 137/2/1 138/5/1 139/6/1 140/3/1
f 141/2/1 142/5/1 143/6/1 144/3/1
f 145/2/1 146/5/1 147/6/1 148/3/1
f 149/2/1 150/5/1 151/6/1 152/3/1
f 153/2/1 154/5/1 155/6/1 156/3/1
f 157/2/1 158/5/1 159/6/1 160/3/1
f 161/2/1 162/5/1 163/6/1 164/3/1
f 165/2/1 166/5/1 167/6/1 168/3/1
f 169/6/1 170/7/1 171/8/1 172/9/1
f 173/10/1 174/11/1 175/5/1 176/2/1
f 177/12/1 178/9/1 179/13/1 180/14/1
f 181/15/1 182/16/1 183/11/1 184/10/1
f 185/15/1 186/16/1 187/11/1 188/10/1
f 189/15/1 190/16/1 191/11/1 192/10/1
f 193/15/1 194/16/1 195/11/1 196/10/1
f 197/15/1 198/16/1 199/11/1 200/10/1
f 201/15/1 202/16/1 203/11/1 204/10/1
f 205/15/1 206/16/1 207/11/1 208/10/1
f 209/15/1 210/16/1 211/11/1 212/10/1
f 213/15/1 214/16/1 215/11/1 216/10/1
f 217/15/1 218/16/1 219/11/1 220/10/1
f 221/1/1 222/2/1 223/3/1 224/4/1
f 225/6/1 226/7/1 227/8/1 228/9/1
f 229/10/1 230/11/1 231/5/1 232/2/1
f 233/10/1 234/11/1 235/5/1 236/2/1
f 237/10/1 238/11/1 239/5/1 240/2/1
f 241/10/1 242/11/1 243/5/1 244/2/1
f 245/10/1 246/11/1 247/5/1 248/2/1
f 249/10/1 250/11/1 251/5/1 252/2/1
f 253/10/1 254/11/1 255/5/1 256/2/1
f 257/10/1 258/11/1 259/5/1 260/2/1
f 261/10/1 262/11/1 263/5/1 264/2/1
f 265/10/1 266/11/1 267/5/1 268/2/1
f 269/10/1 270/11/1 271/5/1 272/2/1
f 273/10/1 274/11/1 275/5/1 276/2/1
f 277/10/1 278/11/1 279/5/1 280/2/1
f 281/10/1 282/11/1 283/5/1 284/2/1
f 285/10/1 286/11/1 287/5/1 288/2/1
f 289/10/1 290/11/1 291/5/1 292/2/1
f 293/10/1 294/11/1 295/5/1 296/2/1
f 297/12/1 298/9/1 299/13/1 300/14/1
f 301/16/1 302/17/1 303/18/1 304/11/1
f 305/1/1 306/2/1 307/3/1 308/4/1
f 309/2/1 310/5/1 311/6/1 312/3/1
f 313/6/1 314/7/1 315/8/1 316/9/1
f 317/10/1 318/11/1 319/5/1 320/2/1
f 321/12/1 322/9/1 323/13/1 324/14/1
f 325/15/1 326/16/1 327/11/1 328/10/1
f 329/15/1 330/16/1 331/11/1 332/10/1
f 333/15/1 334/16/1 335/11/1 336/10/1
f 337/15/1 338/16/1 339/11/1 340/10/1
f 341/15/1 342/16/1 343/11/1 344/10/1
f 345/15/1 346/16/1 347/11/1 348/10/1
f 349/15/1 350/16/1 351/11/1 352/10/1
f 353/15/1 354/16/1 355/11/1 356/10/1
f 357/15/1 358/16/1 359/11/1 360/10/1
f 361/15/1 362/16/1 363/11/1 364/10/1
f 365/15/1 366/16/1 367/11/1 368/10/1
f 369/15/1 370/16/1 371/11/1 372/10/1
f 373/15/1 374/16/1 375/11/1 376/10/1
f 377/15/1 378/16/1 379/11/1 380/10/1
f 381/15/1 382/16/1 383/11/1 384/10/1
f 385/15/1 386/16/1 387/11/1 388/10/1
f 389/16/1 390/17/1 391/18/1 392/11/1
f 393/2/1 394/5/1 395/6/1 396/3/1
f 397/2/1 398/5/1 399/6/1 400/3/1
f 401/2/1 402/5/1 403/6/1 404/3/1
f 405/2/1 406/5/1 407/6/1 408/3/1
f 409/2/1 410/5/1 411/6/1 412/3/1
f 413/2/1 414/5/1 415/6/1 416/3/1
f 417/2/1 418/5/1 419/6/1 420/3/1
f 421/6/1 422/7/1 423/8/1 424/9/1
f 425/10/1 426/11/1 427/5/1 428/2/1
f 429/10/1 430/11/1 431/5/1 432/2/1
f 433/12/1 434/9/1 435/13/1 436/14/1
f 437/16/1 438/17/1 439/18/1 440/11/1
f 441/10/1 442/11/1 443/5/1 444/2/1
f 445/10/1 446/11/1 447/5/1 448/2/1
f 449/10/1 450/11/1 451/5/1 452/2/1
f 453/10/1 454/11/1 455/5/1 456/2/1
f 457/10/1 458/11/1 459/5/1 460/2/1
f 461/10/1 462/11/1 463/5/1 464/2/1
f 465/10/1 466/11/1 467/5/1 468/2/1
f 469/10/1 470/11/1 471/5/1 472/2/1
f 473/10/1 474/11/1 475/5/1 476/2/1
f 477/12/1 478/9/1 479/13/1 480/14/1
f 481/16/1 482/17/1 483/18/1 484/11/1
f 485/15/1 486/16/1 487/11/1 488/10/1
f 489/15/1 490/16/1 491/11/1 492/10/1
f 493/15/1 494/16/1 495/11/1 496/10/1
f 497/15/1 498/16/1 499/11/1 500/10/1
f 501/15/1 502/16/1 503/11/1 504/10/1
f 505/15/1 506/16/1 507/11/1 508/10/1
f 509/15/1 510/16/1 511/11/1 512/10/1
f 513/15/1 514/16/1 515/11/1 516/10/1
f 517/15/1 518/16/1 519/11/1 520/10/1
f 521/16/1 522/17/1 523/18/1 524/11/1

