# Tiled2Unity generated file. Do not modify by hand.
# Wavefront file for 'forestNew_mesh_0003.obj'

# Vertices (Count = 484)
v -64 -96 0
v -96 -96 0
v -96 -64 0
v -64 -64 0
v -96 -96 0
v -128 -96 0
v -128 -64 0
v -96 -64 0
v -128 -96 0
v -160 -96 0
v -160 -64 0
v -128 -64 0
v -160 -96 0
v -192 -96 0
v -192 -64 0
v -160 -64 0
v -192 -96 0
v -224 -96 0
v -224 -64 0
v -192 -64 0
v -224 -96 0
v -256 -96 0
v -256 -64 0
v -224 -64 0
v -256 -96 0
v -288 -96 0
v -288 -64 0
v -256 -64 0
v -288 -96 0
v -320 -96 0
v -320 -64 0
v -288 -64 0
v -320 -96 0
v -352 -96 0
v -352 -64 0
v -320 -64 0
v -352 -96 0
v -384 -96 0
v -384 -64 0
v -352 -64 0
v -384 -96 0
v -416 -96 0
v -416 -64 0
v -384 -64 0
v -832 -96 0
v -864 -96 0
v -864 -64 0
v -832 -64 0
v -864 -96 0
v -896 -96 0
v -896 -64 0
v -864 -64 0
v -1184 -96 0
v -1216 -96 0
v -1216 -64 0
v -1184 -64 0
v -1216 -96 0
v -1248 -96 0
v -1248 -64 0
v -1216 -64 0
v -416 -128 0
v -448 -128 0
v -448 -96 0
v -416 -96 0
v -864 -128 0
v -896 -128 0
v -896 -96 0
v -864 -96 0
v -896 -128 0
v -928 -128 0
v -928 -96 0
v -896 -96 0
v -1216 -128 0
v -1248 -128 0
v -1248 -96 0
v -1216 -96 0
v -1248 -128 0
v -1280 -128 0
v -1280 -96 0
v -1248 -96 0
v -352 -160 0
v -384 -160 0
v -384 -128 0
v -352 -128 0
v -384 -160 0
v -416 -160 0
v -416 -128 0
v -384 -128 0
v -416 -160 0
v -448 -160 0
v -448 -128 0
v -416 -128 0
v -896 -160 0
v -928 -160 0
v -928 -128 0
v -896 -128 0
v -928 -160 0
v -960 -160 0
v -960 -128 0
v -928 -128 0
v -960 -160 0
v -992 -160 0
v -992 -128 0
v -960 -128 0
v -1248 -160 0
v -1280 -160 0
v -1280 -128 0
v -1248 -128 0
v -448 -192 0
v -480 -192 0
v -480 -160 0
v -448 -160 0
v -480 -192 0
v -512 -192 0
v -512 -160 0
v -480 -160 0
v -512 -192 0
v -544 -192 0
v -544 -160 0
v -512 -160 0
v -544 -192 0
v -576 -192 0
v -576 -160 0
v -544 -160 0
v -576 -192 0
v -608 -192 0
v -608 -160 0
v -576 -160 0
v -960 -192 0
v -992 -192 0
v -992 -160 0
v -960 -160 0
v -992 -192 0
v -1024 -192 0
v -1024 -160 0
v -992 -160 0
v -1216 -192 0
v -1248 -192 0
v -1248 -160 0
v -1216 -160 0
v -1248 -192 0
v -1280 -192 0
v -1280 -160 0
v -1248 -160 0
v -576 -224 0
v -608 -224 0
v -608 -192 0
v -576 -192 0
v -608 -224 0
v -640 -224 0
v -640 -192 0
v -608 -192 0
v -992 -224 0
v -1024 -224 0
v -1024 -192 0
v -992 -192 0
v -1184 -224 0
v -1216 -224 0
v -1216 -192 0
v -1184 -192 0
v -1216 -224 0
v -1248 -224 0
v -1248 -192 0
v -1216 -192 0
v -32 -256 0
v -64 -256 0
v -64 -224 0
v -32 -224 0
v -256 -256 0
v -288 -256 0
v -288 -224 0
v -256 -224 0
v -288 -256 0
v -320 -256 0
v -320 -224 0
v -288 -224 0
v -608 -256 0
v -640 -256 0
v -640 -224 0
v -608 -224 0
v -640 -256 0
v -672 -256 0
v -672 -224 0
v -640 -224 0
v -992 -256 0
v -1024 -256 0
v -1024 -224 0
v -992 -224 0
v -1152 -256 0
v -1184 -256 0
v -1184 -224 0
v -1152 -224 0
v -1184 -256 0
v -1216 -256 0
v -1216 -224 0
v -1184 -224 0
v -32 -288 0
v -64 -288 0
v -64 -256 0
v -32 -256 0
v -256 -288 0
v -288 -288 0
v -288 -256 0
v -256 -256 0
v -640 -288 0
v -672 -288 0
v -672 -256 0
v -640 -256 0
v -992 -288 0
v -1024 -288 0
v -1024 -256 0
v -992 -256 0
v -1120 -288 0
v -1152 -288 0
v -1152 -256 0
v -1120 -256 0
v -32 -320 0
v -64 -320 0
v -64 -288 0
v -32 -288 0
v -224 -320 0
v -256 -320 0
v -256 -288 0
v -224 -288 0
v -256 -320 0
v -288 -320 0
v -288 -288 0
v -256 -288 0
v -32 -352 0
v -64 -352 0
v -64 -320 0
v -32 -320 0
v -224 -352 0
v -256 -352 0
v -256 -320 0
v -224 -320 0
v -32 -384 0
v -64 -384 0
v -64 -352 0
v -32 -352 0
v -192 -384 0
v -224 -384 0
v -224 -352 0
v -192 -352 0
v -224 -384 0
v -256 -384 0
v -256 -352 0
v -224 -352 0
v -32 -416 0
v -64 -416 0
v -64 -384 0
v -32 -384 0
v -160 -416 0
v -192 -416 0
v -192 -384 0
v -160 -384 0
v -192 -416 0
v -224 -416 0
v -224 -384 0
v -192 -384 0
v -32 -448 0
v -64 -448 0
v -64 -416 0
v -32 -416 0
v -128 -448 0
v -160 -448 0
v -160 -416 0
v -128 -416 0
v -160 -448 0
v -192 -448 0
v -192 -416 0
v -160 -416 0
v -32 -480 0
v -64 -480 0
v -64 -448 0
v -32 -448 0
v -128 -480 0
v -160 -480 0
v -160 -448 0
v -128 -448 0
v -640 -544 0
v -672 -544 0
v -672 -512 0
v -640 -512 0
v -672 -544 0
v -704 -544 0
v -704 -512 0
v -672 -512 0
v -704 -544 0
v -736 -544 0
v -736 -512 0
v -704 -512 0
v -480 -576 0
v -512 -576 0
v -512 -544 0
v -480 -544 0
v -512 -576 0
v -544 -576 0
v -544 -544 0
v -512 -544 0
v -544 -576 0
v -576 -576 0
v -576 -544 0
v -544 -544 0
v -576 -576 0
v -608 -576 0
v -608 -544 0
v -576 -544 0
v -608 -576 0
v -640 -576 0
v -640 -544 0
v -608 -544 0
v -640 -576 0
v -672 -576 0
v -672 -544 0
v -640 -544 0
v -704 -576 0
v -736 -576 0
v -736 -544 0
v -704 -544 0
v -1184 -704 0
v -1216 -704 0
v -1216 -672 0
v -1184 -672 0
v -480 -736 0
v -512 -736 0
v -512 -704 0
v -480 -704 0
v -704 -736 0
v -736 -736 0
v -736 -704 0
v -704 -704 0
v -928 -736 0
v -960 -736 0
v -960 -704 0
v -928 -704 0
v -1152 -736 0
v -1184 -736 0
v -1184 -704 0
v -1152 -704 0
v -1184 -736 0
v -1216 -736 0
v -1216 -704 0
v -1184 -704 0
v -448 -768 0
v -480 -768 0
v -480 -736 0
v -448 -736 0
v -480 -768 0
v -512 -768 0
v -512 -736 0
v -480 -736 0
v -704 -768 0
v -736 -768 0
v -736 -736 0
v -704 -736 0
v -896 -768 0
v -928 -768 0
v -928 -736 0
v -896 -736 0
v -928 -768 0
v -960 -768 0
v -960 -736 0
v -928 -736 0
v -1120 -768 0
v -1152 -768 0
v -1152 -736 0
v -1120 -736 0
v -1152 -768 0
v -1184 -768 0
v -1184 -736 0
v -1152 -736 0
v -416 -800 0
v -448 -800 0
v -448 -768 0
v -416 -768 0
v -448 -800 0
v -480 -800 0
v -480 -768 0
v -448 -768 0
v -704 -800 0
v -736 -800 0
v -736 -768 0
v -704 -768 0
v -864 -800 0
v -896 -800 0
v -896 -768 0
v -864 -768 0
v -896 -800 0
v -928 -800 0
v -928 -768 0
v -896 -768 0
v -1088 -800 0
v -1120 -800 0
v -1120 -768 0
v -1088 -768 0
v -1120 -800 0
v -1152 -800 0
v -1152 -768 0
v -1120 -768 0
v -64 -832 0
v -96 -832 0
v -96 -800 0
v -64 -800 0
v -416 -832 0
v -448 -832 0
v -448 -800 0
v -416 -800 0
v -704 -832 0
v -736 -832 0
v -736 -800 0
v -704 -800 0
v -832 -832 0
v -864 -832 0
v -864 -800 0
v -832 -800 0
v -864 -832 0
v -896 -832 0
v -896 -800 0
v -864 -800 0
v -1056 -832 0
v -1088 -832 0
v -1088 -800 0
v -1056 -800 0
v -96 -864 0
v -128 -864 0
v -128 -832 0
v -96 -832 0
v -128 -864 0
v -160 -864 0
v -160 -832 0
v -128 -832 0
v -384 -864 0
v -416 -864 0
v -416 -832 0
v -384 -832 0
v -704 -864 0
v -736 -864 0
v -736 -832 0
v -704 -832 0
v -832 -864 0
v -864 -864 0
v -864 -832 0
v -832 -832 0
v -160 -896 0
v -192 -896 0
v -192 -864 0
v -160 -864 0
v -192 -896 0
v -224 -896 0
v -224 -864 0
v -192 -864 0
v -192 -928 0
v -224 -928 0
v -224 -896 0
v -192 -896 0
v -224 -928 0
v -256 -928 0
v -256 -896 0
v -224 -896 0
v -256 -928 0
v -288 -928 0
v -288 -896 0
v -256 -896 0
v -288 -928 0
v -320 -928 0
v -320 -896 0
v -288 -896 0
v -320 -928 0
v -352 -928 0
v -352 -896 0
v -320 -896 0
v -352 -928 0
v -384 -928 0
v -384 -896 0
v -352 -896 0
v -384 -928 0
v -416 -928 0
v -416 -896 0
v -384 -896 0
v -416 -928 0
v -448 -928 0
v -448 -896 0
v -416 -896 0

# Texture cooridinates (Count = 8)
vt 0 0
vt 0.3333333 0
vt 0.3333333 0.1666667
vt 0 0.1666667
vt 0.6666667 0
vt 1 0
vt 1 0.1666667
vt 0.6666667 0.1666667

# Normal
vn 0 0 -1

# Mesh description
g forestNew_mesh_0003

# Faces
f 1/1/1 2/2/1 3/3/1 4/4/1
f 5/5/1 6/6/1 7/7/1 8/8/1
f 9/1/1 10/2/1 11/3/1 12/4/1
f 13/1/1 14/2/1 15/3/1 16/4/1
f 17/2/1 18/5/1 19/8/1 20/3/1
f 21/5/1 22/6/1 23/7/1 24/8/1
f 25/1/1 26/2/1 27/3/1 28/4/1
f 29/2/1 30/5/1 31/8/1 32/3/1
f 33/2/1 34/5/1 35/8/1 36/3/1
f 37/2/1 38/5/1 39/8/1 40/3/1
f 41/2/1 42/5/1 43/8/1 44/3/1
f 45/1/1 46/2/1 47/3/1 48/4/1
f 49/1/1 50/2/1 51/3/1 52/4/1
f 53/5/1 54/6/1 55/7/1 56/8/1
f 57/1/1 58/2/1 59/3/1 60/4/1
f 61/2/1 62/5/1 63/8/1 64/3/1
f 65/2/1 66/5/1 67/8/1 68/3/1
f 69/1/1 70/2/1 71/3/1 72/4/1
f 73/5/1 74/6/1 75/7/1 76/8/1
f 77/2/1 78/5/1 79/8/1 80/3/1
f 81/2/1 82/5/1 83/8/1 84/3/1
f 85/1/1 86/2/1 87/3/1 88/4/1
f 89/1/1 90/2/1 91/3/1 92/4/1
f 93/1/1 94/2/1 95/3/1 96/4/1
f 97/2/1 98/5/1 99/8/1 100/3/1
f 101/1/1 102/2/1 103/3/1 104/4/1
f 105/2/1 106/5/1 107/8/1 108/3/1
f 109/2/1 110/5/1 111/8/1 112/3/1
f 113/1/1 114/2/1 115/3/1 116/4/1
f 117/1/1 118/2/1 119/3/1 120/4/1
f 121/1/1 122/2/1 123/3/1 124/4/1
f 125/2/1 126/5/1 127/8/1 128/3/1
f 129/1/1 130/2/1 131/3/1 132/4/1
f 133/2/1 134/5/1 135/8/1 136/3/1
f 137/1/1 138/2/1 139/3/1 140/4/1
f 141/5/1 142/6/1 143/7/1 144/8/1
f 145/1/1 146/2/1 147/3/1 148/4/1
f 149/2/1 150/5/1 151/8/1 152/3/1
f 153/1/1 154/2/1 155/3/1 156/4/1
f 157/5/1 158/6/1 159/7/1 160/8/1
f 161/1/1 162/2/1 163/3/1 164/4/1
f 165/5/1 166/6/1 167/7/1 168/8/1
f 169/5/1 170/6/1 171/7/1 172/8/1
f 173/1/1 174/2/1 175/3/1 176/4/1
f 177/2/1 178/5/1 179/8/1 180/3/1
f 181/2/1 182/5/1 183/8/1 184/3/1
f 185/2/1 186/5/1 187/8/1 188/3/1
f 189/1/1 190/2/1 191/3/1 192/4/1
f 193/1/1 194/2/1 195/3/1 196/4/1
f 197/5/1 198/6/1 199/7/1 200/8/1
f 201/1/1 202/2/1 203/3/1 204/4/1
f 205/1/1 206/2/1 207/3/1 208/4/1
f 209/1/1 210/2/1 211/3/1 212/4/1
f 213/2/1 214/5/1 215/8/1 216/3/1
f 217/2/1 218/5/1 219/8/1 220/3/1
f 221/5/1 222/6/1 223/7/1 224/8/1
f 225/5/1 226/6/1 227/7/1 228/8/1
f 229/1/1 230/2/1 231/3/1 232/4/1
f 233/5/1 234/6/1 235/7/1 236/8/1
f 237/1/1 238/2/1 239/3/1 240/4/1
f 241/5/1 242/6/1 243/7/1 244/8/1
f 245/5/1 246/6/1 247/7/1 248/8/1
f 249/5/1 250/6/1 251/7/1 252/8/1
f 253/5/1 254/6/1 255/7/1 256/8/1
f 257/5/1 258/6/1 259/7/1 260/8/1
f 261/5/1 262/6/1 263/7/1 264/8/1
f 265/2/1 266/5/1 267/8/1 268/3/1
f 269/1/1 270/2/1 271/3/1 272/4/1
f 273/5/1 274/6/1 275/7/1 276/8/1
f 277/1/1 278/2/1 279/3/1 280/4/1
f 281/5/1 282/6/1 283/7/1 284/8/1
f 285/5/1 286/6/1 287/7/1 288/8/1
f 289/1/1 290/2/1 291/3/1 292/4/1
f 293/1/1 294/2/1 295/3/1 296/4/1
f 297/1/1 298/2/1 299/3/1 300/4/1
f 301/5/1 302/6/1 303/7/1 304/8/1
f 305/5/1 306/6/1 307/7/1 308/8/1
f 309/2/1 310/5/1 311/8/1 312/3/1
f 313/1/1 314/2/1 315/3/1 316/4/1
f 317/2/1 318/5/1 319/8/1 320/3/1
f 321/2/1 322/5/1 323/8/1 324/3/1
f 325/5/1 326/6/1 327/7/1 328/8/1
f 329/1/1 330/2/1 331/3/1 332/4/1
f 333/2/1 334/5/1 335/8/1 336/3/1
f 337/2/1 338/5/1 339/8/1 340/3/1
f 341/2/1 342/5/1 343/8/1 344/3/1
f 345/5/1 346/6/1 347/7/1 348/8/1
f 349/2/1 350/5/1 351/8/1 352/3/1
f 353/2/1 354/5/1 355/8/1 356/3/1
f 357/1/1 358/2/1 359/3/1 360/4/1
f 361/5/1 362/6/1 363/7/1 364/8/1
f 365/2/1 366/5/1 367/8/1 368/3/1
f 369/1/1 370/2/1 371/3/1 372/4/1
f 373/1/1 374/2/1 375/3/1 376/4/1
f 377/1/1 378/2/1 379/3/1 380/4/1
f 381/5/1 382/6/1 383/7/1 384/8/1
f 385/1/1 386/2/1 387/3/1 388/4/1
f 389/1/1 390/2/1 391/3/1 392/4/1
f 393/5/1 394/6/1 395/7/1 396/8/1
f 397/5/1 398/6/1 399/7/1 400/8/1
f 401/2/1 402/5/1 403/8/1 404/3/1
f 405/5/1 406/6/1 407/7/1 408/8/1
f 409/2/1 410/5/1 411/8/1 412/3/1
f 413/5/1 414/6/1 415/7/1 416/8/1
f 417/2/1 418/5/1 419/8/1 420/3/1
f 421/2/1 422/5/1 423/8/1 424/3/1
f 425/1/1 426/2/1 427/3/1 428/4/1
f 429/2/1 430/5/1 431/8/1 432/3/1
f 433/5/1 434/6/1 435/7/1 436/8/1
f 437/2/1 438/5/1 439/8/1 440/3/1
f 441/2/1 442/5/1 443/8/1 444/3/1
f 445/2/1 446/5/1 447/8/1 448/3/1
f 449/5/1 450/6/1 451/7/1 452/8/1
f 453/5/1 454/6/1 455/7/1 456/8/1
f 457/5/1 458/6/1 459/7/1 460/8/1
f 461/5/1 462/6/1 463/7/1 464/8/1
f 465/1/1 466/2/1 467/3/1 468/4/1
f 469/2/1 470/5/1 471/8/1 472/3/1
f 473/1/1 474/2/1 475/3/1 476/4/1
f 477/2/1 478/5/1 479/8/1 480/3/1
f 481/5/1 482/6/1 483/7/1 484/8/1

