# Tiled2Unity generated file. Do not modify by hand.
# Wavefront file for 'forestNew_mesh_0005.obj'

# Vertices (Count = 312)
v -672 -192 0
v -704 -192 0
v -704 -160 0
v -672 -160 0
v -704 -192 0
v -736 -192 0
v -736 -160 0
v -704 -160 0
v -736 -192 0
v -768 -192 0
v -768 -160 0
v -736 -160 0
v -1088 -192 0
v -1120 -192 0
v -1120 -160 0
v -1088 -160 0
v -1120 -192 0
v -1152 -192 0
v -1152 -160 0
v -1120 -160 0
v -1152 -192 0
v -1184 -192 0
v -1184 -160 0
v -1152 -160 0
v -192 -224 0
v -224 -224 0
v -224 -192 0
v -192 -192 0
v -224 -224 0
v -256 -224 0
v -256 -192 0
v -224 -192 0
v -256 -224 0
v -288 -224 0
v -288 -192 0
v -256 -192 0
v -672 -224 0
v -704 -224 0
v -704 -192 0
v -672 -192 0
v -704 -224 0
v -736 -224 0
v -736 -192 0
v -704 -192 0
v -736 -224 0
v -768 -224 0
v -768 -192 0
v -736 -192 0
v -1088 -224 0
v -1120 -224 0
v -1120 -192 0
v -1088 -192 0
v -1120 -224 0
v -1152 -224 0
v -1152 -192 0
v -1120 -192 0
v -1152 -224 0
v -1184 -224 0
v -1184 -192 0
v -1152 -192 0
v -192 -256 0
v -224 -256 0
v -224 -224 0
v -192 -224 0
v -224 -256 0
v -256 -256 0
v -256 -224 0
v -224 -224 0
v -256 -256 0
v -288 -256 0
v -288 -224 0
v -256 -224 0
v -864 -288 0
v -896 -288 0
v -896 -256 0
v -864 -256 0
v -896 -288 0
v -928 -288 0
v -928 -256 0
v -896 -256 0
v -928 -288 0
v -960 -288 0
v -960 -256 0
v -928 -256 0
v -448 -320 0
v -480 -320 0
v -480 -288 0
v -448 -288 0
v -480 -320 0
v -512 -320 0
v -512 -288 0
v -480 -288 0
v -512 -320 0
v -544 -320 0
v -544 -288 0
v -512 -288 0
v -864 -320 0
v -896 -320 0
v -896 -288 0
v -864 -288 0
v -896 -320 0
v -928 -320 0
v -928 -288 0
v -896 -288 0
v -928 -320 0
v -960 -320 0
v -960 -288 0
v -928 -288 0
v -64 -352 0
v -96 -352 0
v -96 -320 0
v -64 -320 0
v -96 -352 0
v -128 -352 0
v -128 -320 0
v -96 -320 0
v -128 -352 0
v -160 -352 0
v -160 -320 0
v -128 -320 0
v -448 -352 0
v -480 -352 0
v -480 -320 0
v -448 -320 0
v -480 -352 0
v -512 -352 0
v -512 -320 0
v -480 -320 0
v -512 -352 0
v -544 -352 0
v -544 -320 0
v -512 -320 0
v -64 -384 0
v -96 -384 0
v -96 -352 0
v -64 -352 0
v -96 -384 0
v -128 -384 0
v -128 -352 0
v -96 -352 0
v -128 -384 0
v -160 -384 0
v -160 -352 0
v -128 -352 0
v -1152 -576 0
v -1184 -576 0
v -1184 -544 0
v -1152 -544 0
v -1184 -576 0
v -1216 -576 0
v -1216 -544 0
v -1184 -544 0
v -1216 -576 0
v -1248 -576 0
v -1248 -544 0
v -1216 -544 0
v -1152 -608 0
v -1184 -608 0
v -1184 -576 0
v -1152 -576 0
v -1184 -608 0
v -1216 -608 0
v -1216 -576 0
v -1184 -576 0
v -1216 -608 0
v -1248 -608 0
v -1248 -576 0
v -1216 -576 0
v -352 -672 0
v -384 -672 0
v -384 -640 0
v -352 -640 0
v -384 -672 0
v -416 -672 0
v -416 -640 0
v -384 -640 0
v -416 -672 0
v -448 -672 0
v -448 -640 0
v -416 -640 0
v -768 -672 0
v -800 -672 0
v -800 -640 0
v -768 -640 0
v -800 -672 0
v -832 -672 0
v -832 -640 0
v -800 -640 0
v -832 -672 0
v -864 -672 0
v -864 -640 0
v -832 -640 0
v -352 -704 0
v -384 -704 0
v -384 -672 0
v -352 -672 0
v -384 -704 0
v -416 -704 0
v -416 -672 0
v -384 -672 0
v -416 -704 0
v -448 -704 0
v -448 -672 0
v -416 -672 0
v -768 -704 0
v -800 -704 0
v -800 -672 0
v -768 -672 0
v -800 -704 0
v -832 -704 0
v -832 -672 0
v -800 -672 0
v -832 -704 0
v -864 -704 0
v -864 -672 0
v -832 -672 0
v -1056 -704 0
v -1088 -704 0
v -1088 -672 0
v -1056 -672 0
v -1088 -704 0
v -1120 -704 0
v -1120 -672 0
v -1088 -672 0
v -1120 -704 0
v -1152 -704 0
v -1152 -672 0
v -1120 -672 0
v -32 -736 0
v -64 -736 0
v -64 -704 0
v -32 -704 0
v -64 -736 0
v -96 -736 0
v -96 -704 0
v -64 -704 0
v -96 -736 0
v -128 -736 0
v -128 -704 0
v -96 -704 0
v -1056 -736 0
v -1088 -736 0
v -1088 -704 0
v -1056 -704 0
v -1088 -736 0
v -1120 -736 0
v -1120 -704 0
v -1088 -704 0
v -1120 -736 0
v -1152 -736 0
v -1152 -704 0
v -1120 -704 0
v -32 -768 0
v -64 -768 0
v -64 -736 0
v -32 -736 0
v -64 -768 0
v -96 -768 0
v -96 -736 0
v -64 -736 0
v -96 -768 0
v -128 -768 0
v -128 -736 0
v -96 -736 0
v -544 -768 0
v -576 -768 0
v -576 -736 0
v -544 -736 0
v -576 -768 0
v -608 -768 0
v -608 -736 0
v -576 -736 0
v -608 -768 0
v -640 -768 0
v -640 -736 0
v -608 -736 0
v -192 -800 0
v -224 -800 0
v -224 -768 0
v -192 -768 0
v -224 -800 0
v -256 -800 0
v -256 -768 0
v -224 -768 0
v -256 -800 0
v -288 -800 0
v -288 -768 0
v -256 -768 0
v -544 -800 0
v -576 -800 0
v -576 -768 0
v -544 -768 0
v -576 -800 0
v -608 -800 0
v -608 -768 0
v -576 -768 0
v -608 -800 0
v -640 -800 0
v -640 -768 0
v -608 -768 0
v -192 -832 0
v -224 -832 0
v -224 -800 0
v -192 -800 0
v -224 -832 0
v -256 -832 0
v -256 -800 0
v -224 -800 0
v -256 -832 0
v -288 -832 0
v -288 -800 0
v -256 -800 0

# Texture cooridinates (Count = 21)
vt 0.4615385 0.3846154
vt 0.5384616 0.3846154
vt 0.5384616 0.4615384
vt 0.4615385 0.4615384
vt 0.6153846 0.3846154
vt 0.6153846 0.4615384
vt 0.6923077 0.3846154
vt 0.6923077 0.4615384
vt 0.4615385 0.3076923
vt 0.5384616 0.3076923
vt 0.6153846 0.3076923
vt 0.6923077 0.3076923
vt 0.2307692 0.3846154
vt 0.3076923 0.3846154
vt 0.3076923 0.4615384
vt 0.2307692 0.4615384
vt 0.3846154 0.3846154
vt 0.3846154 0.4615384
vt 0.2307692 0.3076923
vt 0.3076923 0.3076923
vt 0.3846154 0.3076923

# Normal
vn 0 0 -1

# Mesh description
g forestNew_mesh_0005

# Faces
f 1/1/1 2/2/1 3/3/1 4/4/1
f 5/2/1 6/5/1 7/6/1 8/3/1
f 9/5/1 10/7/1 11/8/1 12/6/1
f 13/1/1 14/2/1 15/3/1 16/4/1
f 17/2/1 18/5/1 19/6/1 20/3/1
f 21/5/1 22/7/1 23/8/1 24/6/1
f 25/1/1 26/2/1 27/3/1 28/4/1
f 29/2/1 30/5/1 31/6/1 32/3/1
f 33/5/1 34/7/1 35/8/1 36/6/1
f 37/9/1 38/10/1 39/2/1 40/1/1
f 41/10/1 42/11/1 43/5/1 44/2/1
f 45/11/1 46/12/1 47/7/1 48/5/1
f 49/9/1 50/10/1 51/2/1 52/1/1
f 53/10/1 54/11/1 55/5/1 56/2/1
f 57/11/1 58/12/1 59/7/1 60/5/1
f 61/9/1 62/10/1 63/2/1 64/1/1
f 65/10/1 66/11/1 67/5/1 68/2/1
f 69/11/1 70/12/1 71/7/1 72/5/1
f 73/13/1 74/14/1 75/15/1 76/16/1
f 77/14/1 78/17/1 79/18/1 80/15/1
f 81/17/1 82/1/1 83/4/1 84/18/1
f 85/13/1 86/14/1 87/15/1 88/16/1
f 89/14/1 90/17/1 91/18/1 92/15/1
f 93/17/1 94/1/1 95/4/1 96/18/1
f 97/19/1 98/20/1 99/14/1 100/13/1
f 101/20/1 102/21/1 103/17/1 104/14/1
f 105/21/1 106/9/1 107/1/1 108/17/1
f 109/13/1 110/14/1 111/15/1 112/16/1
f 113/14/1 114/17/1 115/18/1 116/15/1
f 117/17/1 118/1/1 119/4/1 120/18/1
f 121/19/1 122/20/1 123/14/1 124/13/1
f 125/20/1 126/21/1 127/17/1 128/14/1
f 129/21/1 130/9/1 131/1/1 132/17/1
f 133/19/1 134/20/1 135/14/1 136/13/1
f 137/20/1 138/21/1 139/17/1 140/14/1
f 141/21/1 142/9/1 143/1/1 144/17/1
f 145/13/1 146/14/1 147/15/1 148/16/1
f 149/14/1 150/17/1 151/18/1 152/15/1
f 153/17/1 154/1/1 155/4/1 156/18/1
f 157/19/1 158/20/1 159/14/1 160/13/1
f 161/20/1 162/21/1 163/17/1 164/14/1
f 165/21/1 166/9/1 167/1/1 168/17/1
f 169/13/1 170/14/1 171/15/1 172/16/1
f 173/14/1 174/17/1 175/18/1 176/15/1
f 177/17/1 178/1/1 179/4/1 180/18/1
f 181/13/1 182/14/1 183/15/1 184/16/1
f 185/14/1 186/17/1 187/18/1 188/15/1
f 189/17/1 190/1/1 191/4/1 192/18/1
f 193/19/1 194/20/1 195/14/1 196/13/1
f 197/20/1 198/21/1 199/17/1 200/14/1
f 201/21/1 202/9/1 203/1/1 204/17/1
f 205/19/1 206/20/1 207/14/1 208/13/1
f 209/20/1 210/21/1 211/17/1 212/14/1
f 213/21/1 214/9/1 215/1/1 216/17/1
f 217/1/1 218/2/1 219/3/1 220/4/1
f 221/2/1 222/5/1 223/6/1 224/3/1
f 225/5/1 226/7/1 227/8/1 228/6/1
f 229/13/1 230/14/1 231/15/1 232/16/1
f 233/14/1 234/17/1 235/18/1 236/15/1
f 237/17/1 238/1/1 239/4/1 240/18/1
f 241/9/1 242/10/1 243/2/1 244/1/1
f 245/10/1 246/11/1 247/5/1 248/2/1
f 249/11/1 250/12/1 251/7/1 252/5/1
f 253/19/1 254/20/1 255/14/1 256/13/1
f 257/20/1 258/21/1 259/17/1 260/14/1
f 261/21/1 262/9/1 263/1/1 264/17/1
f 265/1/1 266/2/1 267/3/1 268/4/1
f 269/2/1 270/5/1 271/6/1 272/3/1
f 273/5/1 274/7/1 275/8/1 276/6/1
f 277/1/1 278/2/1 279/3/1 280/4/1
f 281/2/1 282/5/1 283/6/1 284/3/1
f 285/5/1 286/7/1 287/8/1 288/6/1
f 289/9/1 290/10/1 291/2/1 292/1/1
f 293/10/1 294/11/1 295/5/1 296/2/1
f 297/11/1 298/12/1 299/7/1 300/5/1
f 301/9/1 302/10/1 303/2/1 304/1/1
f 305/10/1 306/11/1 307/5/1 308/2/1
f 309/11/1 310/12/1 311/7/1 312/5/1

