# Tiled2Unity generated file. Do not modify by hand.
# Wavefront file for 'forestNew_mesh_0004.obj'

# Vertices (Count = 72)
v -384 -256 0
v -416 -256 0
v -416 -224 0
v -384 -224 0
v -800 -256 0
v -832 -256 0
v -832 -224 0
v -800 -224 0
v -1216 -288 0
v -1248 -288 0
v -1248 -256 0
v -1216 -256 0
v -576 -352 0
v -608 -352 0
v -608 -320 0
v -576 -320 0
v -768 -384 0
v -800 -384 0
v -800 -352 0
v -768 -352 0
v -928 -384 0
v -960 -384 0
v -960 -352 0
v -928 -352 0
v -1088 -384 0
v -1120 -384 0
v -1120 -352 0
v -1088 -352 0
v -288 -416 0
v -320 -416 0
v -320 -384 0
v -288 -384 0
v -96 -448 0
v -128 -448 0
v -128 -416 0
v -96 -416 0
v -512 -512 0
v -544 -512 0
v -544 -480 0
v -512 -480 0
v -160 -544 0
v -192 -544 0
v -192 -512 0
v -160 -512 0
v -1120 -544 0
v -1152 -544 0
v -1152 -512 0
v -1120 -512 0
v -960 -608 0
v -992 -608 0
v -992 -576 0
v -960 -576 0
v -512 -640 0
v -544 -640 0
v -544 -608 0
v -512 -608 0
v -672 -640 0
v -704 -640 0
v -704 -608 0
v -672 -608 0
v -224 -672 0
v -256 -672 0
v -256 -640 0
v -224 -640 0
v -992 -704 0
v -1024 -704 0
v -1024 -672 0
v -992 -672 0
v -320 -768 0
v -352 -768 0
v -352 -736 0
v -320 -736 0

# Texture cooridinates (Count = 6)
vt 0 0
vt 0.5 0
vt 0.5 1
vt 0 1
vt 1 0
vt 1 1

# Normal
vn 0 0 -1

# Mesh description
g forestNew_mesh_0004

# Faces
f 1/1/1 2/2/1 3/3/1 4/4/1
f 5/2/1 6/5/1 7/6/1 8/3/1
f 9/2/1 10/5/1 11/6/1 12/3/1
f 13/2/1 14/5/1 15/6/1 16/3/1
f 17/1/1 18/2/1 19/3/1 20/4/1
f 21/1/1 22/2/1 23/3/1 24/4/1
f 25/1/1 26/2/1 27/3/1 28/4/1
f 29/1/1 30/2/1 31/3/1 32/4/1
f 33/2/1 34/5/1 35/6/1 36/3/1
f 37/1/1 38/2/1 39/3/1 40/4/1
f 41/2/1 42/5/1 43/6/1 44/3/1
f 45/1/1 46/2/1 47/3/1 48/4/1
f 49/1/1 50/2/1 51/3/1 52/4/1
f 53/2/1 54/5/1 55/6/1 56/3/1
f 57/2/1 58/5/1 59/6/1 60/3/1
f 61/2/1 62/5/1 63/6/1 64/3/1
f 65/2/1 66/5/1 67/6/1 68/3/1
f 69/1/1 70/2/1 71/3/1 72/4/1

