# Tiled2Unity generated file. Do not modify by hand.
# Wavefront file for 'forest333_mesh_0004.obj'

# Vertices (Count = 72)
v -38400 -25600 0
v -41600 -25600 0
v -41600 -22400 0
v -38400 -22400 0
v -80000 -25600 0
v -83200 -25600 0
v -83200 -22400 0
v -80000 -22400 0
v -121600 -28800 0
v -124800 -28800 0
v -124800 -25600 0
v -121600 -25600 0
v -57600 -35200 0
v -60800 -35200 0
v -60800 -32000 0
v -57600 -32000 0
v -76800 -38400 0
v -80000 -38400 0
v -80000 -35200 0
v -76800 -35200 0
v -92800 -38400 0
v -96000 -38400 0
v -96000 -35200 0
v -92800 -35200 0
v -108800 -38400 0
v -112000 -38400 0
v -112000 -35200 0
v -108800 -35200 0
v -28800 -41600 0
v -32000 -41600 0
v -32000 -38400 0
v -28800 -38400 0
v -9600 -44800 0
v -12800 -44800 0
v -12800 -41600 0
v -9600 -41600 0
v -51200 -51200 0
v -54400 -51200 0
v -54400 -48000 0
v -51200 -48000 0
v -16000 -54400 0
v -19200 -54400 0
v -19200 -51200 0
v -16000 -51200 0
v -112000 -54400 0
v -115200 -54400 0
v -115200 -51200 0
v -112000 -51200 0
v -96000 -60800 0
v -99200 -60800 0
v -99200 -57600 0
v -96000 -57600 0
v -51200 -64000 0
v -54400 -64000 0
v -54400 -60800 0
v -51200 -60800 0
v -67200 -64000 0
v -70400 -64000 0
v -70400 -60800 0
v -67200 -60800 0
v -22400 -67200 0
v -25600 -67200 0
v -25600 -64000 0
v -22400 -64000 0
v -99200 -70400 0
v -102400 -70400 0
v -102400 -67200 0
v -99200 -67200 0
v -32000 -76800 0
v -35200 -76800 0
v -35200 -73600 0
v -32000 -73600 0

# Texture cooridinates (Count = 6)
vt 0 0
vt 0.5 0
vt 0.5 1
vt 0 1
vt 1 0
vt 1 1

# Normal
vn 0 0 -1

# Mesh description
g forest333_mesh_0004

# Faces
f 1/1/1 2/2/1 3/3/1 4/4/1
f 5/2/1 6/5/1 7/6/1 8/3/1
f 9/2/1 10/5/1 11/6/1 12/3/1
f 13/2/1 14/5/1 15/6/1 16/3/1
f 17/1/1 18/2/1 19/3/1 20/4/1
f 21/1/1 22/2/1 23/3/1 24/4/1
f 25/1/1 26/2/1 27/3/1 28/4/1
f 29/1/1 30/2/1 31/3/1 32/4/1
f 33/2/1 34/5/1 35/6/1 36/3/1
f 37/1/1 38/2/1 39/3/1 40/4/1
f 41/2/1 42/5/1 43/6/1 44/3/1
f 45/1/1 46/2/1 47/3/1 48/4/1
f 49/1/1 50/2/1 51/3/1 52/4/1
f 53/2/1 54/5/1 55/6/1 56/3/1
f 57/2/1 58/5/1 59/6/1 60/3/1
f 61/2/1 62/5/1 63/6/1 64/3/1
f 65/2/1 66/5/1 67/6/1 68/3/1
f 69/1/1 70/2/1 71/3/1 72/4/1

