# Tiled2Unity generated file. Do not modify by hand.
# Wavefront file for 'forest333_mesh_0003.obj'

# Vertices (Count = 484)
v -6400 -9600 0
v -9600 -9600 0
v -9600 -6400 0
v -6400 -6400 0
v -9600 -9600 0
v -12800 -9600 0
v -12800 -6400 0
v -9600 -6400 0
v -12800 -9600 0
v -16000 -9600 0
v -16000 -6400 0
v -12800 -6400 0
v -16000 -9600 0
v -19200 -9600 0
v -19200 -6400 0
v -16000 -6400 0
v -19200 -9600 0
v -22400 -9600 0
v -22400 -6400 0
v -19200 -6400 0
v -22400 -9600 0
v -25600 -9600 0
v -25600 -6400 0
v -22400 -6400 0
v -25600 -9600 0
v -28800 -9600 0
v -28800 -6400 0
v -25600 -6400 0
v -28800 -9600 0
v -32000 -9600 0
v -32000 -6400 0
v -28800 -6400 0
v -32000 -9600 0
v -35200 -9600 0
v -35200 -6400 0
v -32000 -6400 0
v -35200 -9600 0
v -38400 -9600 0
v -38400 -6400 0
v -35200 -6400 0
v -38400 -9600 0
v -41600 -9600 0
v -41600 -6400 0
v -38400 -6400 0
v -83200 -9600 0
v -86400 -9600 0
v -86400 -6400 0
v -83200 -6400 0
v -86400 -9600 0
v -89600 -9600 0
v -89600 -6400 0
v -86400 -6400 0
v -118400 -9600 0
v -121600 -9600 0
v -121600 -6400 0
v -118400 -6400 0
v -121600 -9600 0
v -124800 -9600 0
v -124800 -6400 0
v -121600 -6400 0
v -41600 -12800 0
v -44800 -12800 0
v -44800 -9600 0
v -41600 -9600 0
v -86400 -12800 0
v -89600 -12800 0
v -89600 -9600 0
v -86400 -9600 0
v -89600 -12800 0
v -92800 -12800 0
v -92800 -9600 0
v -89600 -9600 0
v -121600 -12800 0
v -124800 -12800 0
v -124800 -9600 0
v -121600 -9600 0
v -124800 -12800 0
v -128000 -12800 0
v -128000 -9600 0
v -124800 -9600 0
v -35200 -16000 0
v -38400 -16000 0
v -38400 -12800 0
v -35200 -12800 0
v -38400 -16000 0
v -41600 -16000 0
v -41600 -12800 0
v -38400 -12800 0
v -41600 -16000 0
v -44800 -16000 0
v -44800 -12800 0
v -41600 -12800 0
v -89600 -16000 0
v -92800 -16000 0
v -92800 -12800 0
v -89600 -12800 0
v -92800 -16000 0
v -96000 -16000 0
v -96000 -12800 0
v -92800 -12800 0
v -96000 -16000 0
v -99200 -16000 0
v -99200 -12800 0
v -96000 -12800 0
v -124800 -16000 0
v -128000 -16000 0
v -128000 -12800 0
v -124800 -12800 0
v -44800 -19200 0
v -48000 -19200 0
v -48000 -16000 0
v -44800 -16000 0
v -48000 -19200 0
v -51200 -19200 0
v -51200 -16000 0
v -48000 -16000 0
v -51200 -19200 0
v -54400 -19200 0
v -54400 -16000 0
v -51200 -16000 0
v -54400 -19200 0
v -57600 -19200 0
v -57600 -16000 0
v -54400 -16000 0
v -57600 -19200 0
v -60800 -19200 0
v -60800 -16000 0
v -57600 -16000 0
v -96000 -19200 0
v -99200 -19200 0
v -99200 -16000 0
v -96000 -16000 0
v -99200 -19200 0
v -102400 -19200 0
v -102400 -16000 0
v -99200 -16000 0
v -121600 -19200 0
v -124800 -19200 0
v -124800 -16000 0
v -121600 -16000 0
v -124800 -19200 0
v -128000 -19200 0
v -128000 -16000 0
v -124800 -16000 0
v -57600 -22400 0
v -60800 -22400 0
v -60800 -19200 0
v -57600 -19200 0
v -60800 -22400 0
v -64000 -22400 0
v -64000 -19200 0
v -60800 -19200 0
v -99200 -22400 0
v -102400 -22400 0
v -102400 -19200 0
v -99200 -19200 0
v -118400 -22400 0
v -121600 -22400 0
v -121600 -19200 0
v -118400 -19200 0
v -121600 -22400 0
v -124800 -22400 0
v -124800 -19200 0
v -121600 -19200 0
v -3200 -25600 0
v -6400 -25600 0
v -6400 -22400 0
v -3200 -22400 0
v -25600 -25600 0
v -28800 -25600 0
v -28800 -22400 0
v -25600 -22400 0
v -28800 -25600 0
v -32000 -25600 0
v -32000 -22400 0
v -28800 -22400 0
v -60800 -25600 0
v -64000 -25600 0
v -64000 -22400 0
v -60800 -22400 0
v -64000 -25600 0
v -67200 -25600 0
v -67200 -22400 0
v -64000 -22400 0
v -99200 -25600 0
v -102400 -25600 0
v -102400 -22400 0
v -99200 -22400 0
v -115200 -25600 0
v -118400 -25600 0
v -118400 -22400 0
v -115200 -22400 0
v -118400 -25600 0
v -121600 -25600 0
v -121600 -22400 0
v -118400 -22400 0
v -3200 -28800 0
v -6400 -28800 0
v -6400 -25600 0
v -3200 -25600 0
v -25600 -28800 0
v -28800 -28800 0
v -28800 -25600 0
v -25600 -25600 0
v -64000 -28800 0
v -67200 -28800 0
v -67200 -25600 0
v -64000 -25600 0
v -99200 -28800 0
v -102400 -28800 0
v -102400 -25600 0
v -99200 -25600 0
v -112000 -28800 0
v -115200 -28800 0
v -115200 -25600 0
v -112000 -25600 0
v -3200 -32000 0
v -6400 -32000 0
v -6400 -28800 0
v -3200 -28800 0
v -22400 -32000 0
v -25600 -32000 0
v -25600 -28800 0
v -22400 -28800 0
v -25600 -32000 0
v -28800 -32000 0
v -28800 -28800 0
v -25600 -28800 0
v -3200 -35200 0
v -6400 -35200 0
v -6400 -32000 0
v -3200 -32000 0
v -22400 -35200 0
v -25600 -35200 0
v -25600 -32000 0
v -22400 -32000 0
v -3200 -38400 0
v -6400 -38400 0
v -6400 -35200 0
v -3200 -35200 0
v -19200 -38400 0
v -22400 -38400 0
v -22400 -35200 0
v -19200 -35200 0
v -22400 -38400 0
v -25600 -38400 0
v -25600 -35200 0
v -22400 -35200 0
v -3200 -41600 0
v -6400 -41600 0
v -6400 -38400 0
v -3200 -38400 0
v -16000 -41600 0
v -19200 -41600 0
v -19200 -38400 0
v -16000 -38400 0
v -19200 -41600 0
v -22400 -41600 0
v -22400 -38400 0
v -19200 -38400 0
v -3200 -44800 0
v -6400 -44800 0
v -6400 -41600 0
v -3200 -41600 0
v -12800 -44800 0
v -16000 -44800 0
v -16000 -41600 0
v -12800 -41600 0
v -16000 -44800 0
v -19200 -44800 0
v -19200 -41600 0
v -16000 -41600 0
v -3200 -48000 0
v -6400 -48000 0
v -6400 -44800 0
v -3200 -44800 0
v -12800 -48000 0
v -16000 -48000 0
v -16000 -44800 0
v -12800 -44800 0
v -64000 -54400 0
v -67200 -54400 0
v -67200 -51200 0
v -64000 -51200 0
v -67200 -54400 0
v -70400 -54400 0
v -70400 -51200 0
v -67200 -51200 0
v -70400 -54400 0
v -73600 -54400 0
v -73600 -51200 0
v -70400 -51200 0
v -48000 -57600 0
v -51200 -57600 0
v -51200 -54400 0
v -48000 -54400 0
v -51200 -57600 0
v -54400 -57600 0
v -54400 -54400 0
v -51200 -54400 0
v -54400 -57600 0
v -57600 -57600 0
v -57600 -54400 0
v -54400 -54400 0
v -57600 -57600 0
v -60800 -57600 0
v -60800 -54400 0
v -57600 -54400 0
v -60800 -57600 0
v -64000 -57600 0
v -64000 -54400 0
v -60800 -54400 0
v -64000 -57600 0
v -67200 -57600 0
v -67200 -54400 0
v -64000 -54400 0
v -70400 -57600 0
v -73600 -57600 0
v -73600 -54400 0
v -70400 -54400 0
v -118400 -70400 0
v -121600 -70400 0
v -121600 -67200 0
v -118400 -67200 0
v -48000 -73600 0
v -51200 -73600 0
v -51200 -70400 0
v -48000 -70400 0
v -70400 -73600 0
v -73600 -73600 0
v -73600 -70400 0
v -70400 -70400 0
v -92800 -73600 0
v -96000 -73600 0
v -96000 -70400 0
v -92800 -70400 0
v -115200 -73600 0
v -118400 -73600 0
v -118400 -70400 0
v -115200 -70400 0
v -118400 -73600 0
v -121600 -73600 0
v -121600 -70400 0
v -118400 -70400 0
v -44800 -76800 0
v -48000 -76800 0
v -48000 -73600 0
v -44800 -73600 0
v -48000 -76800 0
v -51200 -76800 0
v -51200 -73600 0
v -48000 -73600 0
v -70400 -76800 0
v -73600 -76800 0
v -73600 -73600 0
v -70400 -73600 0
v -89600 -76800 0
v -92800 -76800 0
v -92800 -73600 0
v -89600 -73600 0
v -92800 -76800 0
v -96000 -76800 0
v -96000 -73600 0
v -92800 -73600 0
v -112000 -76800 0
v -115200 -76800 0
v -115200 -73600 0
v -112000 -73600 0
v -115200 -76800 0
v -118400 -76800 0
v -118400 -73600 0
v -115200 -73600 0
v -41600 -80000 0
v -44800 -80000 0
v -44800 -76800 0
v -41600 -76800 0
v -44800 -80000 0
v -48000 -80000 0
v -48000 -76800 0
v -44800 -76800 0
v -70400 -80000 0
v -73600 -80000 0
v -73600 -76800 0
v -70400 -76800 0
v -86400 -80000 0
v -89600 -80000 0
v -89600 -76800 0
v -86400 -76800 0
v -89600 -80000 0
v -92800 -80000 0
v -92800 -76800 0
v -89600 -76800 0
v -108800 -80000 0
v -112000 -80000 0
v -112000 -76800 0
v -108800 -76800 0
v -112000 -80000 0
v -115200 -80000 0
v -115200 -76800 0
v -112000 -76800 0
v -6400 -83200 0
v -9600 -83200 0
v -9600 -80000 0
v -6400 -80000 0
v -41600 -83200 0
v -44800 -83200 0
v -44800 -80000 0
v -41600 -80000 0
v -70400 -83200 0
v -73600 -83200 0
v -73600 -80000 0
v -70400 -80000 0
v -83200 -83200 0
v -86400 -83200 0
v -86400 -80000 0
v -83200 -80000 0
v -86400 -83200 0
v -89600 -83200 0
v -89600 -80000 0
v -86400 -80000 0
v -105600 -83200 0
v -108800 -83200 0
v -108800 -80000 0
v -105600 -80000 0
v -9600 -86400 0
v -12800 -86400 0
v -12800 -83200 0
v -9600 -83200 0
v -12800 -86400 0
v -16000 -86400 0
v -16000 -83200 0
v -12800 -83200 0
v -38400 -86400 0
v -41600 -86400 0
v -41600 -83200 0
v -38400 -83200 0
v -70400 -86400 0
v -73600 -86400 0
v -73600 -83200 0
v -70400 -83200 0
v -83200 -86400 0
v -86400 -86400 0
v -86400 -83200 0
v -83200 -83200 0
v -16000 -89600 0
v -19200 -89600 0
v -19200 -86400 0
v -16000 -86400 0
v -19200 -89600 0
v -22400 -89600 0
v -22400 -86400 0
v -19200 -86400 0
v -19200 -92800 0
v -22400 -92800 0
v -22400 -89600 0
v -19200 -89600 0
v -22400 -92800 0
v -25600 -92800 0
v -25600 -89600 0
v -22400 -89600 0
v -25600 -92800 0
v -28800 -92800 0
v -28800 -89600 0
v -25600 -89600 0
v -28800 -92800 0
v -32000 -92800 0
v -32000 -89600 0
v -28800 -89600 0
v -32000 -92800 0
v -35200 -92800 0
v -35200 -89600 0
v -32000 -89600 0
v -35200 -92800 0
v -38400 -92800 0
v -38400 -89600 0
v -35200 -89600 0
v -38400 -92800 0
v -41600 -92800 0
v -41600 -89600 0
v -38400 -89600 0
v -41600 -92800 0
v -44800 -92800 0
v -44800 -89600 0
v -41600 -89600 0

# Texture cooridinates (Count = 8)
vt 0 0
vt 0.3333333 0
vt 0.3333333 0.1666667
vt 0 0.1666667
vt 0.6666667 0
vt 1 0
vt 1 0.1666667
vt 0.6666667 0.1666667

# Normal
vn 0 0 -1

# Mesh description
g forest333_mesh_0003

# Faces
f 1/1/1 2/2/1 3/3/1 4/4/1
f 5/5/1 6/6/1 7/7/1 8/8/1
f 9/1/1 10/2/1 11/3/1 12/4/1
f 13/1/1 14/2/1 15/3/1 16/4/1
f 17/2/1 18/5/1 19/8/1 20/3/1
f 21/5/1 22/6/1 23/7/1 24/8/1
f 25/1/1 26/2/1 27/3/1 28/4/1
f 29/2/1 30/5/1 31/8/1 32/3/1
f 33/2/1 34/5/1 35/8/1 36/3/1
f 37/2/1 38/5/1 39/8/1 40/3/1
f 41/2/1 42/5/1 43/8/1 44/3/1
f 45/1/1 46/2/1 47/3/1 48/4/1
f 49/1/1 50/2/1 51/3/1 52/4/1
f 53/5/1 54/6/1 55/7/1 56/8/1
f 57/1/1 58/2/1 59/3/1 60/4/1
f 61/2/1 62/5/1 63/8/1 64/3/1
f 65/2/1 66/5/1 67/8/1 68/3/1
f 69/1/1 70/2/1 71/3/1 72/4/1
f 73/5/1 74/6/1 75/7/1 76/8/1
f 77/2/1 78/5/1 79/8/1 80/3/1
f 81/2/1 82/5/1 83/8/1 84/3/1
f 85/1/1 86/2/1 87/3/1 88/4/1
f 89/1/1 90/2/1 91/3/1 92/4/1
f 93/1/1 94/2/1 95/3/1 96/4/1
f 97/2/1 98/5/1 99/8/1 100/3/1
f 101/1/1 102/2/1 103/3/1 104/4/1
f 105/2/1 106/5/1 107/8/1 108/3/1
f 109/2/1 110/5/1 111/8/1 112/3/1
f 113/1/1 114/2/1 115/3/1 116/4/1
f 117/1/1 118/2/1 119/3/1 120/4/1
f 121/1/1 122/2/1 123/3/1 124/4/1
f 125/2/1 126/5/1 127/8/1 128/3/1
f 129/1/1 130/2/1 131/3/1 132/4/1
f 133/2/1 134/5/1 135/8/1 136/3/1
f 137/1/1 138/2/1 139/3/1 140/4/1
f 141/5/1 142/6/1 143/7/1 144/8/1
f 145/1/1 146/2/1 147/3/1 148/4/1
f 149/2/1 150/5/1 151/8/1 152/3/1
f 153/1/1 154/2/1 155/3/1 156/4/1
f 157/5/1 158/6/1 159/7/1 160/8/1
f 161/1/1 162/2/1 163/3/1 164/4/1
f 165/5/1 166/6/1 167/7/1 168/8/1
f 169/5/1 170/6/1 171/7/1 172/8/1
f 173/1/1 174/2/1 175/3/1 176/4/1
f 177/2/1 178/5/1 179/8/1 180/3/1
f 181/2/1 182/5/1 183/8/1 184/3/1
f 185/2/1 186/5/1 187/8/1 188/3/1
f 189/1/1 190/2/1 191/3/1 192/4/1
f 193/1/1 194/2/1 195/3/1 196/4/1
f 197/5/1 198/6/1 199/7/1 200/8/1
f 201/1/1 202/2/1 203/3/1 204/4/1
f 205/1/1 206/2/1 207/3/1 208/4/1
f 209/1/1 210/2/1 211/3/1 212/4/1
f 213/2/1 214/5/1 215/8/1 216/3/1
f 217/2/1 218/5/1 219/8/1 220/3/1
f 221/5/1 222/6/1 223/7/1 224/8/1
f 225/5/1 226/6/1 227/7/1 228/8/1
f 229/1/1 230/2/1 231/3/1 232/4/1
f 233/5/1 234/6/1 235/7/1 236/8/1
f 237/1/1 238/2/1 239/3/1 240/4/1
f 241/5/1 242/6/1 243/7/1 244/8/1
f 245/5/1 246/6/1 247/7/1 248/8/1
f 249/5/1 250/6/1 251/7/1 252/8/1
f 253/5/1 254/6/1 255/7/1 256/8/1
f 257/5/1 258/6/1 259/7/1 260/8/1
f 261/5/1 262/6/1 263/7/1 264/8/1
f 265/2/1 266/5/1 267/8/1 268/3/1
f 269/1/1 270/2/1 271/3/1 272/4/1
f 273/5/1 274/6/1 275/7/1 276/8/1
f 277/1/1 278/2/1 279/3/1 280/4/1
f 281/5/1 282/6/1 283/7/1 284/8/1
f 285/5/1 286/6/1 287/7/1 288/8/1
f 289/1/1 290/2/1 291/3/1 292/4/1
f 293/1/1 294/2/1 295/3/1 296/4/1
f 297/1/1 298/2/1 299/3/1 300/4/1
f 301/5/1 302/6/1 303/7/1 304/8/1
f 305/5/1 306/6/1 307/7/1 308/8/1
f 309/2/1 310/5/1 311/8/1 312/3/1
f 313/1/1 314/2/1 315/3/1 316/4/1
f 317/2/1 318/5/1 319/8/1 320/3/1
f 321/2/1 322/5/1 323/8/1 324/3/1
f 325/5/1 326/6/1 327/7/1 328/8/1
f 329/1/1 330/2/1 331/3/1 332/4/1
f 333/2/1 334/5/1 335/8/1 336/3/1
f 337/2/1 338/5/1 339/8/1 340/3/1
f 341/2/1 342/5/1 343/8/1 344/3/1
f 345/5/1 346/6/1 347/7/1 348/8/1
f 349/2/1 350/5/1 351/8/1 352/3/1
f 353/2/1 354/5/1 355/8/1 356/3/1
f 357/1/1 358/2/1 359/3/1 360/4/1
f 361/5/1 362/6/1 363/7/1 364/8/1
f 365/2/1 366/5/1 367/8/1 368/3/1
f 369/1/1 370/2/1 371/3/1 372/4/1
f 373/1/1 374/2/1 375/3/1 376/4/1
f 377/1/1 378/2/1 379/3/1 380/4/1
f 381/5/1 382/6/1 383/7/1 384/8/1
f 385/1/1 386/2/1 387/3/1 388/4/1
f 389/1/1 390/2/1 391/3/1 392/4/1
f 393/5/1 394/6/1 395/7/1 396/8/1
f 397/5/1 398/6/1 399/7/1 400/8/1
f 401/2/1 402/5/1 403/8/1 404/3/1
f 405/5/1 406/6/1 407/7/1 408/8/1
f 409/2/1 410/5/1 411/8/1 412/3/1
f 413/5/1 414/6/1 415/7/1 416/8/1
f 417/2/1 418/5/1 419/8/1 420/3/1
f 421/2/1 422/5/1 423/8/1 424/3/1
f 425/1/1 426/2/1 427/3/1 428/4/1
f 429/2/1 430/5/1 431/8/1 432/3/1
f 433/5/1 434/6/1 435/7/1 436/8/1
f 437/2/1 438/5/1 439/8/1 440/3/1
f 441/2/1 442/5/1 443/8/1 444/3/1
f 445/2/1 446/5/1 447/8/1 448/3/1
f 449/5/1 450/6/1 451/7/1 452/8/1
f 453/5/1 454/6/1 455/7/1 456/8/1
f 457/5/1 458/6/1 459/7/1 460/8/1
f 461/5/1 462/6/1 463/7/1 464/8/1
f 465/1/1 466/2/1 467/3/1 468/4/1
f 469/2/1 470/5/1 471/8/1 472/3/1
f 473/1/1 474/2/1 475/3/1 476/4/1
f 477/2/1 478/5/1 479/8/1 480/3/1
f 481/5/1 482/6/1 483/7/1 484/8/1

