# Tiled2Unity generated file. Do not modify by hand.
# Wavefront file for 'forest333_mesh_0006.obj'

# Vertices (Count = 468)
v -67200 -9600 0
v -70400 -9600 0
v -70400 -6400 0
v -67200 -6400 0
v -70400 -9600 0
v -73600 -9600 0
v -73600 -6400 0
v -70400 -6400 0
v -73600 -9600 0
v -76800 -9600 0
v -76800 -6400 0
v -73600 -6400 0
v -108800 -9600 0
v -112000 -9600 0
v -112000 -6400 0
v -108800 -6400 0
v -112000 -9600 0
v -115200 -9600 0
v -115200 -6400 0
v -112000 -6400 0
v -115200 -9600 0
v -118400 -9600 0
v -118400 -6400 0
v -115200 -6400 0
v -67200 -12800 0
v -70400 -12800 0
v -70400 -9600 0
v -67200 -9600 0
v -70400 -12800 0
v -73600 -12800 0
v -73600 -9600 0
v -70400 -9600 0
v -73600 -12800 0
v -76800 -12800 0
v -76800 -9600 0
v -73600 -9600 0
v -108800 -12800 0
v -112000 -12800 0
v -112000 -9600 0
v -108800 -9600 0
v -112000 -12800 0
v -115200 -12800 0
v -115200 -9600 0
v -112000 -9600 0
v -115200 -12800 0
v -118400 -12800 0
v -118400 -9600 0
v -115200 -9600 0
v -19200 -16000 0
v -22400 -16000 0
v -22400 -12800 0
v -19200 -12800 0
v -22400 -16000 0
v -25600 -16000 0
v -25600 -12800 0
v -22400 -12800 0
v -25600 -16000 0
v -28800 -16000 0
v -28800 -12800 0
v -25600 -12800 0
v -67200 -16000 0
v -70400 -16000 0
v -70400 -12800 0
v -67200 -12800 0
v -70400 -16000 0
v -73600 -16000 0
v -73600 -12800 0
v -70400 -12800 0
v -73600 -16000 0
v -76800 -16000 0
v -76800 -12800 0
v -73600 -12800 0
v -108800 -16000 0
v -112000 -16000 0
v -112000 -12800 0
v -108800 -12800 0
v -112000 -16000 0
v -115200 -16000 0
v -115200 -12800 0
v -112000 -12800 0
v -115200 -16000 0
v -118400 -16000 0
v -118400 -12800 0
v -115200 -12800 0
v -19200 -19200 0
v -22400 -19200 0
v -22400 -16000 0
v -19200 -16000 0
v -22400 -19200 0
v -25600 -19200 0
v -25600 -16000 0
v -22400 -16000 0
v -25600 -19200 0
v -28800 -19200 0
v -28800 -16000 0
v -25600 -16000 0
v -86400 -19200 0
v -89600 -19200 0
v -89600 -16000 0
v -86400 -16000 0
v -89600 -19200 0
v -92800 -19200 0
v -92800 -16000 0
v -89600 -16000 0
v -92800 -19200 0
v -96000 -19200 0
v -96000 -16000 0
v -92800 -16000 0
v -19200 -22400 0
v -22400 -22400 0
v -22400 -19200 0
v -19200 -19200 0
v -22400 -22400 0
v -25600 -22400 0
v -25600 -19200 0
v -22400 -19200 0
v -25600 -22400 0
v -28800 -22400 0
v -28800 -19200 0
v -25600 -19200 0
v -44800 -22400 0
v -48000 -22400 0
v -48000 -19200 0
v -44800 -19200 0
v -48000 -22400 0
v -51200 -22400 0
v -51200 -19200 0
v -48000 -19200 0
v -51200 -22400 0
v -54400 -22400 0
v -54400 -19200 0
v -51200 -19200 0
v -86400 -22400 0
v -89600 -22400 0
v -89600 -19200 0
v -86400 -19200 0
v -89600 -22400 0
v -92800 -22400 0
v -92800 -19200 0
v -89600 -19200 0
v -92800 -22400 0
v -96000 -22400 0
v -96000 -19200 0
v -92800 -19200 0
v -6400 -25600 0
v -9600 -25600 0
v -9600 -22400 0
v -6400 -22400 0
v -9600 -25600 0
v -12800 -25600 0
v -12800 -22400 0
v -9600 -22400 0
v -12800 -25600 0
v -16000 -25600 0
v -16000 -22400 0
v -12800 -22400 0
v -44800 -25600 0
v -48000 -25600 0
v -48000 -22400 0
v -44800 -22400 0
v -48000 -25600 0
v -51200 -25600 0
v -51200 -22400 0
v -48000 -22400 0
v -51200 -25600 0
v -54400 -25600 0
v -54400 -22400 0
v -51200 -22400 0
v -86400 -25600 0
v -89600 -25600 0
v -89600 -22400 0
v -86400 -22400 0
v -89600 -25600 0
v -92800 -25600 0
v -92800 -22400 0
v -89600 -22400 0
v -92800 -25600 0
v -96000 -25600 0
v -96000 -22400 0
v -92800 -22400 0
v -6400 -28800 0
v -9600 -28800 0
v -9600 -25600 0
v -6400 -25600 0
v -9600 -28800 0
v -12800 -28800 0
v -12800 -25600 0
v -9600 -25600 0
v -12800 -28800 0
v -16000 -28800 0
v -16000 -25600 0
v -12800 -25600 0
v -44800 -28800 0
v -48000 -28800 0
v -48000 -25600 0
v -44800 -25600 0
v -48000 -28800 0
v -51200 -28800 0
v -51200 -25600 0
v -48000 -25600 0
v -51200 -28800 0
v -54400 -28800 0
v -54400 -25600 0
v -51200 -25600 0
v -6400 -32000 0
v -9600 -32000 0
v -9600 -28800 0
v -6400 -28800 0
v -9600 -32000 0
v -12800 -32000 0
v -12800 -28800 0
v -9600 -28800 0
v -12800 -32000 0
v -16000 -32000 0
v -16000 -28800 0
v -12800 -28800 0
v -115200 -48000 0
v -118400 -48000 0
v -118400 -44800 0
v -115200 -44800 0
v -118400 -48000 0
v -121600 -48000 0
v -121600 -44800 0
v -118400 -44800 0
v -121600 -48000 0
v -124800 -48000 0
v -124800 -44800 0
v -121600 -44800 0
v -115200 -51200 0
v -118400 -51200 0
v -118400 -48000 0
v -115200 -48000 0
v -118400 -51200 0
v -121600 -51200 0
v -121600 -48000 0
v -118400 -48000 0
v -121600 -51200 0
v -124800 -51200 0
v -124800 -48000 0
v -121600 -48000 0
v -115200 -54400 0
v -118400 -54400 0
v -118400 -51200 0
v -115200 -51200 0
v -118400 -54400 0
v -121600 -54400 0
v -121600 -51200 0
v -118400 -51200 0
v -121600 -54400 0
v -124800 -54400 0
v -124800 -51200 0
v -121600 -51200 0
v -76800 -57600 0
v -80000 -57600 0
v -80000 -54400 0
v -76800 -54400 0
v -80000 -57600 0
v -83200 -57600 0
v -83200 -54400 0
v -80000 -54400 0
v -83200 -57600 0
v -86400 -57600 0
v -86400 -54400 0
v -83200 -54400 0
v -35200 -60800 0
v -38400 -60800 0
v -38400 -57600 0
v -35200 -57600 0
v -38400 -60800 0
v -41600 -60800 0
v -41600 -57600 0
v -38400 -57600 0
v -41600 -60800 0
v -44800 -60800 0
v -44800 -57600 0
v -41600 -57600 0
v -76800 -60800 0
v -80000 -60800 0
v -80000 -57600 0
v -76800 -57600 0
v -80000 -60800 0
v -83200 -60800 0
v -83200 -57600 0
v -80000 -57600 0
v -83200 -60800 0
v -86400 -60800 0
v -86400 -57600 0
v -83200 -57600 0
v -35200 -64000 0
v -38400 -64000 0
v -38400 -60800 0
v -35200 -60800 0
v -38400 -64000 0
v -41600 -64000 0
v -41600 -60800 0
v -38400 -60800 0
v -41600 -64000 0
v -44800 -64000 0
v -44800 -60800 0
v -41600 -60800 0
v -76800 -64000 0
v -80000 -64000 0
v -80000 -60800 0
v -76800 -60800 0
v -80000 -64000 0
v -83200 -64000 0
v -83200 -60800 0
v -80000 -60800 0
v -83200 -64000 0
v -86400 -64000 0
v -86400 -60800 0
v -83200 -60800 0
v -105600 -64000 0
v -108800 -64000 0
v -108800 -60800 0
v -105600 -60800 0
v -108800 -64000 0
v -112000 -64000 0
v -112000 -60800 0
v -108800 -60800 0
v -112000 -64000 0
v -115200 -64000 0
v -115200 -60800 0
v -112000 -60800 0
v -3200 -67200 0
v -6400 -67200 0
v -6400 -64000 0
v -3200 -64000 0
v -6400 -67200 0
v -9600 -67200 0
v -9600 -64000 0
v -6400 -64000 0
v -9600 -67200 0
v -12800 -67200 0
v -12800 -64000 0
v -9600 -64000 0
v -35200 -67200 0
v -38400 -67200 0
v -38400 -64000 0
v -35200 -64000 0
v -38400 -67200 0
v -41600 -67200 0
v -41600 -64000 0
v -38400 -64000 0
v -41600 -67200 0
v -44800 -67200 0
v -44800 -64000 0
v -41600 -64000 0
v -54400 -67200 0
v -57600 -67200 0
v -57600 -64000 0
v -54400 -64000 0
v -57600 -67200 0
v -60800 -67200 0
v -60800 -64000 0
v -57600 -64000 0
v -60800 -67200 0
v -64000 -67200 0
v -64000 -64000 0
v -60800 -64000 0
v -105600 -67200 0
v -108800 -67200 0
v -108800 -64000 0
v -105600 -64000 0
v -108800 -67200 0
v -112000 -67200 0
v -112000 -64000 0
v -108800 -64000 0
v -112000 -67200 0
v -115200 -67200 0
v -115200 -64000 0
v -112000 -64000 0
v -3200 -70400 0
v -6400 -70400 0
v -6400 -67200 0
v -3200 -67200 0
v -6400 -70400 0
v -9600 -70400 0
v -9600 -67200 0
v -6400 -67200 0
v -9600 -70400 0
v -12800 -70400 0
v -12800 -67200 0
v -9600 -67200 0
v -19200 -70400 0
v -22400 -70400 0
v -22400 -67200 0
v -19200 -67200 0
v -22400 -70400 0
v -25600 -70400 0
v -25600 -67200 0
v -22400 -67200 0
v -25600 -70400 0
v -28800 -70400 0
v -28800 -67200 0
v -25600 -67200 0
v -54400 -70400 0
v -57600 -70400 0
v -57600 -67200 0
v -54400 -67200 0
v -57600 -70400 0
v -60800 -70400 0
v -60800 -67200 0
v -57600 -67200 0
v -60800 -70400 0
v -64000 -70400 0
v -64000 -67200 0
v -60800 -67200 0
v -105600 -70400 0
v -108800 -70400 0
v -108800 -67200 0
v -105600 -67200 0
v -108800 -70400 0
v -112000 -70400 0
v -112000 -67200 0
v -108800 -67200 0
v -112000 -70400 0
v -115200 -70400 0
v -115200 -67200 0
v -112000 -67200 0
v -3200 -73600 0
v -6400 -73600 0
v -6400 -70400 0
v -3200 -70400 0
v -6400 -73600 0
v -9600 -73600 0
v -9600 -70400 0
v -6400 -70400 0
v -9600 -73600 0
v -12800 -73600 0
v -12800 -70400 0
v -9600 -70400 0
v -19200 -73600 0
v -22400 -73600 0
v -22400 -70400 0
v -19200 -70400 0
v -22400 -73600 0
v -25600 -73600 0
v -25600 -70400 0
v -22400 -70400 0
v -25600 -73600 0
v -28800 -73600 0
v -28800 -70400 0
v -25600 -70400 0
v -54400 -73600 0
v -57600 -73600 0
v -57600 -70400 0
v -54400 -70400 0
v -57600 -73600 0
v -60800 -73600 0
v -60800 -70400 0
v -57600 -70400 0
v -60800 -73600 0
v -64000 -73600 0
v -64000 -70400 0
v -60800 -70400 0
v -19200 -76800 0
v -22400 -76800 0
v -22400 -73600 0
v -19200 -73600 0
v -22400 -76800 0
v -25600 -76800 0
v -25600 -73600 0
v -22400 -73600 0
v -25600 -76800 0
v -28800 -76800 0
v -28800 -73600 0
v -25600 -73600 0

# Texture cooridinates (Count = 28)
vt 0.4615385 0.6153846
vt 0.5384616 0.6153846
vt 0.5384616 0.6923077
vt 0.4615385 0.6923077
vt 0.6153846 0.6153846
vt 0.6153846 0.6923077
vt 0.6923077 0.6153846
vt 0.6923077 0.6923077
vt 0.2307692 0.6153846
vt 0.3076923 0.6153846
vt 0.3076923 0.6923077
vt 0.2307692 0.6923077
vt 0.3846154 0.6153846
vt 0.3846154 0.6923077
vt 0.4615385 0.5384616
vt 0.5384616 0.5384616
vt 0.6153846 0.5384616
vt 0.6923077 0.5384616
vt 0.2307692 0.5384616
vt 0.3076923 0.5384616
vt 0.3846154 0.5384616
vt 0.4615385 0.4615384
vt 0.5384616 0.4615384
vt 0.6153846 0.4615384
vt 0.6923077 0.4615384
vt 0.2307692 0.4615384
vt 0.3076923 0.4615384
vt 0.3846154 0.4615384

# Normal
vn 0 0 -1

# Mesh description
g forest333_mesh_0006

# Faces
f 1/1/1 2/2/1 3/3/1 4/4/1
f 5/2/1 6/5/1 7/6/1 8/3/1
f 9/5/1 10/7/1 11/8/1 12/6/1
f 13/9/1 14/10/1 15/11/1 16/12/1
f 17/10/1 18/13/1 19/14/1 20/11/1
f 21/13/1 22/1/1 23/4/1 24/14/1
f 25/15/1 26/16/1 27/2/1 28/1/1
f 29/16/1 30/17/1 31/5/1 32/2/1
f 33/17/1 34/18/1 35/7/1 36/5/1
f 37/19/1 38/20/1 39/10/1 40/9/1
f 41/20/1 42/21/1 43/13/1 44/10/1
f 45/21/1 46/15/1 47/1/1 48/13/1
f 49/1/1 50/2/1 51/3/1 52/4/1
f 53/2/1 54/5/1 55/6/1 56/3/1
f 57/5/1 58/7/1 59/8/1 60/6/1
f 61/22/1 62/23/1 63/16/1 64/15/1
f 65/23/1 66/24/1 67/17/1 68/16/1
f 69/24/1 70/25/1 71/18/1 72/17/1
f 73/26/1 74/27/1 75/20/1 76/19/1
f 77/27/1 78/28/1 79/21/1 80/20/1
f 81/28/1 82/22/1 83/15/1 84/21/1
f 85/15/1 86/16/1 87/2/1 88/1/1
f 89/16/1 90/17/1 91/5/1 92/2/1
f 93/17/1 94/18/1 95/7/1 96/5/1
f 97/9/1 98/10/1 99/11/1 100/12/1
f 101/10/1 102/13/1 103/14/1 104/11/1
f 105/13/1 106/1/1 107/4/1 108/14/1
f 109/22/1 110/23/1 111/16/1 112/15/1
f 113/23/1 114/24/1 115/17/1 116/16/1
f 117/24/1 118/25/1 119/18/1 120/17/1
f 121/9/1 122/10/1 123/11/1 124/12/1
f 125/10/1 126/13/1 127/14/1 128/11/1
f 129/13/1 130/1/1 131/4/1 132/14/1
f 133/19/1 134/20/1 135/10/1 136/9/1
f 137/20/1 138/21/1 139/13/1 140/10/1
f 141/21/1 142/15/1 143/1/1 144/13/1
f 145/9/1 146/10/1 147/11/1 148/12/1
f 149/10/1 150/13/1 151/14/1 152/11/1
f 153/13/1 154/1/1 155/4/1 156/14/1
f 157/19/1 158/20/1 159/10/1 160/9/1
f 161/20/1 162/21/1 163/13/1 164/10/1
f 165/21/1 166/15/1 167/1/1 168/13/1
f 169/26/1 170/27/1 171/20/1 172/19/1
f 173/27/1 174/28/1 175/21/1 176/20/1
f 177/28/1 178/22/1 179/15/1 180/21/1
f 181/19/1 182/20/1 183/10/1 184/9/1
f 185/20/1 186/21/1 187/13/1 188/10/1
f 189/21/1 190/15/1 191/1/1 192/13/1
f 193/26/1 194/27/1 195/20/1 196/19/1
f 197/27/1 198/28/1 199/21/1 200/20/1
f 201/28/1 202/22/1 203/15/1 204/21/1
f 205/26/1 206/27/1 207/20/1 208/19/1
f 209/27/1 210/28/1 211/21/1 212/20/1
f 213/28/1 214/22/1 215/15/1 216/21/1
f 217/9/1 218/10/1 219/11/1 220/12/1
f 221/10/1 222/13/1 223/14/1 224/11/1
f 225/13/1 226/1/1 227/4/1 228/14/1
f 229/19/1 230/20/1 231/10/1 232/9/1
f 233/20/1 234/21/1 235/13/1 236/10/1
f 237/21/1 238/15/1 239/1/1 240/13/1
f 241/26/1 242/27/1 243/20/1 244/19/1
f 245/27/1 246/28/1 247/21/1 248/20/1
f 249/28/1 250/22/1 251/15/1 252/21/1
f 253/9/1 254/10/1 255/11/1 256/12/1
f 257/10/1 258/13/1 259/14/1 260/11/1
f 261/13/1 262/1/1 263/4/1 264/14/1
f 265/9/1 266/10/1 267/11/1 268/12/1
f 269/10/1 270/13/1 271/14/1 272/11/1
f 273/13/1 274/1/1 275/4/1 276/14/1
f 277/19/1 278/20/1 279/10/1 280/9/1
f 281/20/1 282/21/1 283/13/1 284/10/1
f 285/21/1 286/15/1 287/1/1 288/13/1
f 289/19/1 290/20/1 291/10/1 292/9/1
f 293/20/1 294/21/1 295/13/1 296/10/1
f 297/21/1 298/15/1 299/1/1 300/13/1
f 301/26/1 302/27/1 303/20/1 304/19/1
f 305/27/1 306/28/1 307/21/1 308/20/1
f 309/28/1 310/22/1 311/15/1 312/21/1
f 313/1/1 314/2/1 315/3/1 316/4/1
f 317/2/1 318/5/1 319/6/1 320/3/1
f 321/5/1 322/7/1 323/8/1 324/6/1
f 325/9/1 326/10/1 327/11/1 328/12/1
f 329/10/1 330/13/1 331/14/1 332/11/1
f 333/13/1 334/1/1 335/4/1 336/14/1
f 337/26/1 338/27/1 339/20/1 340/19/1
f 341/27/1 342/28/1 343/21/1 344/20/1
f 345/28/1 346/22/1 347/15/1 348/21/1
f 349/1/1 350/2/1 351/3/1 352/4/1
f 353/2/1 354/5/1 355/6/1 356/3/1
f 357/5/1 358/7/1 359/8/1 360/6/1
f 361/15/1 362/16/1 363/2/1 364/1/1
f 365/16/1 366/17/1 367/5/1 368/2/1
f 369/17/1 370/18/1 371/7/1 372/5/1
f 373/19/1 374/20/1 375/10/1 376/9/1
f 377/20/1 378/21/1 379/13/1 380/10/1
f 381/21/1 382/15/1 383/1/1 384/13/1
f 385/1/1 386/2/1 387/3/1 388/4/1
f 389/2/1 390/5/1 391/6/1 392/3/1
f 393/5/1 394/7/1 395/8/1 396/6/1
f 397/15/1 398/16/1 399/2/1 400/1/1
f 401/16/1 402/17/1 403/5/1 404/2/1
f 405/17/1 406/18/1 407/7/1 408/5/1
f 409/22/1 410/23/1 411/16/1 412/15/1
f 413/23/1 414/24/1 415/17/1 416/16/1
f 417/24/1 418/25/1 419/18/1 420/17/1
f 421/26/1 422/27/1 423/20/1 424/19/1
f 425/27/1 426/28/1 427/21/1 428/20/1
f 429/28/1 430/22/1 431/15/1 432/21/1
f 433/15/1 434/16/1 435/2/1 436/1/1
f 437/16/1 438/17/1 439/5/1 440/2/1
f 441/17/1 442/18/1 443/7/1 444/5/1
f 445/22/1 446/23/1 447/16/1 448/15/1
f 449/23/1 450/24/1 451/17/1 452/16/1
f 453/24/1 454/25/1 455/18/1 456/17/1
f 457/22/1 458/23/1 459/16/1 460/15/1
f 461/23/1 462/24/1 463/17/1 464/16/1
f 465/24/1 466/25/1 467/18/1 468/17/1

