# Tiled2Unity generated file. Do not modify by hand.
# Wavefront file for 'forest11_mesh_0002.obj'

# Vertices (Count = 588)
v -1184 -320 0
v -1216 -320 0
v -1216 -288 0
v -1184 -288 0
v -1216 -320 0
v -1248 -320 0
v -1248 -288 0
v -1216 -288 0
v -1248 -320 0
v -1280 -320 0
v -1280 -288 0
v -1248 -288 0
v -1120 -352 0
v -1152 -352 0
v -1152 -320 0
v -1120 -320 0
v -1152 -352 0
v -1184 -352 0
v -1184 -320 0
v -1152 -320 0
v -1184 -352 0
v -1216 -352 0
v -1216 -320 0
v -1184 -320 0
v -1216 -352 0
v -1248 -352 0
v -1248 -320 0
v -1216 -320 0
v -1248 -352 0
v -1280 -352 0
v -1280 -320 0
v -1248 -320 0
v -1056 -384 0
v -1088 -384 0
v -1088 -352 0
v -1056 -352 0
v -1088 -384 0
v -1120 -384 0
v -1120 -352 0
v -1088 -352 0
v -1120 -384 0
v -1152 -384 0
v -1152 -352 0
v -1120 -352 0
v -1152 -384 0
v -1184 -384 0
v -1184 -352 0
v -1152 -352 0
v -1184 -384 0
v -1216 -384 0
v -1216 -352 0
v -1184 -352 0
v -1216 -384 0
v -1248 -384 0
v -1248 -352 0
v -1216 -352 0
v -1248 -384 0
v -1280 -384 0
v -1280 -352 0
v -1248 -352 0
v -928 -416 0
v -960 -416 0
v -960 -384 0
v -928 -384 0
v -960 -416 0
v -992 -416 0
v -992 -384 0
v -960 -384 0
v -992 -416 0
v -1024 -416 0
v -1024 -384 0
v -992 -384 0
v -1024 -416 0
v -1056 -416 0
v -1056 -384 0
v -1024 -384 0
v -1056 -416 0
v -1088 -416 0
v -1088 -384 0
v -1056 -384 0
v -1088 -416 0
v -1120 -416 0
v -1120 -384 0
v -1088 -384 0
v -1120 -416 0
v -1152 -416 0
v -1152 -384 0
v -1120 -384 0
v -1152 -416 0
v -1184 -416 0
v -1184 -384 0
v -1152 -384 0
v -1184 -416 0
v -1216 -416 0
v -1216 -384 0
v -1184 -384 0
v -1216 -416 0
v -1248 -416 0
v -1248 -384 0
v -1216 -384 0
v -1248 -416 0
v -1280 -416 0
v -1280 -384 0
v -1248 -384 0
v -352 -448 0
v -384 -448 0
v -384 -416 0
v -352 -416 0
v -384 -448 0
v -416 -448 0
v -416 -416 0
v -384 -416 0
v -416 -448 0
v -448 -448 0
v -448 -416 0
v -416 -416 0
v -448 -448 0
v -480 -448 0
v -480 -416 0
v -448 -416 0
v -480 -448 0
v -512 -448 0
v -512 -416 0
v -480 -416 0
v -512 -448 0
v -544 -448 0
v -544 -416 0
v -512 -416 0
v -544 -448 0
v -576 -448 0
v -576 -416 0
v -544 -416 0
v -576 -448 0
v -608 -448 0
v -608 -416 0
v -576 -416 0
v -608 -448 0
v -640 -448 0
v -640 -416 0
v -608 -416 0
v -640 -448 0
v -672 -448 0
v -672 -416 0
v -640 -416 0
v -672 -448 0
v -704 -448 0
v -704 -416 0
v -672 -416 0
v -704 -448 0
v -736 -448 0
v -736 -416 0
v -704 -416 0
v -736 -448 0
v -768 -448 0
v -768 -416 0
v -736 -416 0
v -768 -448 0
v -800 -448 0
v -800 -416 0
v -768 -416 0
v -800 -448 0
v -832 -448 0
v -832 -416 0
v -800 -416 0
v -832 -448 0
v -864 -448 0
v -864 -416 0
v -832 -416 0
v -864 -448 0
v -896 -448 0
v -896 -416 0
v -864 -416 0
v -896 -448 0
v -928 -448 0
v -928 -416 0
v -896 -416 0
v -928 -448 0
v -960 -448 0
v -960 -416 0
v -928 -416 0
v -960 -448 0
v -992 -448 0
v -992 -416 0
v -960 -416 0
v -992 -448 0
v -1024 -448 0
v -1024 -416 0
v -992 -416 0
v -1024 -448 0
v -1056 -448 0
v -1056 -416 0
v -1024 -416 0
v -1056 -448 0
v -1088 -448 0
v -1088 -416 0
v -1056 -416 0
v -1088 -448 0
v -1120 -448 0
v -1120 -416 0
v -1088 -416 0
v -1120 -448 0
v -1152 -448 0
v -1152 -416 0
v -1120 -416 0
v -1152 -448 0
v -1184 -448 0
v -1184 -416 0
v -1152 -416 0
v -1184 -448 0
v -1216 -448 0
v -1216 -416 0
v -1184 -416 0
v -320 -480 0
v -352 -480 0
v -352 -448 0
v -320 -448 0
v -352 -480 0
v -384 -480 0
v -384 -448 0
v -352 -448 0
v -384 -480 0
v -416 -480 0
v -416 -448 0
v -384 -448 0
v -416 -480 0
v -448 -480 0
v -448 -448 0
v -416 -448 0
v -448 -480 0
v -480 -480 0
v -480 -448 0
v -448 -448 0
v -480 -480 0
v -512 -480 0
v -512 -448 0
v -480 -448 0
v -512 -480 0
v -544 -480 0
v -544 -448 0
v -512 -448 0
v -544 -480 0
v -576 -480 0
v -576 -448 0
v -544 -448 0
v -576 -480 0
v -608 -480 0
v -608 -448 0
v -576 -448 0
v -608 -480 0
v -640 -480 0
v -640 -448 0
v -608 -448 0
v -640 -480 0
v -672 -480 0
v -672 -448 0
v -640 -448 0
v -672 -480 0
v -704 -480 0
v -704 -448 0
v -672 -448 0
v -704 -480 0
v -736 -480 0
v -736 -448 0
v -704 -448 0
v -736 -480 0
v -768 -480 0
v -768 -448 0
v -736 -448 0
v -768 -480 0
v -800 -480 0
v -800 -448 0
v -768 -448 0
v -800 -480 0
v -832 -480 0
v -832 -448 0
v -800 -448 0
v -832 -480 0
v -864 -480 0
v -864 -448 0
v -832 -448 0
v -864 -480 0
v -896 -480 0
v -896 -448 0
v -864 -448 0
v -896 -480 0
v -928 -480 0
v -928 -448 0
v -896 -448 0
v -928 -480 0
v -960 -480 0
v -960 -448 0
v -928 -448 0
v -960 -480 0
v -992 -480 0
v -992 -448 0
v -960 -448 0
v -992 -480 0
v -1024 -480 0
v -1024 -448 0
v -992 -448 0
v -1024 -480 0
v -1056 -480 0
v -1056 -448 0
v -1024 -448 0
v -1056 -480 0
v -1088 -480 0
v -1088 -448 0
v -1056 -448 0
v -1088 -480 0
v -1120 -480 0
v -1120 -448 0
v -1088 -448 0
v -288 -512 0
v -320 -512 0
v -320 -480 0
v -288 -480 0
v -320 -512 0
v -352 -512 0
v -352 -480 0
v -320 -480 0
v -352 -512 0
v -384 -512 0
v -384 -480 0
v -352 -480 0
v -384 -512 0
v -416 -512 0
v -416 -480 0
v -384 -480 0
v -416 -512 0
v -448 -512 0
v -448 -480 0
v -416 -480 0
v -448 -512 0
v -480 -512 0
v -480 -480 0
v -448 -480 0
v -480 -512 0
v -512 -512 0
v -512 -480 0
v -480 -480 0
v -512 -512 0
v -544 -512 0
v -544 -480 0
v -512 -480 0
v -544 -512 0
v -576 -512 0
v -576 -480 0
v -544 -480 0
v -576 -512 0
v -608 -512 0
v -608 -480 0
v -576 -480 0
v -608 -512 0
v -640 -512 0
v -640 -480 0
v -608 -480 0
v -640 -512 0
v -672 -512 0
v -672 -480 0
v -640 -480 0
v -672 -512 0
v -704 -512 0
v -704 -480 0
v -672 -480 0
v -704 -512 0
v -736 -512 0
v -736 -480 0
v -704 -480 0
v -736 -512 0
v -768 -512 0
v -768 -480 0
v -736 -480 0
v -768 -512 0
v -800 -512 0
v -800 -480 0
v -768 -480 0
v -800 -512 0
v -832 -512 0
v -832 -480 0
v -800 -480 0
v -832 -512 0
v -864 -512 0
v -864 -480 0
v -832 -480 0
v -864 -512 0
v -896 -512 0
v -896 -480 0
v -864 -480 0
v -896 -512 0
v -928 -512 0
v -928 -480 0
v -896 -480 0
v -928 -512 0
v -960 -512 0
v -960 -480 0
v -928 -480 0
v -960 -512 0
v -992 -512 0
v -992 -480 0
v -960 -480 0
v -992 -512 0
v -1024 -512 0
v -1024 -480 0
v -992 -480 0
v -224 -544 0
v -256 -544 0
v -256 -512 0
v -224 -512 0
v -256 -544 0
v -288 -544 0
v -288 -512 0
v -256 -512 0
v -288 -544 0
v -320 -544 0
v -320 -512 0
v -288 -512 0
v -320 -544 0
v -352 -544 0
v -352 -512 0
v -320 -512 0
v -352 -544 0
v -384 -544 0
v -384 -512 0
v -352 -512 0
v -384 -544 0
v -416 -544 0
v -416 -512 0
v -384 -512 0
v -416 -544 0
v -448 -544 0
v -448 -512 0
v -416 -512 0
v -128 -576 0
v -160 -576 0
v -160 -544 0
v -128 -544 0
v -160 -576 0
v -192 -576 0
v -192 -544 0
v -160 -544 0
v -192 -576 0
v -224 -576 0
v -224 -544 0
v -192 -544 0
v -224 -576 0
v -256 -576 0
v -256 -544 0
v -224 -544 0
v -256 -576 0
v -288 -576 0
v -288 -544 0
v -256 -544 0
v -288 -576 0
v -320 -576 0
v -320 -544 0
v -288 -544 0
v -320 -576 0
v -352 -576 0
v -352 -544 0
v -320 -544 0
v -352 -576 0
v -384 -576 0
v -384 -544 0
v -352 -544 0
v -64 -608 0
v -96 -608 0
v -96 -576 0
v -64 -576 0
v -96 -608 0
v -128 -608 0
v -128 -576 0
v -96 -576 0
v -128 -608 0
v -160 -608 0
v -160 -576 0
v -128 -576 0
v -160 -608 0
v -192 -608 0
v -192 -576 0
v -160 -576 0
v -192 -608 0
v -224 -608 0
v -224 -576 0
v -192 -576 0
v -224 -608 0
v -256 -608 0
v -256 -576 0
v -224 -576 0
v -256 -608 0
v -288 -608 0
v -288 -576 0
v -256 -576 0
v -288 -608 0
v -320 -608 0
v -320 -576 0
v -288 -576 0
v -320 -608 0
v -352 -608 0
v -352 -576 0
v -320 -576 0
v -352 -608 0
v -384 -608 0
v -384 -576 0
v -352 -576 0
v 0 -640 0
v -32 -640 0
v -32 -608 0
v 0 -608 0
v -32 -640 0
v -64 -640 0
v -64 -608 0
v -32 -608 0
v -64 -640 0
v -96 -640 0
v -96 -608 0
v -64 -608 0
v -96 -640 0
v -128 -640 0
v -128 -608 0
v -96 -608 0
v -128 -640 0
v -160 -640 0
v -160 -608 0
v -128 -608 0
v -160 -640 0
v -192 -640 0
v -192 -608 0
v -160 -608 0
v -192 -640 0
v -224 -640 0
v -224 -608 0
v -192 -608 0
v -224 -640 0
v -256 -640 0
v -256 -608 0
v -224 -608 0
v -256 -640 0
v -288 -640 0
v -288 -608 0
v -256 -608 0
v -288 -640 0
v -320 -640 0
v -320 -608 0
v -288 -608 0
v 0 -672 0
v -32 -672 0
v -32 -640 0
v 0 -640 0
v -32 -672 0
v -64 -672 0
v -64 -640 0
v -32 -640 0
v -64 -672 0
v -96 -672 0
v -96 -640 0
v -64 -640 0
v -96 -672 0
v -128 -672 0
v -128 -640 0
v -96 -640 0
v -128 -672 0
v -160 -672 0
v -160 -640 0
v -128 -640 0
v -160 -672 0
v -192 -672 0
v -192 -640 0
v -160 -640 0
v 0 -704 0
v -32 -704 0
v -32 -672 0
v 0 -672 0
v -32 -704 0
v -64 -704 0
v -64 -672 0
v -32 -672 0
v -64 -704 0
v -96 -704 0
v -96 -672 0
v -64 -672 0
v -96 -704 0
v -128 -704 0
v -128 -672 0
v -96 -672 0
v -128 -704 0
v -160 -704 0
v -160 -672 0
v -128 -672 0

# Texture cooridinates (Count = 19)
vt 0 0.5
vt 0.3333333 0.5
vt 0.3333333 0.6666666
vt 0 0.6666666
vt 0.6666667 0.5
vt 0.6666667 0.6666666
vt 1 0.6666666
vt 1 0.8333333
vt 0.6666667 0.8333333
vt 0.3333333 0.3333333
vt 0.6666667 0.3333333
vt 0.3333333 0.8333333
vt 0.6666667 1
vt 0.3333333 1
vt 0.3333333 0.1666667
vt 0.6666667 0.1666667
vt 1 0.1666667
vt 1 0.3333333
vt 1 0.5

# Normal
vn 0 0 -1

# Mesh description
g forest11_mesh_0002

# Faces
f 1/1/1 2/2/1 3/3/1 4/4/1
f 5/2/1 6/5/1 7/6/1 8/3/1
f 9/2/1 10/5/1 11/6/1 12/3/1
f 13/1/1 14/2/1 15/3/1 16/4/1
f 17/2/1 18/5/1 19/6/1 20/3/1
f 21/6/1 22/7/1 23/8/1 24/9/1
f 25/10/1 26/11/1 27/5/1 28/2/1
f 29/10/1 30/11/1 31/5/1 32/2/1
f 33/1/1 34/2/1 35/3/1 36/4/1
f 37/2/1 38/5/1 39/6/1 40/3/1
f 41/6/1 42/7/1 43/8/1 44/9/1
f 45/10/1 46/11/1 47/5/1 48/2/1
f 49/10/1 50/11/1 51/5/1 52/2/1
f 53/10/1 54/11/1 55/5/1 56/2/1
f 57/12/1 58/9/1 59/13/1 60/14/1
f 61/1/1 62/2/1 63/3/1 64/4/1
f 65/2/1 66/5/1 67/6/1 68/3/1
f 69/2/1 70/5/1 71/6/1 72/3/1
f 73/2/1 74/5/1 75/6/1 76/3/1
f 77/6/1 78/7/1 79/8/1 80/9/1
f 81/10/1 82/11/1 83/5/1 84/2/1
f 85/10/1 86/11/1 87/5/1 88/2/1
f 89/10/1 90/11/1 91/5/1 92/2/1
f 93/12/1 94/9/1 95/13/1 96/14/1
f 97/15/1 98/16/1 99/11/1 100/10/1
f 101/16/1 102/17/1 103/18/1 104/11/1
f 105/1/1 106/2/1 107/3/1 108/4/1
f 109/2/1 110/5/1 111/6/1 112/3/1
f 113/2/1 114/5/1 115/6/1 116/3/1
f 117/2/1 118/5/1 119/6/1 120/3/1
f 121/2/1 122/5/1 123/6/1 124/3/1
f 125/2/1 126/5/1 127/6/1 128/3/1
f 129/2/1 130/5/1 131/6/1 132/3/1
f 133/2/1 134/5/1 135/6/1 136/3/1
f 137/2/1 138/5/1 139/6/1 140/3/1
f 141/2/1 142/5/1 143/6/1 144/3/1
f 145/2/1 146/5/1 147/6/1 148/3/1
f 149/2/1 150/5/1 151/6/1 152/3/1
f 153/2/1 154/5/1 155/6/1 156/3/1
f 157/2/1 158/5/1 159/6/1 160/3/1
f 161/2/1 162/5/1 163/6/1 164/3/1
f 165/2/1 166/5/1 167/6/1 168/3/1
f 169/2/1 170/5/1 171/6/1 172/3/1
f 173/2/1 174/5/1 175/6/1 176/3/1
f 177/6/1 178/7/1 179/8/1 180/9/1
f 181/10/1 182/11/1 183/5/1 184/2/1
f 185/10/1 186/11/1 187/5/1 188/2/1
f 189/10/1 190/11/1 191/5/1 192/2/1
f 193/10/1 194/11/1 195/5/1 196/2/1
f 197/12/1 198/9/1 199/13/1 200/14/1
f 201/15/1 202/16/1 203/11/1 204/10/1
f 205/15/1 206/16/1 207/11/1 208/10/1
f 209/16/1 210/17/1 211/18/1 212/11/1
f 213/1/1 214/2/1 215/3/1 216/4/1
f 217/6/1 218/7/1 219/8/1 220/9/1
f 221/10/1 222/11/1 223/5/1 224/2/1
f 225/10/1 226/11/1 227/5/1 228/2/1
f 229/10/1 230/11/1 231/5/1 232/2/1
f 233/10/1 234/11/1 235/5/1 236/2/1
f 237/10/1 238/11/1 239/5/1 240/2/1
f 241/10/1 242/11/1 243/5/1 244/2/1
f 245/10/1 246/11/1 247/5/1 248/2/1
f 249/10/1 250/11/1 251/5/1 252/2/1
f 253/10/1 254/11/1 255/5/1 256/2/1
f 257/10/1 258/11/1 259/5/1 260/2/1
f 261/10/1 262/11/1 263/5/1 264/2/1
f 265/10/1 266/11/1 267/5/1 268/2/1
f 269/10/1 270/11/1 271/5/1 272/2/1
f 273/10/1 274/11/1 275/5/1 276/2/1
f 277/10/1 278/11/1 279/5/1 280/2/1
f 281/10/1 282/11/1 283/5/1 284/2/1
f 285/10/1 286/11/1 287/5/1 288/2/1
f 289/10/1 290/11/1 291/5/1 292/2/1
f 293/10/1 294/11/1 295/5/1 296/2/1
f 297/12/1 298/9/1 299/13/1 300/14/1
f 301/15/1 302/16/1 303/11/1 304/10/1
f 305/15/1 306/16/1 307/11/1 308/10/1
f 309/16/1 310/17/1 311/18/1 312/11/1
f 313/1/1 314/2/1 315/3/1 316/4/1
f 317/6/1 318/7/1 319/8/1 320/9/1
f 321/10/1 322/11/1 323/5/1 324/2/1
f 325/10/1 326/11/1 327/5/1 328/2/1
f 329/12/1 330/9/1 331/13/1 332/14/1
f 333/15/1 334/16/1 335/11/1 336/10/1
f 337/15/1 338/16/1 339/11/1 340/10/1
f 341/15/1 342/16/1 343/11/1 344/10/1
f 345/15/1 346/16/1 347/11/1 348/10/1
f 349/15/1 350/16/1 351/11/1 352/10/1
f 353/15/1 354/16/1 355/11/1 356/10/1
f 357/15/1 358/16/1 359/11/1 360/10/1
f 361/15/1 362/16/1 363/11/1 364/10/1
f 365/15/1 366/16/1 367/11/1 368/10/1
f 369/15/1 370/16/1 371/11/1 372/10/1
f 373/15/1 374/16/1 375/11/1 376/10/1
f 377/15/1 378/16/1 379/11/1 380/10/1
f 381/15/1 382/16/1 383/11/1 384/10/1
f 385/15/1 386/16/1 387/11/1 388/10/1
f 389/15/1 390/16/1 391/11/1 392/10/1
f 393/15/1 394/16/1 395/11/1 396/10/1
f 397/15/1 398/16/1 399/11/1 400/10/1
f 401/16/1 402/17/1 403/18/1 404/11/1
f 405/1/1 406/2/1 407/3/1 408/4/1
f 409/2/1 410/5/1 411/6/1 412/3/1
f 413/6/1 414/7/1 415/8/1 416/9/1
f 417/10/1 418/11/1 419/5/1 420/2/1
f 421/12/1 422/9/1 423/13/1 424/14/1
f 425/15/1 426/16/1 427/11/1 428/10/1
f 429/16/1 430/17/1 431/18/1 432/11/1
f 433/1/1 434/2/1 435/3/1 436/4/1
f 437/2/1 438/5/1 439/6/1 440/3/1
f 441/2/1 442/5/1 443/6/1 444/3/1
f 445/6/1 446/7/1 447/8/1 448/9/1
f 449/10/1 450/11/1 451/5/1 452/2/1
f 453/10/1 454/11/1 455/5/1 456/2/1
f 457/10/1 458/11/1 459/5/1 460/2/1
f 461/11/1 462/18/1 463/19/1 464/5/1
f 465/1/1 466/2/1 467/3/1 468/4/1
f 469/2/1 470/5/1 471/6/1 472/3/1
f 473/6/1 474/7/1 475/8/1 476/9/1
f 477/10/1 478/11/1 479/5/1 480/2/1
f 481/10/1 482/11/1 483/5/1 484/2/1
f 485/10/1 486/11/1 487/5/1 488/2/1
f 489/10/1 490/11/1 491/5/1 492/2/1
f 493/12/1 494/9/1 495/13/1 496/14/1
f 497/15/1 498/16/1 499/11/1 500/10/1
f 501/16/1 502/17/1 503/18/1 504/11/1
f 505/2/1 506/5/1 507/6/1 508/3/1
f 509/2/1 510/5/1 511/6/1 512/3/1
f 513/6/1 514/7/1 515/8/1 516/9/1
f 517/10/1 518/11/1 519/5/1 520/2/1
f 521/10/1 522/11/1 523/5/1 524/2/1
f 525/12/1 526/9/1 527/13/1 528/14/1
f 529/15/1 530/16/1 531/11/1 532/10/1
f 533/15/1 534/16/1 535/11/1 536/10/1
f 537/15/1 538/16/1 539/11/1 540/10/1
f 541/16/1 542/17/1 543/18/1 544/11/1
f 545/10/1 546/11/1 547/5/1 548/2/1
f 549/10/1 550/11/1 551/5/1 552/2/1
f 553/10/1 554/11/1 555/5/1 556/2/1
f 557/10/1 558/11/1 559/5/1 560/2/1
f 561/12/1 562/9/1 563/13/1 564/14/1
f 565/16/1 566/17/1 567/18/1 568/11/1
f 569/15/1 570/16/1 571/11/1 572/10/1
f 573/15/1 574/16/1 575/11/1 576/10/1
f 577/15/1 578/16/1 579/11/1 580/10/1
f 581/15/1 582/16/1 583/11/1 584/10/1
f 585/16/1 586/17/1 587/18/1 588/11/1

