# Tiled2Unity generated file. Do not modify by hand.
# Wavefront file for 'forest_mesh_0005.obj'

# Vertices (Count = 828)
v -448 -128 0
v -480 -128 0
v -480 -96 0
v -448 -96 0
v -480 -128 0
v -512 -128 0
v -512 -96 0
v -480 -96 0
v -512 -128 0
v -544 -128 0
v -544 -96 0
v -512 -96 0
v -448 -160 0
v -480 -160 0
v -480 -128 0
v -448 -128 0
v -480 -160 0
v -512 -160 0
v -512 -128 0
v -480 -128 0
v -512 -160 0
v -544 -160 0
v -544 -128 0
v -512 -128 0
v -1120 -160 0
v -1152 -160 0
v -1152 -128 0
v -1120 -128 0
v -1152 -160 0
v -1184 -160 0
v -1184 -128 0
v -1152 -128 0
v -1184 -160 0
v -1216 -160 0
v -1216 -128 0
v -1184 -128 0
v -448 -192 0
v -480 -192 0
v -480 -160 0
v -448 -160 0
v -480 -192 0
v -512 -192 0
v -512 -160 0
v -480 -160 0
v -512 -192 0
v -544 -192 0
v -544 -160 0
v -512 -160 0
v -1120 -192 0
v -1152 -192 0
v -1152 -160 0
v -1120 -160 0
v -1152 -192 0
v -1184 -192 0
v -1184 -160 0
v -1152 -160 0
v -1184 -192 0
v -1216 -192 0
v -1216 -160 0
v -1184 -160 0
v -32 -224 0
v -64 -224 0
v -64 -192 0
v -32 -192 0
v -64 -224 0
v -96 -224 0
v -96 -192 0
v -64 -192 0
v -96 -224 0
v -128 -224 0
v -128 -192 0
v -96 -192 0
v -224 -224 0
v -256 -224 0
v -256 -192 0
v -224 -192 0
v -256 -224 0
v -288 -224 0
v -288 -192 0
v -256 -192 0
v -288 -224 0
v -320 -224 0
v -320 -192 0
v -288 -192 0
v -864 -224 0
v -896 -224 0
v -896 -192 0
v -864 -192 0
v -896 -224 0
v -928 -224 0
v -928 -192 0
v -896 -192 0
v -928 -224 0
v -960 -224 0
v -960 -192 0
v -928 -192 0
v -992 -224 0
v -1024 -224 0
v -1024 -192 0
v -992 -192 0
v -1024 -224 0
v -1056 -224 0
v -1056 -192 0
v -1024 -192 0
v -1056 -224 0
v -1088 -224 0
v -1088 -192 0
v -1056 -192 0
v -1120 -224 0
v -1152 -224 0
v -1152 -192 0
v -1120 -192 0
v -1152 -224 0
v -1184 -224 0
v -1184 -192 0
v -1152 -192 0
v -1184 -224 0
v -1216 -224 0
v -1216 -192 0
v -1184 -192 0
v -32 -256 0
v -64 -256 0
v -64 -224 0
v -32 -224 0
v -64 -256 0
v -96 -256 0
v -96 -224 0
v -64 -224 0
v -96 -256 0
v -128 -256 0
v -128 -224 0
v -96 -224 0
v -224 -256 0
v -256 -256 0
v -256 -224 0
v -224 -224 0
v -256 -256 0
v -288 -256 0
v -288 -224 0
v -256 -224 0
v -288 -256 0
v -320 -256 0
v -320 -224 0
v -288 -224 0
v -768 -256 0
v -800 -256 0
v -800 -224 0
v -768 -224 0
v -800 -256 0
v -832 -256 0
v -832 -224 0
v -800 -224 0
v -832 -256 0
v -864 -256 0
v -864 -224 0
v -832 -224 0
v -864 -256 0
v -896 -256 0
v -896 -224 0
v -864 -224 0
v -896 -256 0
v -928 -256 0
v -928 -224 0
v -896 -224 0
v -928 -256 0
v -960 -256 0
v -960 -224 0
v -928 -224 0
v -992 -256 0
v -1024 -256 0
v -1024 -224 0
v -992 -224 0
v -1024 -256 0
v -1056 -256 0
v -1056 -224 0
v -1024 -224 0
v -1056 -256 0
v -1088 -256 0
v -1088 -224 0
v -1056 -224 0
v -32 -288 0
v -64 -288 0
v -64 -256 0
v -32 -256 0
v -64 -288 0
v -96 -288 0
v -96 -256 0
v -64 -256 0
v -96 -288 0
v -128 -288 0
v -128 -256 0
v -96 -256 0
v -224 -288 0
v -256 -288 0
v -256 -256 0
v -224 -256 0
v -256 -288 0
v -288 -288 0
v -288 -256 0
v -256 -256 0
v -288 -288 0
v -320 -288 0
v -320 -256 0
v -288 -256 0
v -608 -288 0
v -640 -288 0
v -640 -256 0
v -608 -256 0
v -640 -288 0
v -672 -288 0
v -672 -256 0
v -640 -256 0
v -672 -288 0
v -704 -288 0
v -704 -256 0
v -672 -256 0
v -768 -288 0
v -800 -288 0
v -800 -256 0
v -768 -256 0
v -800 -288 0
v -832 -288 0
v -832 -256 0
v -800 -256 0
v -832 -288 0
v -864 -288 0
v -864 -256 0
v -832 -256 0
v -864 -288 0
v -896 -288 0
v -896 -256 0
v -864 -256 0
v -896 -288 0
v -928 -288 0
v -928 -256 0
v -896 -256 0
v -928 -288 0
v -960 -288 0
v -960 -256 0
v -928 -256 0
v -992 -288 0
v -1024 -288 0
v -1024 -256 0
v -992 -256 0
v -1024 -288 0
v -1056 -288 0
v -1056 -256 0
v -1024 -256 0
v -1056 -288 0
v -1088 -288 0
v -1088 -256 0
v -1056 -256 0
v -480 -320 0
v -512 -320 0
v -512 -288 0
v -480 -288 0
v -512 -320 0
v -544 -320 0
v -544 -288 0
v -512 -288 0
v -544 -320 0
v -576 -320 0
v -576 -288 0
v -544 -288 0
v -608 -320 0
v -640 -320 0
v -640 -288 0
v -608 -288 0
v -640 -320 0
v -672 -320 0
v -672 -288 0
v -640 -288 0
v -672 -320 0
v -704 -320 0
v -704 -288 0
v -672 -288 0
v -768 -320 0
v -800 -320 0
v -800 -288 0
v -768 -288 0
v -800 -320 0
v -832 -320 0
v -832 -288 0
v -800 -288 0
v -832 -320 0
v -864 -320 0
v -864 -288 0
v -832 -288 0
v -128 -352 0
v -160 -352 0
v -160 -320 0
v -128 -320 0
v -160 -352 0
v -192 -352 0
v -192 -320 0
v -160 -320 0
v -192 -352 0
v -224 -352 0
v -224 -320 0
v -192 -320 0
v -320 -352 0
v -352 -352 0
v -352 -320 0
v -320 -320 0
v -352 -352 0
v -384 -352 0
v -384 -320 0
v -352 -320 0
v -384 -352 0
v -416 -352 0
v -416 -320 0
v -384 -320 0
v -480 -352 0
v -512 -352 0
v -512 -320 0
v -480 -320 0
v -512 -352 0
v -544 -352 0
v -544 -320 0
v -512 -320 0
v -544 -352 0
v -576 -352 0
v -576 -320 0
v -544 -320 0
v -608 -352 0
v -640 -352 0
v -640 -320 0
v -608 -320 0
v -640 -352 0
v -672 -352 0
v -672 -320 0
v -640 -320 0
v -672 -352 0
v -704 -352 0
v -704 -320 0
v -672 -320 0
v 0 -384 0
v -32 -384 0
v -32 -352 0
v 0 -352 0
v -32 -384 0
v -64 -384 0
v -64 -352 0
v -32 -352 0
v -64 -384 0
v -96 -384 0
v -96 -352 0
v -64 -352 0
v -128 -384 0
v -160 -384 0
v -160 -352 0
v -128 -352 0
v -160 -384 0
v -192 -384 0
v -192 -352 0
v -160 -352 0
v -192 -384 0
v -224 -384 0
v -224 -352 0
v -192 -352 0
v -320 -384 0
v -352 -384 0
v -352 -352 0
v -320 -352 0
v -352 -384 0
v -384 -384 0
v -384 -352 0
v -352 -352 0
v -384 -384 0
v -416 -384 0
v -416 -352 0
v -384 -352 0
v -480 -384 0
v -512 -384 0
v -512 -352 0
v -480 -352 0
v -512 -384 0
v -544 -384 0
v -544 -352 0
v -512 -352 0
v -544 -384 0
v -576 -384 0
v -576 -352 0
v -544 -352 0
v 0 -416 0
v -32 -416 0
v -32 -384 0
v 0 -384 0
v -32 -416 0
v -64 -416 0
v -64 -384 0
v -32 -384 0
v -64 -416 0
v -96 -416 0
v -96 -384 0
v -64 -384 0
v -128 -416 0
v -160 -416 0
v -160 -384 0
v -128 -384 0
v -160 -416 0
v -192 -416 0
v -192 -384 0
v -160 -384 0
v -192 -416 0
v -224 -416 0
v -224 -384 0
v -192 -384 0
v -320 -416 0
v -352 -416 0
v -352 -384 0
v -320 -384 0
v -352 -416 0
v -384 -416 0
v -384 -384 0
v -352 -384 0
v -384 -416 0
v -416 -416 0
v -416 -384 0
v -384 -384 0
v 0 -448 0
v -32 -448 0
v -32 -416 0
v 0 -416 0
v -32 -448 0
v -64 -448 0
v -64 -416 0
v -32 -416 0
v -64 -448 0
v -96 -448 0
v -96 -416 0
v -64 -416 0
v -1056 -480 0
v -1088 -480 0
v -1088 -448 0
v -1056 -448 0
v -1088 -480 0
v -1120 -480 0
v -1120 -448 0
v -1088 -448 0
v -1120 -480 0
v -1152 -480 0
v -1152 -448 0
v -1120 -448 0
v -1056 -512 0
v -1088 -512 0
v -1088 -480 0
v -1056 -480 0
v -1088 -512 0
v -1120 -512 0
v -1120 -480 0
v -1088 -480 0
v -1120 -512 0
v -1152 -512 0
v -1152 -480 0
v -1120 -480 0
v -320 -544 0
v -352 -544 0
v -352 -512 0
v -320 -512 0
v -352 -544 0
v -384 -544 0
v -384 -512 0
v -352 -512 0
v -384 -544 0
v -416 -544 0
v -416 -512 0
v -384 -512 0
v -512 -544 0
v -544 -544 0
v -544 -512 0
v -512 -512 0
v -544 -544 0
v -576 -544 0
v -576 -512 0
v -544 -512 0
v -576 -544 0
v -608 -544 0
v -608 -512 0
v -576 -512 0
v -960 -544 0
v -992 -544 0
v -992 -512 0
v -960 -512 0
v -992 -544 0
v -1024 -544 0
v -1024 -512 0
v -992 -512 0
v -1024 -544 0
v -1056 -544 0
v -1056 -512 0
v -1024 -512 0
v -1056 -544 0
v -1088 -544 0
v -1088 -512 0
v -1056 -512 0
v -1088 -544 0
v -1120 -544 0
v -1120 -512 0
v -1088 -512 0
v -1120 -544 0
v -1152 -544 0
v -1152 -512 0
v -1120 -512 0
v -320 -576 0
v -352 -576 0
v -352 -544 0
v -320 -544 0
v -352 -576 0
v -384 -576 0
v -384 -544 0
v -352 -544 0
v -384 -576 0
v -416 -576 0
v -416 -544 0
v -384 -544 0
v -512 -576 0
v -544 -576 0
v -544 -544 0
v -512 -544 0
v -544 -576 0
v -576 -576 0
v -576 -544 0
v -544 -544 0
v -576 -576 0
v -608 -576 0
v -608 -544 0
v -576 -544 0
v -800 -576 0
v -832 -576 0
v -832 -544 0
v -800 -544 0
v -832 -576 0
v -864 -576 0
v -864 -544 0
v -832 -544 0
v -864 -576 0
v -896 -576 0
v -896 -544 0
v -864 -544 0
v -960 -576 0
v -992 -576 0
v -992 -544 0
v -960 -544 0
v -992 -576 0
v -1024 -576 0
v -1024 -544 0
v -992 -544 0
v -1024 -576 0
v -1056 -576 0
v -1056 -544 0
v -1024 -544 0
v -32 -608 0
v -64 -608 0
v -64 -576 0
v -32 -576 0
v -64 -608 0
v -96 -608 0
v -96 -576 0
v -64 -576 0
v -96 -608 0
v -128 -608 0
v -128 -576 0
v -96 -576 0
v -160 -608 0
v -192 -608 0
v -192 -576 0
v -160 -576 0
v -192 -608 0
v -224 -608 0
v -224 -576 0
v -192 -576 0
v -224 -608 0
v -256 -608 0
v -256 -576 0
v -224 -576 0
v -320 -608 0
v -352 -608 0
v -352 -576 0
v -320 -576 0
v -352 -608 0
v -384 -608 0
v -384 -576 0
v -352 -576 0
v -384 -608 0
v -416 -608 0
v -416 -576 0
v -384 -576 0
v -416 -608 0
v -448 -608 0
v -448 -576 0
v -416 -576 0
v -448 -608 0
v -480 -608 0
v -480 -576 0
v -448 -576 0
v -480 -608 0
v -512 -608 0
v -512 -576 0
v -480 -576 0
v -512 -608 0
v -544 -608 0
v -544 -576 0
v -512 -576 0
v -544 -608 0
v -576 -608 0
v -576 -576 0
v -544 -576 0
v -576 -608 0
v -608 -608 0
v -608 -576 0
v -576 -576 0
v -640 -608 0
v -672 -608 0
v -672 -576 0
v -640 -576 0
v -672 -608 0
v -704 -608 0
v -704 -576 0
v -672 -576 0
v -704 -608 0
v -736 -608 0
v -736 -576 0
v -704 -576 0
v -800 -608 0
v -832 -608 0
v -832 -576 0
v -800 -576 0
v -832 -608 0
v -864 -608 0
v -864 -576 0
v -832 -576 0
v -864 -608 0
v -896 -608 0
v -896 -576 0
v -864 -576 0
v -960 -608 0
v -992 -608 0
v -992 -576 0
v -960 -576 0
v -992 -608 0
v -1024 -608 0
v -1024 -576 0
v -992 -576 0
v -1024 -608 0
v -1056 -608 0
v -1056 -576 0
v -1024 -576 0
v -32 -640 0
v -64 -640 0
v -64 -608 0
v -32 -608 0
v -64 -640 0
v -96 -640 0
v -96 -608 0
v -64 -608 0
v -96 -640 0
v -128 -640 0
v -128 -608 0
v -96 -608 0
v -160 -640 0
v -192 -640 0
v -192 -608 0
v -160 -608 0
v -192 -640 0
v -224 -640 0
v -224 -608 0
v -192 -608 0
v -224 -640 0
v -256 -640 0
v -256 -608 0
v -224 -608 0
v -416 -640 0
v -448 -640 0
v -448 -608 0
v -416 -608 0
v -448 -640 0
v -480 -640 0
v -480 -608 0
v -448 -608 0
v -480 -640 0
v -512 -640 0
v -512 -608 0
v -480 -608 0
v -640 -640 0
v -672 -640 0
v -672 -608 0
v -640 -608 0
v -672 -640 0
v -704 -640 0
v -704 -608 0
v -672 -608 0
v -704 -640 0
v -736 -640 0
v -736 -608 0
v -704 -608 0
v -800 -640 0
v -832 -640 0
v -832 -608 0
v -800 -608 0
v -832 -640 0
v -864 -640 0
v -864 -608 0
v -832 -608 0
v -864 -640 0
v -896 -640 0
v -896 -608 0
v -864 -608 0
v -32 -672 0
v -64 -672 0
v -64 -640 0
v -32 -640 0
v -64 -672 0
v -96 -672 0
v -96 -640 0
v -64 -640 0
v -96 -672 0
v -128 -672 0
v -128 -640 0
v -96 -640 0
v -160 -672 0
v -192 -672 0
v -192 -640 0
v -160 -640 0
v -192 -672 0
v -224 -672 0
v -224 -640 0
v -192 -640 0
v -224 -672 0
v -256 -672 0
v -256 -640 0
v -224 -640 0
v -256 -672 0
v -288 -672 0
v -288 -640 0
v -256 -640 0
v -288 -672 0
v -320 -672 0
v -320 -640 0
v -288 -640 0
v -320 -672 0
v -352 -672 0
v -352 -640 0
v -320 -640 0
v -416 -672 0
v -448 -672 0
v -448 -640 0
v -416 -640 0
v -448 -672 0
v -480 -672 0
v -480 -640 0
v -448 -640 0
v -480 -672 0
v -512 -672 0
v -512 -640 0
v -480 -640 0
v -640 -672 0
v -672 -672 0
v -672 -640 0
v -640 -640 0
v -672 -672 0
v -704 -672 0
v -704 -640 0
v -672 -640 0
v -704 -672 0
v -736 -672 0
v -736 -640 0
v -704 -640 0
v -256 -704 0
v -288 -704 0
v -288 -672 0
v -256 -672 0
v -288 -704 0
v -320 -704 0
v -320 -672 0
v -288 -672 0
v -320 -704 0
v -352 -704 0
v -352 -672 0
v -320 -672 0
v -64 -736 0
v -96 -736 0
v -96 -704 0
v -64 -704 0
v -96 -736 0
v -128 -736 0
v -128 -704 0
v -96 -704 0
v -128 -736 0
v -160 -736 0
v -160 -704 0
v -128 -704 0
v -256 -736 0
v -288 -736 0
v -288 -704 0
v -256 -704 0
v -288 -736 0
v -320 -736 0
v -320 -704 0
v -288 -704 0
v -320 -736 0
v -352 -736 0
v -352 -704 0
v -320 -704 0
v -64 -768 0
v -96 -768 0
v -96 -736 0
v -64 -736 0
v -96 -768 0
v -128 -768 0
v -128 -736 0
v -96 -736 0
v -128 -768 0
v -160 -768 0
v -160 -736 0
v -128 -736 0
v -64 -800 0
v -96 -800 0
v -96 -768 0
v -64 -768 0
v -96 -800 0
v -128 -800 0
v -128 -768 0
v -96 -768 0
v -128 -800 0
v -160 -800 0
v -160 -768 0
v -128 -768 0

# Texture cooridinates (Count = 28)
vt 0.4615385 0.6153846
vt 0.5384616 0.6153846
vt 0.5384616 0.6923077
vt 0.4615385 0.6923077
vt 0.6153846 0.6153846
vt 0.6153846 0.6923077
vt 0.6923077 0.6153846
vt 0.6923077 0.6923077
vt 0.4615385 0.5384616
vt 0.5384616 0.5384616
vt 0.6153846 0.5384616
vt 0.6923077 0.5384616
vt 0.4615385 0.4615384
vt 0.5384616 0.4615384
vt 0.6153846 0.4615384
vt 0.6923077 0.4615384
vt 0.2307692 0.6153846
vt 0.3076923 0.6153846
vt 0.3076923 0.6923077
vt 0.2307692 0.6923077
vt 0.3846154 0.6153846
vt 0.3846154 0.6923077
vt 0.2307692 0.5384616
vt 0.3076923 0.5384616
vt 0.3846154 0.5384616
vt 0.2307692 0.4615384
vt 0.3076923 0.4615384
vt 0.3846154 0.4615384

# Normal
vn 0 0 -1

# Mesh description
g forest_mesh_0005

# Faces
f 1/1/1 2/2/1 3/3/1 4/4/1
f 5/2/1 6/5/1 7/6/1 8/3/1
f 9/5/1 10/7/1 11/8/1 12/6/1
f 13/9/1 14/10/1 15/2/1 16/1/1
f 17/10/1 18/11/1 19/5/1 20/2/1
f 21/11/1 22/12/1 23/7/1 24/5/1
f 25/1/1 26/2/1 27/3/1 28/4/1
f 29/2/1 30/5/1 31/6/1 32/3/1
f 33/5/1 34/7/1 35/8/1 36/6/1
f 37/13/1 38/14/1 39/10/1 40/9/1
f 41/14/1 42/15/1 43/11/1 44/10/1
f 45/15/1 46/16/1 47/12/1 48/11/1
f 49/9/1 50/10/1 51/2/1 52/1/1
f 53/10/1 54/11/1 55/5/1 56/2/1
f 57/11/1 58/12/1 59/7/1 60/5/1
f 61/1/1 62/2/1 63/3/1 64/4/1
f 65/2/1 66/5/1 67/6/1 68/3/1
f 69/5/1 70/7/1 71/8/1 72/6/1
f 73/1/1 74/2/1 75/3/1 76/4/1
f 77/2/1 78/5/1 79/6/1 80/3/1
f 81/5/1 82/7/1 83/8/1 84/6/1
f 85/1/1 86/2/1 87/3/1 88/4/1
f 89/2/1 90/5/1 91/6/1 92/3/1
f 93/5/1 94/7/1 95/8/1 96/6/1
f 97/17/1 98/18/1 99/19/1 100/20/1
f 101/18/1 102/21/1 103/22/1 104/19/1
f 105/21/1 106/1/1 107/4/1 108/22/1
f 109/13/1 110/14/1 111/10/1 112/9/1
f 113/14/1 114/15/1 115/11/1 116/10/1
f 117/15/1 118/16/1 119/12/1 120/11/1
f 121/9/1 122/10/1 123/2/1 124/1/1
f 125/10/1 126/11/1 127/5/1 128/2/1
f 129/11/1 130/12/1 131/7/1 132/5/1
f 133/9/1 134/10/1 135/2/1 136/1/1
f 137/10/1 138/11/1 139/5/1 140/2/1
f 141/11/1 142/12/1 143/7/1 144/5/1
f 145/17/1 146/18/1 147/19/1 148/20/1
f 149/18/1 150/21/1 151/22/1 152/19/1
f 153/21/1 154/1/1 155/4/1 156/22/1
f 157/9/1 158/10/1 159/2/1 160/1/1
f 161/10/1 162/11/1 163/5/1 164/2/1
f 165/11/1 166/12/1 167/7/1 168/5/1
f 169/23/1 170/24/1 171/18/1 172/17/1
f 173/24/1 174/25/1 175/21/1 176/18/1
f 177/25/1 178/9/1 179/1/1 180/21/1
f 181/13/1 182/14/1 183/10/1 184/9/1
f 185/14/1 186/15/1 187/11/1 188/10/1
f 189/15/1 190/16/1 191/12/1 192/11/1
f 193/13/1 194/14/1 195/10/1 196/9/1
f 197/14/1 198/15/1 199/11/1 200/10/1
f 201/15/1 202/16/1 203/12/1 204/11/1
f 205/1/1 206/2/1 207/3/1 208/4/1
f 209/2/1 210/5/1 211/6/1 212/3/1
f 213/5/1 214/7/1 215/8/1 216/6/1
f 217/23/1 218/24/1 219/18/1 220/17/1
f 221/24/1 222/25/1 223/21/1 224/18/1
f 225/25/1 226/9/1 227/1/1 228/21/1
f 229/13/1 230/14/1 231/10/1 232/9/1
f 233/14/1 234/15/1 235/11/1 236/10/1
f 237/15/1 238/16/1 239/12/1 240/11/1
f 241/26/1 242/27/1 243/24/1 244/23/1
f 245/27/1 246/28/1 247/25/1 248/24/1
f 249/28/1 250/13/1 251/9/1 252/25/1
f 253/17/1 254/18/1 255/19/1 256/20/1
f 257/18/1 258/21/1 259/22/1 260/19/1
f 261/21/1 262/1/1 263/4/1 264/22/1
f 265/9/1 266/10/1 267/2/1 268/1/1
f 269/10/1 270/11/1 271/5/1 272/2/1
f 273/11/1 274/12/1 275/7/1 276/5/1
f 277/26/1 278/27/1 279/24/1 280/23/1
f 281/27/1 282/28/1 283/25/1 284/24/1
f 285/28/1 286/13/1 287/9/1 288/25/1
f 289/17/1 290/18/1 291/19/1 292/20/1
f 293/18/1 294/21/1 295/22/1 296/19/1
f 297/21/1 298/1/1 299/4/1 300/22/1
f 301/17/1 302/18/1 303/19/1 304/20/1
f 305/18/1 306/21/1 307/22/1 308/19/1
f 309/21/1 310/1/1 311/4/1 312/22/1
f 313/23/1 314/24/1 315/18/1 316/17/1
f 317/24/1 318/25/1 319/21/1 320/18/1
f 321/25/1 322/9/1 323/1/1 324/21/1
f 325/13/1 326/14/1 327/10/1 328/9/1
f 329/14/1 330/15/1 331/11/1 332/10/1
f 333/15/1 334/16/1 335/12/1 336/11/1
f 337/17/1 338/18/1 339/19/1 340/20/1
f 341/18/1 342/21/1 343/22/1 344/19/1
f 345/21/1 346/1/1 347/4/1 348/22/1
f 349/23/1 350/24/1 351/18/1 352/17/1
f 353/24/1 354/25/1 355/21/1 356/18/1
f 357/25/1 358/9/1 359/1/1 360/21/1
f 361/23/1 362/24/1 363/18/1 364/17/1
f 365/24/1 366/25/1 367/21/1 368/18/1
f 369/25/1 370/9/1 371/1/1 372/21/1
f 373/26/1 374/27/1 375/24/1 376/23/1
f 377/27/1 378/28/1 379/25/1 380/24/1
f 381/28/1 382/13/1 383/9/1 384/25/1
f 385/23/1 386/24/1 387/18/1 388/17/1
f 389/24/1 390/25/1 391/21/1 392/18/1
f 393/25/1 394/9/1 395/1/1 396/21/1
f 397/26/1 398/27/1 399/24/1 400/23/1
f 401/27/1 402/28/1 403/25/1 404/24/1
f 405/28/1 406/13/1 407/9/1 408/25/1
f 409/26/1 410/27/1 411/24/1 412/23/1
f 413/27/1 414/28/1 415/25/1 416/24/1
f 417/28/1 418/13/1 419/9/1 420/25/1
f 421/26/1 422/27/1 423/24/1 424/23/1
f 425/27/1 426/28/1 427/25/1 428/24/1
f 429/28/1 430/13/1 431/9/1 432/25/1
f 433/17/1 434/18/1 435/19/1 436/20/1
f 437/18/1 438/21/1 439/22/1 440/19/1
f 441/21/1 442/1/1 443/4/1 444/22/1
f 445/23/1 446/24/1 447/18/1 448/17/1
f 449/24/1 450/25/1 451/21/1 452/18/1
f 453/25/1 454/9/1 455/1/1 456/21/1
f 457/17/1 458/18/1 459/19/1 460/20/1
f 461/18/1 462/21/1 463/22/1 464/19/1
f 465/21/1 466/1/1 467/4/1 468/22/1
f 469/17/1 470/18/1 471/19/1 472/20/1
f 473/18/1 474/21/1 475/22/1 476/19/1
f 477/21/1 478/1/1 479/4/1 480/22/1
f 481/1/1 482/2/1 483/3/1 484/4/1
f 485/2/1 486/5/1 487/6/1 488/3/1
f 489/5/1 490/7/1 491/8/1 492/6/1
f 493/26/1 494/27/1 495/24/1 496/23/1
f 497/27/1 498/28/1 499/25/1 500/24/1
f 501/28/1 502/13/1 503/9/1 504/25/1
f 505/23/1 506/24/1 507/18/1 508/17/1
f 509/24/1 510/25/1 511/21/1 512/18/1
f 513/25/1 514/9/1 515/1/1 516/21/1
f 517/23/1 518/24/1 519/18/1 520/17/1
f 521/24/1 522/25/1 523/21/1 524/18/1
f 525/25/1 526/9/1 527/1/1 528/21/1
f 529/17/1 530/18/1 531/19/1 532/20/1
f 533/18/1 534/21/1 535/22/1 536/19/1
f 537/21/1 538/1/1 539/4/1 540/22/1
f 541/9/1 542/10/1 543/2/1 544/1/1
f 545/10/1 546/11/1 547/5/1 548/2/1
f 549/11/1 550/12/1 551/7/1 552/5/1
f 553/17/1 554/18/1 555/19/1 556/20/1
f 557/18/1 558/21/1 559/22/1 560/19/1
f 561/21/1 562/1/1 563/4/1 564/22/1
f 565/17/1 566/18/1 567/19/1 568/20/1
f 569/18/1 570/21/1 571/22/1 572/19/1
f 573/21/1 574/1/1 575/4/1 576/22/1
f 577/26/1 578/27/1 579/24/1 580/23/1
f 581/27/1 582/28/1 583/25/1 584/24/1
f 585/28/1 586/13/1 587/9/1 588/25/1
f 589/1/1 590/2/1 591/3/1 592/4/1
f 593/2/1 594/5/1 595/6/1 596/3/1
f 597/5/1 598/7/1 599/8/1 600/6/1
f 601/26/1 602/27/1 603/24/1 604/23/1
f 605/27/1 606/28/1 607/25/1 608/24/1
f 609/28/1 610/13/1 611/9/1 612/25/1
f 613/1/1 614/2/1 615/3/1 616/4/1
f 617/2/1 618/5/1 619/6/1 620/3/1
f 621/5/1 622/7/1 623/8/1 624/6/1
f 625/23/1 626/24/1 627/18/1 628/17/1
f 629/24/1 630/25/1 631/21/1 632/18/1
f 633/25/1 634/9/1 635/1/1 636/21/1
f 637/13/1 638/14/1 639/10/1 640/9/1
f 641/14/1 642/15/1 643/11/1 644/10/1
f 645/15/1 646/16/1 647/12/1 648/11/1
f 649/23/1 650/24/1 651/18/1 652/17/1
f 653/24/1 654/25/1 655/21/1 656/18/1
f 657/25/1 658/9/1 659/1/1 660/21/1
f 661/23/1 662/24/1 663/18/1 664/17/1
f 665/24/1 666/25/1 667/21/1 668/18/1
f 669/25/1 670/9/1 671/1/1 672/21/1
f 673/9/1 674/10/1 675/2/1 676/1/1
f 677/10/1 678/11/1 679/5/1 680/2/1
f 681/11/1 682/12/1 683/7/1 684/5/1
f 685/9/1 686/10/1 687/2/1 688/1/1
f 689/10/1 690/11/1 691/5/1 692/2/1
f 693/11/1 694/12/1 695/7/1 696/5/1
f 697/26/1 698/27/1 699/24/1 700/23/1
f 701/27/1 702/28/1 703/25/1 704/24/1
f 705/28/1 706/13/1 707/9/1 708/25/1
f 709/26/1 710/27/1 711/24/1 712/23/1
f 713/27/1 714/28/1 715/25/1 716/24/1
f 717/28/1 718/13/1 719/9/1 720/25/1
f 721/26/1 722/27/1 723/24/1 724/23/1
f 725/27/1 726/28/1 727/25/1 728/24/1
f 729/28/1 730/13/1 731/9/1 732/25/1
f 733/1/1 734/2/1 735/3/1 736/4/1
f 737/2/1 738/5/1 739/6/1 740/3/1
f 741/5/1 742/7/1 743/8/1 744/6/1
f 745/13/1 746/14/1 747/10/1 748/9/1
f 749/14/1 750/15/1 751/11/1 752/10/1
f 753/15/1 754/16/1 755/12/1 756/11/1
f 757/13/1 758/14/1 759/10/1 760/9/1
f 761/14/1 762/15/1 763/11/1 764/10/1
f 765/15/1 766/16/1 767/12/1 768/11/1
f 769/9/1 770/10/1 771/2/1 772/1/1
f 773/10/1 774/11/1 775/5/1 776/2/1
f 777/11/1 778/12/1 779/7/1 780/5/1
f 781/1/1 782/2/1 783/3/1 784/4/1
f 785/2/1 786/5/1 787/6/1 788/3/1
f 789/5/1 790/7/1 791/8/1 792/6/1
f 793/13/1 794/14/1 795/10/1 796/9/1
f 797/14/1 798/15/1 799/11/1 800/10/1
f 801/15/1 802/16/1 803/12/1 804/11/1
f 805/9/1 806/10/1 807/2/1 808/1/1
f 809/10/1 810/11/1 811/5/1 812/2/1
f 813/11/1 814/12/1 815/7/1 816/5/1
f 817/13/1 818/14/1 819/10/1 820/9/1
f 821/14/1 822/15/1 823/11/1 824/10/1
f 825/15/1 826/16/1 827/12/1 828/11/1

