# Tiled2Unity generated file. Do not modify by hand.
# Wavefront file for 'forest333_mesh_0002.obj'

# Vertices (Count = 556)
v -112000 -35200 0
v -115200 -35200 0
v -115200 -32000 0
v -112000 -32000 0
v -115200 -35200 0
v -118400 -35200 0
v -118400 -32000 0
v -115200 -32000 0
v -118400 -35200 0
v -121600 -35200 0
v -121600 -32000 0
v -118400 -32000 0
v -121600 -35200 0
v -124800 -35200 0
v -124800 -32000 0
v -121600 -32000 0
v -124800 -35200 0
v -128000 -35200 0
v -128000 -32000 0
v -124800 -32000 0
v -105600 -38400 0
v -108800 -38400 0
v -108800 -35200 0
v -105600 -35200 0
v -108800 -38400 0
v -112000 -38400 0
v -112000 -35200 0
v -108800 -35200 0
v -112000 -38400 0
v -115200 -38400 0
v -115200 -35200 0
v -112000 -35200 0
v -115200 -38400 0
v -118400 -38400 0
v -118400 -35200 0
v -115200 -35200 0
v -118400 -38400 0
v -121600 -38400 0
v -121600 -35200 0
v -118400 -35200 0
v -121600 -38400 0
v -124800 -38400 0
v -124800 -35200 0
v -121600 -35200 0
v -124800 -38400 0
v -128000 -38400 0
v -128000 -35200 0
v -124800 -35200 0
v -99200 -41600 0
v -102400 -41600 0
v -102400 -38400 0
v -99200 -38400 0
v -102400 -41600 0
v -105600 -41600 0
v -105600 -38400 0
v -102400 -38400 0
v -105600 -41600 0
v -108800 -41600 0
v -108800 -38400 0
v -105600 -38400 0
v -108800 -41600 0
v -112000 -41600 0
v -112000 -38400 0
v -108800 -38400 0
v -112000 -41600 0
v -115200 -41600 0
v -115200 -38400 0
v -112000 -38400 0
v -115200 -41600 0
v -118400 -41600 0
v -118400 -38400 0
v -115200 -38400 0
v -118400 -41600 0
v -121600 -41600 0
v -121600 -38400 0
v -118400 -38400 0
v -121600 -41600 0
v -124800 -41600 0
v -124800 -38400 0
v -121600 -38400 0
v -124800 -41600 0
v -128000 -41600 0
v -128000 -38400 0
v -124800 -38400 0
v -32000 -44800 0
v -35200 -44800 0
v -35200 -41600 0
v -32000 -41600 0
v -35200 -44800 0
v -38400 -44800 0
v -38400 -41600 0
v -35200 -41600 0
v -38400 -44800 0
v -41600 -44800 0
v -41600 -41600 0
v -38400 -41600 0
v -41600 -44800 0
v -44800 -44800 0
v -44800 -41600 0
v -41600 -41600 0
v -44800 -44800 0
v -48000 -44800 0
v -48000 -41600 0
v -44800 -41600 0
v -48000 -44800 0
v -51200 -44800 0
v -51200 -41600 0
v -48000 -41600 0
v -51200 -44800 0
v -54400 -44800 0
v -54400 -41600 0
v -51200 -41600 0
v -54400 -44800 0
v -57600 -44800 0
v -57600 -41600 0
v -54400 -41600 0
v -57600 -44800 0
v -60800 -44800 0
v -60800 -41600 0
v -57600 -41600 0
v -60800 -44800 0
v -64000 -44800 0
v -64000 -41600 0
v -60800 -41600 0
v -64000 -44800 0
v -67200 -44800 0
v -67200 -41600 0
v -64000 -41600 0
v -67200 -44800 0
v -70400 -44800 0
v -70400 -41600 0
v -67200 -41600 0
v -70400 -44800 0
v -73600 -44800 0
v -73600 -41600 0
v -70400 -41600 0
v -73600 -44800 0
v -76800 -44800 0
v -76800 -41600 0
v -73600 -41600 0
v -76800 -44800 0
v -80000 -44800 0
v -80000 -41600 0
v -76800 -41600 0
v -80000 -44800 0
v -83200 -44800 0
v -83200 -41600 0
v -80000 -41600 0
v -83200 -44800 0
v -86400 -44800 0
v -86400 -41600 0
v -83200 -41600 0
v -86400 -44800 0
v -89600 -44800 0
v -89600 -41600 0
v -86400 -41600 0
v -89600 -44800 0
v -92800 -44800 0
v -92800 -41600 0
v -89600 -41600 0
v -92800 -44800 0
v -96000 -44800 0
v -96000 -41600 0
v -92800 -41600 0
v -96000 -44800 0
v -99200 -44800 0
v -99200 -41600 0
v -96000 -41600 0
v -99200 -44800 0
v -102400 -44800 0
v -102400 -41600 0
v -99200 -41600 0
v -102400 -44800 0
v -105600 -44800 0
v -105600 -41600 0
v -102400 -41600 0
v -105600 -44800 0
v -108800 -44800 0
v -108800 -41600 0
v -105600 -41600 0
v -108800 -44800 0
v -112000 -44800 0
v -112000 -41600 0
v -108800 -41600 0
v -112000 -44800 0
v -115200 -44800 0
v -115200 -41600 0
v -112000 -41600 0
v -115200 -44800 0
v -118400 -44800 0
v -118400 -41600 0
v -115200 -41600 0
v -118400 -44800 0
v -121600 -44800 0
v -121600 -41600 0
v -118400 -41600 0
v -25600 -48000 0
v -28800 -48000 0
v -28800 -44800 0
v -25600 -44800 0
v -28800 -48000 0
v -32000 -48000 0
v -32000 -44800 0
v -28800 -44800 0
v -32000 -48000 0
v -35200 -48000 0
v -35200 -44800 0
v -32000 -44800 0
v -35200 -48000 0
v -38400 -48000 0
v -38400 -44800 0
v -35200 -44800 0
v -38400 -48000 0
v -41600 -48000 0
v -41600 -44800 0
v -38400 -44800 0
v -41600 -48000 0
v -44800 -48000 0
v -44800 -44800 0
v -41600 -44800 0
v -44800 -48000 0
v -48000 -48000 0
v -48000 -44800 0
v -44800 -44800 0
v -48000 -48000 0
v -51200 -48000 0
v -51200 -44800 0
v -48000 -44800 0
v -51200 -48000 0
v -54400 -48000 0
v -54400 -44800 0
v -51200 -44800 0
v -54400 -48000 0
v -57600 -48000 0
v -57600 -44800 0
v -54400 -44800 0
v -57600 -48000 0
v -60800 -48000 0
v -60800 -44800 0
v -57600 -44800 0
v -60800 -48000 0
v -64000 -48000 0
v -64000 -44800 0
v -60800 -44800 0
v -64000 -48000 0
v -67200 -48000 0
v -67200 -44800 0
v -64000 -44800 0
v -67200 -48000 0
v -70400 -48000 0
v -70400 -44800 0
v -67200 -44800 0
v -70400 -48000 0
v -73600 -48000 0
v -73600 -44800 0
v -70400 -44800 0
v -73600 -48000 0
v -76800 -48000 0
v -76800 -44800 0
v -73600 -44800 0
v -76800 -48000 0
v -80000 -48000 0
v -80000 -44800 0
v -76800 -44800 0
v -80000 -48000 0
v -83200 -48000 0
v -83200 -44800 0
v -80000 -44800 0
v -83200 -48000 0
v -86400 -48000 0
v -86400 -44800 0
v -83200 -44800 0
v -86400 -48000 0
v -89600 -48000 0
v -89600 -44800 0
v -86400 -44800 0
v -89600 -48000 0
v -92800 -48000 0
v -92800 -44800 0
v -89600 -44800 0
v -92800 -48000 0
v -96000 -48000 0
v -96000 -44800 0
v -92800 -44800 0
v -96000 -48000 0
v -99200 -48000 0
v -99200 -44800 0
v -96000 -44800 0
v -99200 -48000 0
v -102400 -48000 0
v -102400 -44800 0
v -99200 -44800 0
v -102400 -48000 0
v -105600 -48000 0
v -105600 -44800 0
v -102400 -44800 0
v -105600 -48000 0
v -108800 -48000 0
v -108800 -44800 0
v -105600 -44800 0
v -108800 -48000 0
v -112000 -48000 0
v -112000 -44800 0
v -108800 -44800 0
v -112000 -48000 0
v -115200 -48000 0
v -115200 -44800 0
v -112000 -44800 0
v -16000 -51200 0
v -19200 -51200 0
v -19200 -48000 0
v -16000 -48000 0
v -19200 -51200 0
v -22400 -51200 0
v -22400 -48000 0
v -19200 -48000 0
v -22400 -51200 0
v -25600 -51200 0
v -25600 -48000 0
v -22400 -48000 0
v -25600 -51200 0
v -28800 -51200 0
v -28800 -48000 0
v -25600 -48000 0
v -28800 -51200 0
v -32000 -51200 0
v -32000 -48000 0
v -28800 -48000 0
v -32000 -51200 0
v -35200 -51200 0
v -35200 -48000 0
v -32000 -48000 0
v -35200 -51200 0
v -38400 -51200 0
v -38400 -48000 0
v -35200 -48000 0
v -38400 -51200 0
v -41600 -51200 0
v -41600 -48000 0
v -38400 -48000 0
v -41600 -51200 0
v -44800 -51200 0
v -44800 -48000 0
v -41600 -48000 0
v -44800 -51200 0
v -48000 -51200 0
v -48000 -48000 0
v -44800 -48000 0
v -48000 -51200 0
v -51200 -51200 0
v -51200 -48000 0
v -48000 -48000 0
v -51200 -51200 0
v -54400 -51200 0
v -54400 -48000 0
v -51200 -48000 0
v -54400 -51200 0
v -57600 -51200 0
v -57600 -48000 0
v -54400 -48000 0
v -57600 -51200 0
v -60800 -51200 0
v -60800 -48000 0
v -57600 -48000 0
v -60800 -51200 0
v -64000 -51200 0
v -64000 -48000 0
v -60800 -48000 0
v -64000 -51200 0
v -67200 -51200 0
v -67200 -48000 0
v -64000 -48000 0
v -67200 -51200 0
v -70400 -51200 0
v -70400 -48000 0
v -67200 -48000 0
v -70400 -51200 0
v -73600 -51200 0
v -73600 -48000 0
v -70400 -48000 0
v -73600 -51200 0
v -76800 -51200 0
v -76800 -48000 0
v -73600 -48000 0
v -76800 -51200 0
v -80000 -51200 0
v -80000 -48000 0
v -76800 -48000 0
v -80000 -51200 0
v -83200 -51200 0
v -83200 -48000 0
v -80000 -48000 0
v -83200 -51200 0
v -86400 -51200 0
v -86400 -48000 0
v -83200 -48000 0
v -86400 -51200 0
v -89600 -51200 0
v -89600 -48000 0
v -86400 -48000 0
v -89600 -51200 0
v -92800 -51200 0
v -92800 -48000 0
v -89600 -48000 0
v -92800 -51200 0
v -96000 -51200 0
v -96000 -48000 0
v -92800 -48000 0
v -96000 -51200 0
v -99200 -51200 0
v -99200 -48000 0
v -96000 -48000 0
v -99200 -51200 0
v -102400 -51200 0
v -102400 -48000 0
v -99200 -48000 0
v -102400 -51200 0
v -105600 -51200 0
v -105600 -48000 0
v -102400 -48000 0
v -12800 -54400 0
v -16000 -54400 0
v -16000 -51200 0
v -12800 -51200 0
v -16000 -54400 0
v -19200 -54400 0
v -19200 -51200 0
v -16000 -51200 0
v -19200 -54400 0
v -22400 -54400 0
v -22400 -51200 0
v -19200 -51200 0
v -22400 -54400 0
v -25600 -54400 0
v -25600 -51200 0
v -22400 -51200 0
v -25600 -54400 0
v -28800 -54400 0
v -28800 -51200 0
v -25600 -51200 0
v -28800 -54400 0
v -32000 -54400 0
v -32000 -51200 0
v -28800 -51200 0
v -32000 -54400 0
v -35200 -54400 0
v -35200 -51200 0
v -32000 -51200 0
v -35200 -54400 0
v -38400 -54400 0
v -38400 -51200 0
v -35200 -51200 0
v -38400 -54400 0
v -41600 -54400 0
v -41600 -51200 0
v -38400 -51200 0
v 0 -57600 0
v -3200 -57600 0
v -3200 -54400 0
v 0 -54400 0
v -3200 -57600 0
v -6400 -57600 0
v -6400 -54400 0
v -3200 -54400 0
v -6400 -57600 0
v -9600 -57600 0
v -9600 -54400 0
v -6400 -54400 0
v -9600 -57600 0
v -12800 -57600 0
v -12800 -54400 0
v -9600 -54400 0
v -12800 -57600 0
v -16000 -57600 0
v -16000 -54400 0
v -12800 -54400 0
v -16000 -57600 0
v -19200 -57600 0
v -19200 -54400 0
v -16000 -54400 0
v -19200 -57600 0
v -22400 -57600 0
v -22400 -54400 0
v -19200 -54400 0
v -22400 -57600 0
v -25600 -57600 0
v -25600 -54400 0
v -22400 -54400 0
v -25600 -57600 0
v -28800 -57600 0
v -28800 -54400 0
v -25600 -54400 0
v -28800 -57600 0
v -32000 -57600 0
v -32000 -54400 0
v -28800 -54400 0
v -32000 -57600 0
v -35200 -57600 0
v -35200 -54400 0
v -32000 -54400 0
v 0 -60800 0
v -3200 -60800 0
v -3200 -57600 0
v 0 -57600 0
v -3200 -60800 0
v -6400 -60800 0
v -6400 -57600 0
v -3200 -57600 0
v -6400 -60800 0
v -9600 -60800 0
v -9600 -57600 0
v -6400 -57600 0
v -9600 -60800 0
v -12800 -60800 0
v -12800 -57600 0
v -9600 -57600 0
v -12800 -60800 0
v -16000 -60800 0
v -16000 -57600 0
v -12800 -57600 0
v -16000 -60800 0
v -19200 -60800 0
v -19200 -57600 0
v -16000 -57600 0
v -19200 -60800 0
v -22400 -60800 0
v -22400 -57600 0
v -19200 -57600 0
v -22400 -60800 0
v -25600 -60800 0
v -25600 -57600 0
v -22400 -57600 0
v 0 -64000 0
v -3200 -64000 0
v -3200 -60800 0
v 0 -60800 0
v -3200 -64000 0
v -6400 -64000 0
v -6400 -60800 0
v -3200 -60800 0
v -6400 -64000 0
v -9600 -64000 0
v -9600 -60800 0
v -6400 -60800 0
v -9600 -64000 0
v -12800 -64000 0
v -12800 -60800 0
v -9600 -60800 0
v -12800 -64000 0
v -16000 -64000 0
v -16000 -60800 0
v -12800 -60800 0
v -16000 -64000 0
v -19200 -64000 0
v -19200 -60800 0
v -16000 -60800 0

# Texture cooridinates (Count = 18)
vt 0 0.5
vt 0.3333333 0.5
vt 0.3333333 0.6666666
vt 0 0.6666666
vt 0.6666667 0.5
vt 0.6666667 0.6666666
vt 1 0.6666666
vt 1 0.8333333
vt 0.6666667 0.8333333
vt 0.3333333 0.3333333
vt 0.6666667 0.3333333
vt 0.3333333 0.8333333
vt 0.6666667 1
vt 0.3333333 1
vt 0.3333333 0.1666667
vt 0.6666667 0.1666667
vt 1 0.1666667
vt 1 0.3333333

# Normal
vn 0 0 -1

# Mesh description
g forest333_mesh_0002

# Faces
f 1/1/1 2/2/1 3/3/1 4/4/1
f 5/2/1 6/5/1 7/6/1 8/3/1
f 9/2/1 10/5/1 11/6/1 12/3/1
f 13/2/1 14/5/1 15/6/1 16/3/1
f 17/2/1 18/5/1 19/6/1 20/3/1
f 21/1/1 22/2/1 23/3/1 24/4/1
f 25/2/1 26/5/1 27/6/1 28/3/1
f 29/6/1 30/7/1 31/8/1 32/9/1
f 33/10/1 34/11/1 35/5/1 36/2/1
f 37/10/1 38/11/1 39/5/1 40/2/1
f 41/10/1 42/11/1 43/5/1 44/2/1
f 45/10/1 46/11/1 47/5/1 48/2/1
f 49/1/1 50/2/1 51/3/1 52/4/1
f 53/2/1 54/5/1 55/6/1 56/3/1
f 57/6/1 58/7/1 59/8/1 60/9/1
f 61/10/1 62/11/1 63/5/1 64/2/1
f 65/10/1 66/11/1 67/5/1 68/2/1
f 69/10/1 70/11/1 71/5/1 72/2/1
f 73/12/1 74/9/1 75/13/1 76/14/1
f 77/15/1 78/16/1 79/11/1 80/10/1
f 81/15/1 82/16/1 83/11/1 84/10/1
f 85/1/1 86/2/1 87/3/1 88/4/1
f 89/2/1 90/5/1 91/6/1 92/3/1
f 93/2/1 94/5/1 95/6/1 96/3/1
f 97/2/1 98/5/1 99/6/1 100/3/1
f 101/2/1 102/5/1 103/6/1 104/3/1
f 105/2/1 106/5/1 107/6/1 108/3/1
f 109/2/1 110/5/1 111/6/1 112/3/1
f 113/2/1 114/5/1 115/6/1 116/3/1
f 117/2/1 118/5/1 119/6/1 120/3/1
f 121/2/1 122/5/1 123/6/1 124/3/1
f 125/2/1 126/5/1 127/6/1 128/3/1
f 129/2/1 130/5/1 131/6/1 132/3/1
f 133/2/1 134/5/1 135/6/1 136/3/1
f 137/2/1 138/5/1 139/6/1 140/3/1
f 141/2/1 142/5/1 143/6/1 144/3/1
f 145/2/1 146/5/1 147/6/1 148/3/1
f 149/2/1 150/5/1 151/6/1 152/3/1
f 153/2/1 154/5/1 155/6/1 156/3/1
f 157/2/1 158/5/1 159/6/1 160/3/1
f 161/2/1 162/5/1 163/6/1 164/3/1
f 165/2/1 166/5/1 167/6/1 168/3/1
f 169/6/1 170/7/1 171/8/1 172/9/1
f 173/10/1 174/11/1 175/5/1 176/2/1
f 177/10/1 178/11/1 179/5/1 180/2/1
f 181/10/1 182/11/1 183/5/1 184/2/1
f 185/12/1 186/9/1 187/13/1 188/14/1
f 189/15/1 190/16/1 191/11/1 192/10/1
f 193/16/1 194/17/1 195/18/1 196/11/1
f 197/1/1 198/2/1 199/3/1 200/4/1
f 201/2/1 202/5/1 203/6/1 204/3/1
f 205/6/1 206/7/1 207/8/1 208/9/1
f 209/10/1 210/11/1 211/5/1 212/2/1
f 213/10/1 214/11/1 215/5/1 216/2/1
f 217/10/1 218/11/1 219/5/1 220/2/1
f 221/10/1 222/11/1 223/5/1 224/2/1
f 225/10/1 226/11/1 227/5/1 228/2/1
f 229/10/1 230/11/1 231/5/1 232/2/1
f 233/10/1 234/11/1 235/5/1 236/2/1
f 237/10/1 238/11/1 239/5/1 240/2/1
f 241/10/1 242/11/1 243/5/1 244/2/1
f 245/10/1 246/11/1 247/5/1 248/2/1
f 249/10/1 250/11/1 251/5/1 252/2/1
f 253/10/1 254/11/1 255/5/1 256/2/1
f 257/10/1 258/11/1 259/5/1 260/2/1
f 261/10/1 262/11/1 263/5/1 264/2/1
f 265/10/1 266/11/1 267/5/1 268/2/1
f 269/10/1 270/11/1 271/5/1 272/2/1
f 273/10/1 274/11/1 275/5/1 276/2/1
f 277/10/1 278/11/1 279/5/1 280/2/1
f 281/10/1 282/11/1 283/5/1 284/2/1
f 285/10/1 286/11/1 287/5/1 288/2/1
f 289/10/1 290/11/1 291/5/1 292/2/1
f 293/12/1 294/9/1 295/13/1 296/14/1
f 297/15/1 298/16/1 299/11/1 300/10/1
f 301/15/1 302/16/1 303/11/1 304/10/1
f 305/16/1 306/17/1 307/18/1 308/11/1
f 309/1/1 310/2/1 311/3/1 312/4/1
f 313/2/1 314/5/1 315/6/1 316/3/1
f 317/2/1 318/5/1 319/6/1 320/3/1
f 321/6/1 322/7/1 323/8/1 324/9/1
f 325/10/1 326/11/1 327/5/1 328/2/1
f 329/10/1 330/11/1 331/5/1 332/2/1
f 333/10/1 334/11/1 335/5/1 336/2/1
f 337/12/1 338/9/1 339/13/1 340/14/1
f 341/15/1 342/16/1 343/11/1 344/10/1
f 345/15/1 346/16/1 347/11/1 348/10/1
f 349/15/1 350/16/1 351/11/1 352/10/1
f 353/15/1 354/16/1 355/11/1 356/10/1
f 357/15/1 358/16/1 359/11/1 360/10/1
f 361/15/1 362/16/1 363/11/1 364/10/1
f 365/15/1 366/16/1 367/11/1 368/10/1
f 369/15/1 370/16/1 371/11/1 372/10/1
f 373/15/1 374/16/1 375/11/1 376/10/1
f 377/15/1 378/16/1 379/11/1 380/10/1
f 381/15/1 382/16/1 383/11/1 384/10/1
f 385/15/1 386/16/1 387/11/1 388/10/1
f 389/15/1 390/16/1 391/11/1 392/10/1
f 393/15/1 394/16/1 395/11/1 396/10/1
f 397/15/1 398/16/1 399/11/1 400/10/1
f 401/15/1 402/16/1 403/11/1 404/10/1
f 405/15/1 406/16/1 407/11/1 408/10/1
f 409/15/1 410/16/1 411/11/1 412/10/1
f 413/15/1 414/16/1 415/11/1 416/10/1
f 417/16/1 418/17/1 419/18/1 420/11/1
f 421/1/1 422/2/1 423/3/1 424/4/1
f 425/6/1 426/7/1 427/8/1 428/9/1
f 429/10/1 430/11/1 431/5/1 432/2/1
f 433/10/1 434/11/1 435/5/1 436/2/1
f 437/10/1 438/11/1 439/5/1 440/2/1
f 441/10/1 442/11/1 443/5/1 444/2/1
f 445/12/1 446/9/1 447/13/1 448/14/1
f 449/15/1 450/16/1 451/11/1 452/10/1
f 453/16/1 454/17/1 455/18/1 456/11/1
f 457/2/1 458/5/1 459/6/1 460/3/1
f 461/2/1 462/5/1 463/6/1 464/3/1
f 465/2/1 466/5/1 467/6/1 468/3/1
f 469/2/1 470/5/1 471/6/1 472/3/1
f 473/6/1 474/7/1 475/8/1 476/9/1
f 477/10/1 478/11/1 479/5/1 480/2/1
f 481/10/1 482/11/1 483/5/1 484/2/1
f 485/12/1 486/9/1 487/13/1 488/14/1
f 489/15/1 490/16/1 491/11/1 492/10/1
f 493/15/1 494/16/1 495/11/1 496/10/1
f 497/16/1 498/17/1 499/18/1 500/11/1
f 501/10/1 502/11/1 503/5/1 504/2/1
f 505/10/1 506/11/1 507/5/1 508/2/1
f 509/10/1 510/11/1 511/5/1 512/2/1
f 513/10/1 514/11/1 515/5/1 516/2/1
f 517/10/1 518/11/1 519/5/1 520/2/1
f 521/12/1 522/9/1 523/13/1 524/14/1
f 525/15/1 526/16/1 527/11/1 528/10/1
f 529/16/1 530/17/1 531/18/1 532/11/1
f 533/15/1 534/16/1 535/11/1 536/10/1
f 537/15/1 538/16/1 539/11/1 540/10/1
f 541/15/1 542/16/1 543/11/1 544/10/1
f 545/15/1 546/16/1 547/11/1 548/10/1
f 549/15/1 550/16/1 551/11/1 552/10/1
f 553/16/1 554/17/1 555/18/1 556/11/1

