# Tiled2Unity generated file. Do not modify by hand.
# Wavefront file for 'roomInside_mesh_0005.obj'

# Vertices (Count = 104)
v -704 -160 0
v -736 -160 0
v -736 -128 0
v -704 -128 0
v -736 -160 0
v -768 -160 0
v -768 -128 0
v -736 -128 0
v -704 -192 0
v -736 -192 0
v -736 -160 0
v -704 -160 0
v -736 -192 0
v -768 -192 0
v -768 -160 0
v -736 -160 0
v -640 -224 0
v -672 -224 0
v -672 -192 0
v -640 -192 0
v -704 -224 0
v -736 -224 0
v -736 -192 0
v -704 -192 0
v -736 -224 0
v -768 -224 0
v -768 -192 0
v -736 -192 0
v -640 -256 0
v -672 -256 0
v -672 -224 0
v -640 -224 0
v -704 -256 0
v -736 -256 0
v -736 -224 0
v -704 -224 0
v -736 -256 0
v -768 -256 0
v -768 -224 0
v -736 -224 0
v -928 -256 0
v -960 -256 0
v -960 -224 0
v -928 -224 0
v -960 -256 0
v -992 -256 0
v -992 -224 0
v -960 -224 0
v -992 -256 0
v -1024 -256 0
v -1024 -224 0
v -992 -224 0
v -736 -288 0
v -768 -288 0
v -768 -256 0
v -736 -256 0
v -928 -288 0
v -960 -288 0
v -960 -256 0
v -928 -256 0
v -960 -288 0
v -992 -288 0
v -992 -256 0
v -960 -256 0
v -992 -288 0
v -1024 -288 0
v -1024 -256 0
v -992 -256 0
v -1056 -288 0
v -1088 -288 0
v -1088 -256 0
v -1056 -256 0
v -928 -320 0
v -960 -320 0
v -960 -288 0
v -928 -288 0
v -960 -320 0
v -992 -320 0
v -992 -288 0
v -960 -288 0
v -992 -320 0
v -1024 -320 0
v -1024 -288 0
v -992 -288 0
v -1088 -640 0
v -1120 -640 0
v -1120 -608 0
v -1088 -608 0
v -1088 -672 0
v -1120 -672 0
v -1120 -640 0
v -1088 -640 0
v -1088 -704 0
v -1120 -704 0
v -1120 -672 0
v -1088 -672 0
v -1088 -736 0
v -1120 -736 0
v -1120 -704 0
v -1088 -704 0
v -1088 -768 0
v -1120 -768 0
v -1120 -736 0
v -1088 -736 0

# Texture cooridinates (Count = 37)
vt 0 0.75
vt 0.04166667 0.75
vt 0.04166667 0.8125
vt 0 0.8125
vt 0.08333334 0.75
vt 0.08333334 0.8125
vt 0.4166667 0.75
vt 0.4583333 0.75
vt 0.4583333 0.8125
vt 0.4166667 0.8125
vt 0 0.6875
vt 0.04166667 0.6875
vt 0.08333334 0.6875
vt 0.4166667 0.6875
vt 0.4583333 0.6875
vt 0.04166667 0.9375
vt 0.08333334 0.9375
vt 0.08333334 1
vt 0.04166667 1
vt 0.125 0.9375
vt 0.125 1
vt 0.1666667 0.9375
vt 0.1666667 1
vt 0.125 0.6875
vt 0.125 0.75
vt 0.04166667 0.875
vt 0.08333334 0.875
vt 0.125 0.875
vt 0.1666667 0.875
vt 0.1666667 0.6875
vt 0.1666667 0.75
vt 0.125 0.8125
vt 0.1666667 0.8125
vt 0.7916667 0.625
vt 0.8333333 0.625
vt 0.8333333 0.6875
vt 0.7916667 0.6875

# Normal
vn 0 0 -1

# Mesh description
g roomInside_mesh_0005

# Faces
f 1/1/1 2/2/1 3/3/1 4/4/1
f 5/2/1 6/5/1 7/6/1 8/3/1
f 9/1/1 10/2/1 11/3/1 12/4/1
f 13/2/1 14/5/1 15/6/1 16/3/1
f 17/7/1 18/8/1 19/9/1 20/10/1
f 21/11/1 22/12/1 23/2/1 24/1/1
f 25/12/1 26/13/1 27/5/1 28/2/1
f 29/14/1 30/15/1 31/8/1 32/7/1
f 33/11/1 34/12/1 35/2/1 36/1/1
f 37/12/1 38/13/1 39/5/1 40/2/1
f 41/16/1 42/17/1 43/18/1 44/19/1
f 45/17/1 46/20/1 47/21/1 48/18/1
f 49/20/1 50/22/1 51/23/1 52/21/1
f 53/13/1 54/24/1 55/25/1 56/5/1
f 57/26/1 58/27/1 59/17/1 60/16/1
f 61/27/1 62/28/1 63/20/1 64/17/1
f 65/28/1 66/29/1 67/22/1 68/20/1
f 69/24/1 70/30/1 71/31/1 72/25/1
f 73/3/1 74/6/1 75/27/1 76/26/1
f 77/6/1 78/32/1 79/28/1 80/27/1
f 81/32/1 82/33/1 83/29/1 84/28/1
f 85/34/1 86/35/1 87/36/1 88/37/1
f 89/34/1 90/35/1 91/36/1 92/37/1
f 93/34/1 94/35/1 95/36/1 96/37/1
f 97/34/1 98/35/1 99/36/1 100/37/1
f 101/34/1 102/35/1 103/36/1 104/37/1

