# Tiled2Unity generated file. Do not modify by hand.
# Wavefront file for 'roomInside_mesh_0006.obj'

# Vertices (Count = 32)
v -1120 -192 0
v -1152 -192 0
v -1152 -160 0
v -1120 -160 0
v -1056 -224 0
v -1088 -224 0
v -1088 -192 0
v -1056 -192 0
v -1120 -224 0
v -1152 -224 0
v -1152 -192 0
v -1120 -192 0
v -1120 -288 0
v -1152 -288 0
v -1152 -256 0
v -1120 -256 0
v -1120 -320 0
v -1152 -320 0
v -1152 -288 0
v -1120 -288 0
v -1056 -352 0
v -1088 -352 0
v -1088 -320 0
v -1056 -320 0
v -1120 -384 0
v -1152 -384 0
v -1152 -352 0
v -1120 -352 0
v -1120 -416 0
v -1152 -416 0
v -1152 -384 0
v -1120 -384 0

# Texture cooridinates (Count = 10)
vt 0.8 0.25
vt 1 0.25
vt 1 0.5
vt 0.8 0.5
vt 0.4 0.5
vt 0.6 0.5
vt 0.6 0.75
vt 0.4 0.75
vt 0.8 0
vt 1 0

# Normal
vn 0 0 -1

# Mesh description
g roomInside_mesh_0006

# Faces
f 1/1/1 2/2/1 3/3/1 4/4/1
f 5/5/1 6/6/1 7/7/1 8/8/1
f 9/9/1 10/10/1 11/2/1 12/1/1
f 13/1/1 14/2/1 15/3/1 16/4/1
f 17/9/1 18/10/1 19/2/1 20/1/1
f 21/5/1 22/6/1 23/7/1 24/8/1
f 25/1/1 26/2/1 27/3/1 28/4/1
f 29/9/1 30/10/1 31/2/1 32/1/1

