# Tiled2Unity generated file. Do not modify by hand.
# Wavefront file for 'roomInside_mesh_0003.obj'

# Vertices (Count = 696)
v 0 -32 0
v -32 -32 0
v -32 0 0
v 0 0 0
v -32 -32 0
v -64 -32 0
v -64 0 0
v -32 0 0
v -64 -32 0
v -96 -32 0
v -96 0 0
v -64 0 0
v -96 -32 0
v -128 -32 0
v -128 0 0
v -96 0 0
v -128 -32 0
v -160 -32 0
v -160 0 0
v -128 0 0
v -160 -32 0
v -192 -32 0
v -192 0 0
v -160 0 0
v -192 -32 0
v -224 -32 0
v -224 0 0
v -192 0 0
v -224 -32 0
v -256 -32 0
v -256 0 0
v -224 0 0
v -256 -32 0
v -288 -32 0
v -288 0 0
v -256 0 0
v -288 -32 0
v -320 -32 0
v -320 0 0
v -288 0 0
v -320 -32 0
v -352 -32 0
v -352 0 0
v -320 0 0
v -352 -32 0
v -384 -32 0
v -384 0 0
v -352 0 0
v -384 -32 0
v -416 -32 0
v -416 0 0
v -384 0 0
v -416 -32 0
v -448 -32 0
v -448 0 0
v -416 0 0
v -448 -32 0
v -480 -32 0
v -480 0 0
v -448 0 0
v -480 -32 0
v -512 -32 0
v -512 0 0
v -480 0 0
v -512 -32 0
v -544 -32 0
v -544 0 0
v -512 0 0
v -544 -32 0
v -576 -32 0
v -576 0 0
v -544 0 0
v -576 -32 0
v -608 -32 0
v -608 0 0
v -576 0 0
v -608 -32 0
v -640 -32 0
v -640 0 0
v -608 0 0
v -640 -32 0
v -672 -32 0
v -672 0 0
v -640 0 0
v -672 -32 0
v -704 -32 0
v -704 0 0
v -672 0 0
v -704 -32 0
v -736 -32 0
v -736 0 0
v -704 0 0
v -736 -32 0
v -768 -32 0
v -768 0 0
v -736 0 0
v -768 -32 0
v -800 -32 0
v -800 0 0
v -768 0 0
v -800 -32 0
v -832 -32 0
v -832 0 0
v -800 0 0
v -832 -32 0
v -864 -32 0
v -864 0 0
v -832 0 0
v -864 -32 0
v -896 -32 0
v -896 0 0
v -864 0 0
v -896 -32 0
v -928 -32 0
v -928 0 0
v -896 0 0
v -928 -32 0
v -960 -32 0
v -960 0 0
v -928 0 0
v -960 -32 0
v -992 -32 0
v -992 0 0
v -960 0 0
v -992 -32 0
v -1024 -32 0
v -1024 0 0
v -992 0 0
v -1024 -32 0
v -1056 -32 0
v -1056 0 0
v -1024 0 0
v -1056 -32 0
v -1088 -32 0
v -1088 0 0
v -1056 0 0
v -1088 -32 0
v -1120 -32 0
v -1120 0 0
v -1088 0 0
v -1120 -32 0
v -1152 -32 0
v -1152 0 0
v -1120 0 0
v -1152 -32 0
v -1184 -32 0
v -1184 0 0
v -1152 0 0
v -1184 -32 0
v -1216 -32 0
v -1216 0 0
v -1184 0 0
v -1216 -32 0
v -1248 -32 0
v -1248 0 0
v -1216 0 0
v -1248 -32 0
v -1280 -32 0
v -1280 0 0
v -1248 0 0
v 0 -64 0
v -32 -64 0
v -32 -32 0
v 0 -32 0
v -576 -64 0
v -608 -64 0
v -608 -32 0
v -576 -32 0
v -1248 -64 0
v -1280 -64 0
v -1280 -32 0
v -1248 -32 0
v 0 -96 0
v -32 -96 0
v -32 -64 0
v 0 -64 0
v -576 -96 0
v -608 -96 0
v -608 -64 0
v -576 -64 0
v -1248 -96 0
v -1280 -96 0
v -1280 -64 0
v -1248 -64 0
v 0 -128 0
v -32 -128 0
v -32 -96 0
v 0 -96 0
v -576 -128 0
v -608 -128 0
v -608 -96 0
v -576 -96 0
v -1248 -128 0
v -1280 -128 0
v -1280 -96 0
v -1248 -96 0
v 0 -160 0
v -32 -160 0
v -32 -128 0
v 0 -128 0
v -576 -160 0
v -608 -160 0
v -608 -128 0
v -576 -128 0
v -1248 -160 0
v -1280 -160 0
v -1280 -128 0
v -1248 -128 0
v 0 -192 0
v -32 -192 0
v -32 -160 0
v 0 -160 0
v -576 -192 0
v -608 -192 0
v -608 -160 0
v -576 -160 0
v -1248 -192 0
v -1280 -192 0
v -1280 -160 0
v -1248 -160 0
v 0 -224 0
v -32 -224 0
v -32 -192 0
v 0 -192 0
v -576 -224 0
v -608 -224 0
v -608 -192 0
v -576 -192 0
v -1248 -224 0
v -1280 -224 0
v -1280 -192 0
v -1248 -192 0
v 0 -256 0
v -32 -256 0
v -32 -224 0
v 0 -224 0
v -576 -256 0
v -608 -256 0
v -608 -224 0
v -576 -224 0
v -1248 -256 0
v -1280 -256 0
v -1280 -224 0
v -1248 -224 0
v 0 -288 0
v -32 -288 0
v -32 -256 0
v 0 -256 0
v -576 -288 0
v -608 -288 0
v -608 -256 0
v -576 -256 0
v -1248 -288 0
v -1280 -288 0
v -1280 -256 0
v -1248 -256 0
v 0 -320 0
v -32 -320 0
v -32 -288 0
v 0 -288 0
v -576 -320 0
v -608 -320 0
v -608 -288 0
v -576 -288 0
v -1248 -320 0
v -1280 -320 0
v -1280 -288 0
v -1248 -288 0
v 0 -352 0
v -32 -352 0
v -32 -320 0
v 0 -320 0
v -576 -352 0
v -608 -352 0
v -608 -320 0
v -576 -320 0
v -1248 -352 0
v -1280 -352 0
v -1280 -320 0
v -1248 -320 0
v 0 -384 0
v -32 -384 0
v -32 -352 0
v 0 -352 0
v -576 -384 0
v -608 -384 0
v -608 -352 0
v -576 -352 0
v -1248 -384 0
v -1280 -384 0
v -1280 -352 0
v -1248 -352 0
v 0 -416 0
v -32 -416 0
v -32 -384 0
v 0 -384 0
v -576 -416 0
v -608 -416 0
v -608 -384 0
v -576 -384 0
v -1248 -416 0
v -1280 -416 0
v -1280 -384 0
v -1248 -384 0
v 0 -448 0
v -32 -448 0
v -32 -416 0
v 0 -416 0
v -576 -448 0
v -608 -448 0
v -608 -416 0
v -576 -416 0
v -1248 -448 0
v -1280 -448 0
v -1280 -416 0
v -1248 -416 0
v 0 -480 0
v -32 -480 0
v -32 -448 0
v 0 -448 0
v -576 -480 0
v -608 -480 0
v -608 -448 0
v -576 -448 0
v -1248 -480 0
v -1280 -480 0
v -1280 -448 0
v -1248 -448 0
v 0 -512 0
v -32 -512 0
v -32 -480 0
v 0 -480 0
v -576 -512 0
v -608 -512 0
v -608 -480 0
v -576 -480 0
v -608 -512 0
v -640 -512 0
v -640 -480 0
v -608 -480 0
v -640 -512 0
v -672 -512 0
v -672 -480 0
v -640 -480 0
v -672 -512 0
v -704 -512 0
v -704 -480 0
v -672 -480 0
v -704 -512 0
v -736 -512 0
v -736 -480 0
v -704 -480 0
v -736 -512 0
v -768 -512 0
v -768 -480 0
v -736 -480 0
v -768 -512 0
v -800 -512 0
v -800 -480 0
v -768 -480 0
v -800 -512 0
v -832 -512 0
v -832 -480 0
v -800 -480 0
v -832 -512 0
v -864 -512 0
v -864 -480 0
v -832 -480 0
v -1024 -512 0
v -1056 -512 0
v -1056 -480 0
v -1024 -480 0
v -1056 -512 0
v -1088 -512 0
v -1088 -480 0
v -1056 -480 0
v -1088 -512 0
v -1120 -512 0
v -1120 -480 0
v -1088 -480 0
v -1120 -512 0
v -1152 -512 0
v -1152 -480 0
v -1120 -480 0
v -1152 -512 0
v -1184 -512 0
v -1184 -480 0
v -1152 -480 0
v -1184 -512 0
v -1216 -512 0
v -1216 -480 0
v -1184 -480 0
v -1216 -512 0
v -1248 -512 0
v -1248 -480 0
v -1216 -480 0
v -1248 -512 0
v -1280 -512 0
v -1280 -480 0
v -1248 -480 0
v 0 -544 0
v -32 -544 0
v -32 -512 0
v 0 -512 0
v -1248 -544 0
v -1280 -544 0
v -1280 -512 0
v -1248 -512 0
v 0 -576 0
v -32 -576 0
v -32 -544 0
v 0 -544 0
v -1248 -576 0
v -1280 -576 0
v -1280 -544 0
v -1248 -544 0
v 0 -608 0
v -32 -608 0
v -32 -576 0
v 0 -576 0
v -1248 -608 0
v -1280 -608 0
v -1280 -576 0
v -1248 -576 0
v 0 -640 0
v -32 -640 0
v -32 -608 0
v 0 -608 0
v -1248 -640 0
v -1280 -640 0
v -1280 -608 0
v -1248 -608 0
v 0 -672 0
v -32 -672 0
v -32 -640 0
v 0 -640 0
v -1248 -672 0
v -1280 -672 0
v -1280 -640 0
v -1248 -640 0
v 0 -704 0
v -32 -704 0
v -32 -672 0
v 0 -672 0
v -576 -704 0
v -608 -704 0
v -608 -672 0
v -576 -672 0
v -1248 -704 0
v -1280 -704 0
v -1280 -672 0
v -1248 -672 0
v 0 -736 0
v -32 -736 0
v -32 -704 0
v 0 -704 0
v -576 -736 0
v -608 -736 0
v -608 -704 0
v -576 -704 0
v -1248 -736 0
v -1280 -736 0
v -1280 -704 0
v -1248 -704 0
v 0 -768 0
v -32 -768 0
v -32 -736 0
v 0 -736 0
v -576 -768 0
v -608 -768 0
v -608 -736 0
v -576 -736 0
v -1248 -768 0
v -1280 -768 0
v -1280 -736 0
v -1248 -736 0
v 0 -800 0
v -32 -800 0
v -32 -768 0
v 0 -768 0
v -576 -800 0
v -608 -800 0
v -608 -768 0
v -576 -768 0
v -1248 -800 0
v -1280 -800 0
v -1280 -768 0
v -1248 -768 0
v 0 -832 0
v -32 -832 0
v -32 -800 0
v 0 -800 0
v -576 -832 0
v -608 -832 0
v -608 -800 0
v -576 -800 0
v -1248 -832 0
v -1280 -832 0
v -1280 -800 0
v -1248 -800 0
v 0 -864 0
v -32 -864 0
v -32 -832 0
v 0 -832 0
v -576 -864 0
v -608 -864 0
v -608 -832 0
v -576 -832 0
v -1248 -864 0
v -1280 -864 0
v -1280 -832 0
v -1248 -832 0
v 0 -896 0
v -32 -896 0
v -32 -864 0
v 0 -864 0
v -576 -896 0
v -608 -896 0
v -608 -864 0
v -576 -864 0
v -1248 -896 0
v -1280 -896 0
v -1280 -864 0
v -1248 -864 0
v 0 -928 0
v -32 -928 0
v -32 -896 0
v 0 -896 0
v -576 -928 0
v -608 -928 0
v -608 -896 0
v -576 -896 0
v -1248 -928 0
v -1280 -928 0
v -1280 -896 0
v -1248 -896 0
v 0 -960 0
v -32 -960 0
v -32 -928 0
v 0 -928 0
v -32 -960 0
v -64 -960 0
v -64 -928 0
v -32 -928 0
v -64 -960 0
v -96 -960 0
v -96 -928 0
v -64 -928 0
v -96 -960 0
v -128 -960 0
v -128 -928 0
v -96 -928 0
v -128 -960 0
v -160 -960 0
v -160 -928 0
v -128 -928 0
v -160 -960 0
v -192 -960 0
v -192 -928 0
v -160 -928 0
v -192 -960 0
v -224 -960 0
v -224 -928 0
v -192 -928 0
v -224 -960 0
v -256 -960 0
v -256 -928 0
v -224 -928 0
v -256 -960 0
v -288 -960 0
v -288 -928 0
v -256 -928 0
v -288 -960 0
v -320 -960 0
v -320 -928 0
v -288 -928 0
v -320 -960 0
v -352 -960 0
v -352 -928 0
v -320 -928 0
v -352 -960 0
v -384 -960 0
v -384 -928 0
v -352 -928 0
v -384 -960 0
v -416 -960 0
v -416 -928 0
v -384 -928 0
v -416 -960 0
v -448 -960 0
v -448 -928 0
v -416 -928 0
v -448 -960 0
v -480 -960 0
v -480 -928 0
v -448 -928 0
v -480 -960 0
v -512 -960 0
v -512 -928 0
v -480 -928 0
v -512 -960 0
v -544 -960 0
v -544 -928 0
v -512 -928 0
v -544 -960 0
v -576 -960 0
v -576 -928 0
v -544 -928 0
v -576 -960 0
v -608 -960 0
v -608 -928 0
v -576 -928 0
v -608 -960 0
v -640 -960 0
v -640 -928 0
v -608 -928 0
v -640 -960 0
v -672 -960 0
v -672 -928 0
v -640 -928 0
v -672 -960 0
v -704 -960 0
v -704 -928 0
v -672 -928 0
v -704 -960 0
v -736 -960 0
v -736 -928 0
v -704 -928 0
v -736 -960 0
v -768 -960 0
v -768 -928 0
v -736 -928 0
v -768 -960 0
v -800 -960 0
v -800 -928 0
v -768 -928 0
v -800 -960 0
v -832 -960 0
v -832 -928 0
v -800 -928 0
v -832 -960 0
v -864 -960 0
v -864 -928 0
v -832 -928 0
v -864 -960 0
v -896 -960 0
v -896 -928 0
v -864 -928 0
v -896 -960 0
v -928 -960 0
v -928 -928 0
v -896 -928 0
v -928 -960 0
v -960 -960 0
v -960 -928 0
v -928 -928 0
v -960 -960 0
v -992 -960 0
v -992 -928 0
v -960 -928 0
v -992 -960 0
v -1024 -960 0
v -1024 -928 0
v -992 -928 0
v -1024 -960 0
v -1056 -960 0
v -1056 -928 0
v -1024 -928 0
v -1056 -960 0
v -1088 -960 0
v -1088 -928 0
v -1056 -928 0
v -1088 -960 0
v -1120 -960 0
v -1120 -928 0
v -1088 -928 0
v -1120 -960 0
v -1152 -960 0
v -1152 -928 0
v -1120 -928 0
v -1152 -960 0
v -1184 -960 0
v -1184 -928 0
v -1152 -928 0
v -1184 -960 0
v -1216 -960 0
v -1216 -928 0
v -1184 -928 0
v -1216 -960 0
v -1248 -960 0
v -1248 -928 0
v -1216 -928 0
v -1248 -960 0
v -1280 -960 0
v -1280 -928 0
v -1248 -928 0

# Texture cooridinates (Count = 19)
vt 0.04166667 0.5
vt 0.08333334 0.5
vt 0.08333334 0.5625
vt 0.04166667 0.5625
vt 0.125 0.5
vt 0.1666667 0.5
vt 0.1666667 0.5625
vt 0.125 0.5625
vt 0 0.5
vt 0 0.5625
vt 0.2083333 0.5625
vt 0.2083333 0.625
vt 0.1666667 0.625
vt 0.125 0.625
vt 0.08333334 0.625
vt 0.04166667 0.625
vt 0.1666667 0.6875
vt 0.125 0.6875
vt 0 0.625

# Normal
vn 0 0 -1

# Mesh description
g roomInside_mesh_0003

# Faces
f 1/1/1 2/2/1 3/3/1 4/4/1
f 5/5/1 6/6/1 7/7/1 8/8/1
f 9/5/1 10/6/1 11/7/1 12/8/1
f 13/5/1 14/6/1 15/7/1 16/8/1
f 17/5/1 18/6/1 19/7/1 20/8/1
f 21/5/1 22/6/1 23/7/1 24/8/1
f 25/5/1 26/6/1 27/7/1 28/8/1
f 29/5/1 30/6/1 31/7/1 32/8/1
f 33/5/1 34/6/1 35/7/1 36/8/1
f 37/5/1 38/6/1 39/7/1 40/8/1
f 41/5/1 42/6/1 43/7/1 44/8/1
f 45/5/1 46/6/1 47/7/1 48/8/1
f 49/5/1 50/6/1 51/7/1 52/8/1
f 53/5/1 54/6/1 55/7/1 56/8/1
f 57/5/1 58/6/1 59/7/1 60/8/1
f 61/5/1 62/6/1 63/7/1 64/8/1
f 65/5/1 66/6/1 67/7/1 68/8/1
f 69/5/1 70/6/1 71/7/1 72/8/1
f 73/5/1 74/6/1 75/7/1 76/8/1
f 77/5/1 78/6/1 79/7/1 80/8/1
f 81/5/1 82/6/1 83/7/1 84/8/1
f 85/5/1 86/6/1 87/7/1 88/8/1
f 89/5/1 90/6/1 91/7/1 92/8/1
f 93/5/1 94/6/1 95/7/1 96/8/1
f 97/5/1 98/6/1 99/7/1 100/8/1
f 101/5/1 102/6/1 103/7/1 104/8/1
f 105/5/1 106/6/1 107/7/1 108/8/1
f 109/5/1 110/6/1 111/7/1 112/8/1
f 113/5/1 114/6/1 115/7/1 116/8/1
f 117/5/1 118/6/1 119/7/1 120/8/1
f 121/5/1 122/6/1 123/7/1 124/8/1
f 125/5/1 126/6/1 127/7/1 128/8/1
f 129/5/1 130/6/1 131/7/1 132/8/1
f 133/5/1 134/6/1 135/7/1 136/8/1
f 137/5/1 138/6/1 139/7/1 140/8/1
f 141/5/1 142/6/1 143/7/1 144/8/1
f 145/5/1 146/6/1 147/7/1 148/8/1
f 149/5/1 150/6/1 151/7/1 152/8/1
f 153/5/1 154/6/1 155/7/1 156/8/1
f 157/9/1 158/1/1 159/4/1 160/10/1
f 161/7/1 162/11/1 163/12/1 164/13/1
f 165/7/1 166/11/1 167/12/1 168/13/1
f 169/3/1 170/8/1 171/14/1 172/15/1
f 173/7/1 174/11/1 175/12/1 176/13/1
f 177/7/1 178/11/1 179/12/1 180/13/1
f 181/3/1 182/8/1 183/14/1 184/15/1
f 185/7/1 186/11/1 187/12/1 188/13/1
f 189/7/1 190/11/1 191/12/1 192/13/1
f 193/3/1 194/8/1 195/14/1 196/15/1
f 197/7/1 198/11/1 199/12/1 200/13/1
f 201/7/1 202/11/1 203/12/1 204/13/1
f 205/3/1 206/8/1 207/14/1 208/15/1
f 209/7/1 210/11/1 211/12/1 212/13/1
f 213/7/1 214/11/1 215/12/1 216/13/1
f 217/3/1 218/8/1 219/14/1 220/15/1
f 221/7/1 222/11/1 223/12/1 224/13/1
f 225/7/1 226/11/1 227/12/1 228/13/1
f 229/3/1 230/8/1 231/14/1 232/15/1
f 233/7/1 234/11/1 235/12/1 236/13/1
f 237/7/1 238/11/1 239/12/1 240/13/1
f 241/3/1 242/8/1 243/14/1 244/15/1
f 245/7/1 246/11/1 247/12/1 248/13/1
f 249/7/1 250/11/1 251/12/1 252/13/1
f 253/3/1 254/8/1 255/14/1 256/15/1
f 257/7/1 258/11/1 259/12/1 260/13/1
f 261/7/1 262/11/1 263/12/1 264/13/1
f 265/3/1 266/8/1 267/14/1 268/15/1
f 269/7/1 270/11/1 271/12/1 272/13/1
f 273/7/1 274/11/1 275/12/1 276/13/1
f 277/3/1 278/8/1 279/14/1 280/15/1
f 281/7/1 282/11/1 283/12/1 284/13/1
f 285/7/1 286/11/1 287/12/1 288/13/1
f 289/3/1 290/8/1 291/14/1 292/15/1
f 293/7/1 294/11/1 295/12/1 296/13/1
f 297/7/1 298/11/1 299/12/1 300/13/1
f 301/3/1 302/8/1 303/14/1 304/15/1
f 305/7/1 306/11/1 307/12/1 308/13/1
f 309/7/1 310/11/1 311/12/1 312/13/1
f 313/3/1 314/8/1 315/14/1 316/15/1
f 317/7/1 318/11/1 319/12/1 320/13/1
f 321/7/1 322/11/1 323/12/1 324/13/1
f 325/3/1 326/8/1 327/14/1 328/15/1
f 329/7/1 330/11/1 331/12/1 332/13/1
f 333/4/1 334/3/1 335/15/1 336/16/1
f 337/14/1 338/13/1 339/17/1 340/18/1
f 341/14/1 342/13/1 343/17/1 344/18/1
f 345/14/1 346/13/1 347/17/1 348/18/1
f 349/14/1 350/13/1 351/17/1 352/18/1
f 353/14/1 354/13/1 355/17/1 356/18/1
f 357/14/1 358/13/1 359/17/1 360/18/1
f 361/14/1 362/13/1 363/17/1 364/18/1
f 365/14/1 366/13/1 367/17/1 368/18/1
f 369/14/1 370/13/1 371/17/1 372/18/1
f 373/14/1 374/13/1 375/17/1 376/18/1
f 377/14/1 378/13/1 379/17/1 380/18/1
f 381/14/1 382/13/1 383/17/1 384/18/1
f 385/14/1 386/13/1 387/17/1 388/18/1
f 389/14/1 390/13/1 391/17/1 392/18/1
f 393/14/1 394/13/1 395/17/1 396/18/1
f 397/3/1 398/8/1 399/14/1 400/15/1
f 401/7/1 402/11/1 403/12/1 404/13/1
f 405/3/1 406/8/1 407/14/1 408/15/1
f 409/7/1 410/11/1 411/12/1 412/13/1
f 413/3/1 414/8/1 415/14/1 416/15/1
f 417/7/1 418/11/1 419/12/1 420/13/1
f 421/3/1 422/8/1 423/14/1 424/15/1
f 425/7/1 426/11/1 427/12/1 428/13/1
f 429/3/1 430/8/1 431/14/1 432/15/1
f 433/7/1 434/11/1 435/12/1 436/13/1
f 437/3/1 438/8/1 439/14/1 440/15/1
f 441/7/1 442/11/1 443/12/1 444/13/1
f 445/7/1 446/11/1 447/12/1 448/13/1
f 449/3/1 450/8/1 451/14/1 452/15/1
f 453/7/1 454/11/1 455/12/1 456/13/1
f 457/7/1 458/11/1 459/12/1 460/13/1
f 461/3/1 462/8/1 463/14/1 464/15/1
f 465/7/1 466/11/1 467/12/1 468/13/1
f 469/7/1 470/11/1 471/12/1 472/13/1
f 473/3/1 474/8/1 475/14/1 476/15/1
f 477/7/1 478/11/1 479/12/1 480/13/1
f 481/7/1 482/11/1 483/12/1 484/13/1
f 485/3/1 486/8/1 487/14/1 488/15/1
f 489/7/1 490/11/1 491/12/1 492/13/1
f 493/7/1 494/11/1 495/12/1 496/13/1
f 497/3/1 498/8/1 499/14/1 500/15/1
f 501/7/1 502/11/1 503/12/1 504/13/1
f 505/7/1 506/11/1 507/12/1 508/13/1
f 509/3/1 510/8/1 511/14/1 512/15/1
f 513/7/1 514/11/1 515/12/1 516/13/1
f 517/7/1 518/11/1 519/12/1 520/13/1
f 521/3/1 522/8/1 523/14/1 524/15/1
f 525/7/1 526/11/1 527/12/1 528/13/1
f 529/7/1 530/11/1 531/12/1 532/13/1
f 533/3/1 534/8/1 535/14/1 536/15/1
f 537/4/1 538/3/1 539/15/1 540/16/1
f 541/14/1 542/13/1 543/17/1 544/18/1
f 545/14/1 546/13/1 547/17/1 548/18/1
f 549/14/1 550/13/1 551/17/1 552/18/1
f 553/14/1 554/13/1 555/17/1 556/18/1
f 557/14/1 558/13/1 559/17/1 560/18/1
f 561/14/1 562/13/1 563/17/1 564/18/1
f 565/14/1 566/13/1 567/17/1 568/18/1
f 569/14/1 570/13/1 571/17/1 572/18/1
f 573/14/1 574/13/1 575/17/1 576/18/1
f 577/14/1 578/13/1 579/17/1 580/18/1
f 581/14/1 582/13/1 583/17/1 584/18/1
f 585/14/1 586/13/1 587/17/1 588/18/1
f 589/14/1 590/13/1 591/17/1 592/18/1
f 593/14/1 594/13/1 595/17/1 596/18/1
f 597/14/1 598/13/1 599/17/1 600/18/1
f 601/14/1 602/13/1 603/17/1 604/18/1
f 605/14/1 606/13/1 607/17/1 608/18/1
f 609/14/1 610/13/1 611/17/1 612/18/1
f 613/14/1 614/13/1 615/17/1 616/18/1
f 617/14/1 618/13/1 619/17/1 620/18/1
f 621/14/1 622/13/1 623/17/1 624/18/1
f 625/14/1 626/13/1 627/17/1 628/18/1
f 629/14/1 630/13/1 631/17/1 632/18/1
f 633/14/1 634/13/1 635/17/1 636/18/1
f 637/14/1 638/13/1 639/17/1 640/18/1
f 641/14/1 642/13/1 643/17/1 644/18/1
f 645/14/1 646/13/1 647/17/1 648/18/1
f 649/14/1 650/13/1 651/17/1 652/18/1
f 653/14/1 654/13/1 655/17/1 656/18/1
f 657/14/1 658/13/1 659/17/1 660/18/1
f 661/14/1 662/13/1 663/17/1 664/18/1
f 665/14/1 666/13/1 667/17/1 668/18/1
f 669/14/1 670/13/1 671/17/1 672/18/1
f 673/14/1 674/13/1 675/17/1 676/18/1
f 677/14/1 678/13/1 679/17/1 680/18/1
f 681/14/1 682/13/1 683/17/1 684/18/1
f 685/14/1 686/13/1 687/17/1 688/18/1
f 689/14/1 690/13/1 691/17/1 692/18/1
f 693/10/1 694/4/1 695/16/1 696/19/1

