# Tiled2Unity generated file. Do not modify by hand.
# Wavefront file for 'forest1_mesh_0003.obj'

# Vertices (Count = 20)
v -352 -192 0
v -384 -192 0
v -384 -160 0
v -352 -160 0
v -576 -192 0
v -608 -192 0
v -608 -160 0
v -576 -160 0
v -256 -320 0
v -288 -320 0
v -288 -288 0
v -256 -288 0
v -512 -320 0
v -544 -320 0
v -544 -288 0
v -512 -288 0
v -32 -416 0
v -64 -416 0
v -64 -384 0
v -32 -384 0

# Texture cooridinates (Count = 6)
vt 0.5 0
vt 1 0
vt 1 1
vt 0.5 1
vt 0 0
vt 0 1

# Normal
vn 0 0 -1

# Mesh description
g forest1_mesh_0003

# Faces
f 1/1/1 2/2/1 3/3/1 4/4/1
f 5/5/1 6/1/1 7/4/1 8/6/1
f 9/5/1 10/1/1 11/4/1 12/6/1
f 13/1/1 14/2/1 15/3/1 16/4/1
f 17/5/1 18/1/1 19/4/1 20/6/1

