# Tiled2Unity generated file. Do not modify by hand.
# Wavefront file for 'forest222_mesh_0003.obj'

# Vertices (Count = 20)
v -35200 -19200 0
v -38400 -19200 0
v -38400 -16000 0
v -35200 -16000 0
v -57600 -19200 0
v -60800 -19200 0
v -60800 -16000 0
v -57600 -16000 0
v -25600 -32000 0
v -28800 -32000 0
v -28800 -28800 0
v -25600 -28800 0
v -51200 -32000 0
v -54400 -32000 0
v -54400 -28800 0
v -51200 -28800 0
v -3200 -41600 0
v -6400 -41600 0
v -6400 -38400 0
v -3200 -38400 0

# Texture cooridinates (Count = 6)
vt 0.5 0
vt 1 0
vt 1 1
vt 0.5 1
vt 0 0
vt 0 1

# Normal
vn 0 0 -1

# Mesh description
g forest222_mesh_0003

# Faces
f 1/1/1 2/2/1 3/3/1 4/4/1
f 5/5/1 6/1/1 7/4/1 8/6/1
f 9/5/1 10/1/1 11/4/1 12/6/1
f 13/1/1 14/2/1 15/3/1 16/4/1
f 17/5/1 18/1/1 19/4/1 20/6/1

