# Tiled2Unity generated file. Do not modify by hand.
# Wavefront file for 'forest222_mesh_0002.obj'

# Vertices (Count = 288)
v -12800 -22400 0
v -16000 -22400 0
v -16000 -19200 0
v -12800 -19200 0
v -16000 -22400 0
v -19200 -22400 0
v -19200 -19200 0
v -16000 -19200 0
v -19200 -22400 0
v -22400 -22400 0
v -22400 -19200 0
v -19200 -19200 0
v -22400 -22400 0
v -25600 -22400 0
v -25600 -19200 0
v -22400 -19200 0
v -25600 -22400 0
v -28800 -22400 0
v -28800 -19200 0
v -25600 -19200 0
v -28800 -22400 0
v -32000 -22400 0
v -32000 -19200 0
v -28800 -19200 0
v -32000 -22400 0
v -35200 -22400 0
v -35200 -19200 0
v -32000 -19200 0
v -35200 -22400 0
v -38400 -22400 0
v -38400 -19200 0
v -35200 -19200 0
v -38400 -22400 0
v -41600 -22400 0
v -41600 -19200 0
v -38400 -19200 0
v -41600 -22400 0
v -44800 -22400 0
v -44800 -19200 0
v -41600 -19200 0
v -44800 -22400 0
v -48000 -22400 0
v -48000 -19200 0
v -44800 -19200 0
v -48000 -22400 0
v -51200 -22400 0
v -51200 -19200 0
v -48000 -19200 0
v -51200 -22400 0
v -54400 -22400 0
v -54400 -19200 0
v -51200 -19200 0
v -54400 -22400 0
v -57600 -22400 0
v -57600 -19200 0
v -54400 -19200 0
v -57600 -22400 0
v -60800 -22400 0
v -60800 -19200 0
v -57600 -19200 0
v -60800 -22400 0
v -64000 -22400 0
v -64000 -19200 0
v -60800 -19200 0
v -64000 -22400 0
v -67200 -22400 0
v -67200 -19200 0
v -64000 -19200 0
v -6400 -25600 0
v -9600 -25600 0
v -9600 -22400 0
v -6400 -22400 0
v -9600 -25600 0
v -12800 -25600 0
v -12800 -22400 0
v -9600 -22400 0
v -12800 -25600 0
v -16000 -25600 0
v -16000 -22400 0
v -12800 -22400 0
v -16000 -25600 0
v -19200 -25600 0
v -19200 -22400 0
v -16000 -22400 0
v -19200 -25600 0
v -22400 -25600 0
v -22400 -22400 0
v -19200 -22400 0
v -22400 -25600 0
v -25600 -25600 0
v -25600 -22400 0
v -22400 -22400 0
v -25600 -25600 0
v -28800 -25600 0
v -28800 -22400 0
v -25600 -22400 0
v -28800 -25600 0
v -32000 -25600 0
v -32000 -22400 0
v -28800 -22400 0
v -32000 -25600 0
v -35200 -25600 0
v -35200 -22400 0
v -32000 -22400 0
v -35200 -25600 0
v -38400 -25600 0
v -38400 -22400 0
v -35200 -22400 0
v -38400 -25600 0
v -41600 -25600 0
v -41600 -22400 0
v -38400 -22400 0
v -41600 -25600 0
v -44800 -25600 0
v -44800 -22400 0
v -41600 -22400 0
v -44800 -25600 0
v -48000 -25600 0
v -48000 -22400 0
v -44800 -22400 0
v -48000 -25600 0
v -51200 -25600 0
v -51200 -22400 0
v -48000 -22400 0
v -51200 -25600 0
v -54400 -25600 0
v -54400 -22400 0
v -51200 -22400 0
v -54400 -25600 0
v -57600 -25600 0
v -57600 -22400 0
v -54400 -22400 0
v -57600 -25600 0
v -60800 -25600 0
v -60800 -22400 0
v -57600 -22400 0
v -60800 -25600 0
v -64000 -25600 0
v -64000 -22400 0
v -60800 -22400 0
v -64000 -25600 0
v -67200 -25600 0
v -67200 -22400 0
v -64000 -22400 0
v -3200 -28800 0
v -6400 -28800 0
v -6400 -25600 0
v -3200 -25600 0
v -6400 -28800 0
v -9600 -28800 0
v -9600 -25600 0
v -6400 -25600 0
v -9600 -28800 0
v -12800 -28800 0
v -12800 -25600 0
v -9600 -25600 0
v -12800 -28800 0
v -16000 -28800 0
v -16000 -25600 0
v -12800 -25600 0
v -16000 -28800 0
v -19200 -28800 0
v -19200 -25600 0
v -16000 -25600 0
v -19200 -28800 0
v -22400 -28800 0
v -22400 -25600 0
v -19200 -25600 0
v -22400 -28800 0
v -25600 -28800 0
v -25600 -25600 0
v -22400 -25600 0
v -25600 -28800 0
v -28800 -28800 0
v -28800 -25600 0
v -25600 -25600 0
v -28800 -28800 0
v -32000 -28800 0
v -32000 -25600 0
v -28800 -25600 0
v -32000 -28800 0
v -35200 -28800 0
v -35200 -25600 0
v -32000 -25600 0
v -35200 -28800 0
v -38400 -28800 0
v -38400 -25600 0
v -35200 -25600 0
v -38400 -28800 0
v -41600 -28800 0
v -41600 -25600 0
v -38400 -25600 0
v -41600 -28800 0
v -44800 -28800 0
v -44800 -25600 0
v -41600 -25600 0
v -44800 -28800 0
v -48000 -28800 0
v -48000 -25600 0
v -44800 -25600 0
v -48000 -28800 0
v -51200 -28800 0
v -51200 -25600 0
v -48000 -25600 0
v -51200 -28800 0
v -54400 -28800 0
v -54400 -25600 0
v -51200 -25600 0
v -54400 -28800 0
v -57600 -28800 0
v -57600 -25600 0
v -54400 -25600 0
v -57600 -28800 0
v -60800 -28800 0
v -60800 -25600 0
v -57600 -25600 0
v -60800 -28800 0
v -64000 -28800 0
v -64000 -25600 0
v -60800 -25600 0
v -64000 -28800 0
v -67200 -28800 0
v -67200 -25600 0
v -64000 -25600 0
v 0 -32000 0
v -3200 -32000 0
v -3200 -28800 0
v 0 -28800 0
v -3200 -32000 0
v -6400 -32000 0
v -6400 -28800 0
v -3200 -28800 0
v -6400 -32000 0
v -9600 -32000 0
v -9600 -28800 0
v -6400 -28800 0
v -9600 -32000 0
v -12800 -32000 0
v -12800 -28800 0
v -9600 -28800 0
v -12800 -32000 0
v -16000 -32000 0
v -16000 -28800 0
v -12800 -28800 0
v -16000 -32000 0
v -19200 -32000 0
v -19200 -28800 0
v -16000 -28800 0
v -19200 -32000 0
v -22400 -32000 0
v -22400 -28800 0
v -19200 -28800 0
v 0 -35200 0
v -3200 -35200 0
v -3200 -32000 0
v 0 -32000 0
v -3200 -35200 0
v -6400 -35200 0
v -6400 -32000 0
v -3200 -32000 0
v -6400 -35200 0
v -9600 -35200 0
v -9600 -32000 0
v -6400 -32000 0
v -9600 -35200 0
v -12800 -35200 0
v -12800 -32000 0
v -9600 -32000 0
v -12800 -35200 0
v -16000 -35200 0
v -16000 -32000 0
v -12800 -32000 0
v 0 -38400 0
v -3200 -38400 0
v -3200 -35200 0
v 0 -35200 0
v -3200 -38400 0
v -6400 -38400 0
v -6400 -35200 0
v -3200 -35200 0
v -6400 -38400 0
v -9600 -38400 0
v -9600 -35200 0
v -6400 -35200 0
v -9600 -38400 0
v -12800 -38400 0
v -12800 -35200 0
v -9600 -35200 0

# Texture cooridinates (Count = 19)
vt 0 0.5
vt 0.3333333 0.5
vt 0.3333333 0.6666666
vt 0 0.6666666
vt 0.6666667 0.5
vt 0.6666667 0.6666666
vt 1 0.5
vt 1 0.6666666
vt 1 0.8333333
vt 0.6666667 0.8333333
vt 0.3333333 0.3333333
vt 0.6666667 0.3333333
vt 1 0.3333333
vt 0.3333333 0.8333333
vt 0.6666667 1
vt 0.3333333 1
vt 0.3333333 0.1666667
vt 0.6666667 0.1666667
vt 1 0.1666667

# Normal
vn 0 0 -1

# Mesh description
g forest222_mesh_0002

# Faces
f 1/1/1 2/2/1 3/3/1 4/4/1
f 5/2/1 6/5/1 7/6/1 8/3/1
f 9/2/1 10/5/1 11/6/1 12/3/1
f 13/2/1 14/5/1 15/6/1 16/3/1
f 17/2/1 18/5/1 19/6/1 20/3/1
f 21/2/1 22/5/1 23/6/1 24/3/1
f 25/2/1 26/5/1 27/6/1 28/3/1
f 29/2/1 30/5/1 31/6/1 32/3/1
f 33/2/1 34/5/1 35/6/1 36/3/1
f 37/2/1 38/5/1 39/6/1 40/3/1
f 41/2/1 42/5/1 43/6/1 44/3/1
f 45/2/1 46/5/1 47/6/1 48/3/1
f 49/2/1 50/5/1 51/6/1 52/3/1
f 53/2/1 54/5/1 55/6/1 56/3/1
f 57/2/1 58/5/1 59/6/1 60/3/1
f 61/2/1 62/5/1 63/6/1 64/3/1
f 65/5/1 66/7/1 67/8/1 68/6/1
f 69/1/1 70/2/1 71/3/1 72/4/1
f 73/2/1 74/5/1 75/6/1 76/3/1
f 77/6/1 78/8/1 79/9/1 80/10/1
f 81/11/1 82/12/1 83/5/1 84/2/1
f 85/11/1 86/12/1 87/5/1 88/2/1
f 89/11/1 90/12/1 91/5/1 92/2/1
f 93/11/1 94/12/1 95/5/1 96/2/1
f 97/11/1 98/12/1 99/5/1 100/2/1
f 101/11/1 102/12/1 103/5/1 104/2/1
f 105/11/1 106/12/1 107/5/1 108/2/1
f 109/11/1 110/12/1 111/5/1 112/2/1
f 113/11/1 114/12/1 115/5/1 116/2/1
f 117/11/1 118/12/1 119/5/1 120/2/1
f 121/11/1 122/12/1 123/5/1 124/2/1
f 125/11/1 126/12/1 127/5/1 128/2/1
f 129/11/1 130/12/1 131/5/1 132/2/1
f 133/11/1 134/12/1 135/5/1 136/2/1
f 137/11/1 138/12/1 139/5/1 140/2/1
f 141/12/1 142/13/1 143/7/1 144/5/1
f 145/1/1 146/2/1 147/3/1 148/4/1
f 149/6/1 150/8/1 151/9/1 152/10/1
f 153/11/1 154/12/1 155/5/1 156/2/1
f 157/11/1 158/12/1 159/5/1 160/2/1
f 161/11/1 162/12/1 163/5/1 164/2/1
f 165/14/1 166/10/1 167/15/1 168/16/1
f 169/17/1 170/18/1 171/12/1 172/11/1
f 173/17/1 174/18/1 175/12/1 176/11/1
f 177/17/1 178/18/1 179/12/1 180/11/1
f 181/17/1 182/18/1 183/12/1 184/11/1
f 185/17/1 186/18/1 187/12/1 188/11/1
f 189/17/1 190/18/1 191/12/1 192/11/1
f 193/17/1 194/18/1 195/12/1 196/11/1
f 197/17/1 198/18/1 199/12/1 200/11/1
f 201/17/1 202/18/1 203/12/1 204/11/1
f 205/17/1 206/18/1 207/12/1 208/11/1
f 209/17/1 210/18/1 211/12/1 212/11/1
f 213/17/1 214/18/1 215/12/1 216/11/1
f 217/17/1 218/18/1 219/12/1 220/11/1
f 221/18/1 222/19/1 223/13/1 224/12/1
f 225/2/1 226/5/1 227/6/1 228/3/1
f 229/6/1 230/8/1 231/9/1 232/10/1
f 233/11/1 234/12/1 235/5/1 236/2/1
f 237/11/1 238/12/1 239/5/1 240/2/1
f 241/14/1 242/10/1 243/15/1 244/16/1
f 245/17/1 246/18/1 247/12/1 248/11/1
f 249/18/1 250/19/1 251/13/1 252/12/1
f 253/11/1 254/12/1 255/5/1 256/2/1
f 257/11/1 258/12/1 259/5/1 260/2/1
f 261/11/1 262/12/1 263/5/1 264/2/1
f 265/14/1 266/10/1 267/15/1 268/16/1
f 269/18/1 270/19/1 271/13/1 272/12/1
f 273/17/1 274/18/1 275/12/1 276/11/1
f 277/17/1 278/18/1 279/12/1 280/11/1
f 281/17/1 282/18/1 283/12/1 284/11/1
f 285/18/1 286/19/1 287/13/1 288/12/1

