# Tiled2Unity generated file. Do not modify by hand.
# Wavefront file for 'forest222_mesh_0004.obj'

# Vertices (Count = 300)
v -19200 -6400 0
v -22400 -6400 0
v -22400 -3200 0
v -19200 -3200 0
v -22400 -6400 0
v -25600 -6400 0
v -25600 -3200 0
v -22400 -3200 0
v -25600 -6400 0
v -28800 -6400 0
v -28800 -3200 0
v -25600 -3200 0
v -41600 -6400 0
v -44800 -6400 0
v -44800 -3200 0
v -41600 -3200 0
v -44800 -6400 0
v -48000 -6400 0
v -48000 -3200 0
v -44800 -3200 0
v -48000 -6400 0
v -51200 -6400 0
v -51200 -3200 0
v -48000 -3200 0
v -3200 -9600 0
v -6400 -9600 0
v -6400 -6400 0
v -3200 -6400 0
v -6400 -9600 0
v -9600 -9600 0
v -9600 -6400 0
v -6400 -6400 0
v -9600 -9600 0
v -12800 -9600 0
v -12800 -6400 0
v -9600 -6400 0
v -19200 -9600 0
v -22400 -9600 0
v -22400 -6400 0
v -19200 -6400 0
v -22400 -9600 0
v -25600 -9600 0
v -25600 -6400 0
v -22400 -6400 0
v -25600 -9600 0
v -28800 -9600 0
v -28800 -6400 0
v -25600 -6400 0
v -41600 -9600 0
v -44800 -9600 0
v -44800 -6400 0
v -41600 -6400 0
v -44800 -9600 0
v -48000 -9600 0
v -48000 -6400 0
v -44800 -6400 0
v -48000 -9600 0
v -51200 -9600 0
v -51200 -6400 0
v -48000 -6400 0
v -3200 -12800 0
v -6400 -12800 0
v -6400 -9600 0
v -3200 -9600 0
v -6400 -12800 0
v -9600 -12800 0
v -9600 -9600 0
v -6400 -9600 0
v -9600 -12800 0
v -12800 -12800 0
v -12800 -9600 0
v -9600 -9600 0
v -19200 -12800 0
v -22400 -12800 0
v -22400 -9600 0
v -19200 -9600 0
v -22400 -12800 0
v -25600 -12800 0
v -25600 -9600 0
v -22400 -9600 0
v -25600 -12800 0
v -28800 -12800 0
v -28800 -9600 0
v -25600 -9600 0
v -41600 -12800 0
v -44800 -12800 0
v -44800 -9600 0
v -41600 -9600 0
v -44800 -12800 0
v -48000 -12800 0
v -48000 -9600 0
v -44800 -9600 0
v -48000 -12800 0
v -51200 -12800 0
v -51200 -9600 0
v -48000 -9600 0
v -3200 -16000 0
v -6400 -16000 0
v -6400 -12800 0
v -3200 -12800 0
v -6400 -16000 0
v -9600 -16000 0
v -9600 -12800 0
v -6400 -12800 0
v -9600 -16000 0
v -12800 -16000 0
v -12800 -12800 0
v -9600 -12800 0
v -19200 -16000 0
v -22400 -16000 0
v -22400 -12800 0
v -19200 -12800 0
v -22400 -16000 0
v -25600 -16000 0
v -25600 -12800 0
v -22400 -12800 0
v -25600 -16000 0
v -28800 -16000 0
v -28800 -12800 0
v -25600 -12800 0
v -41600 -16000 0
v -44800 -16000 0
v -44800 -12800 0
v -41600 -12800 0
v -44800 -16000 0
v -48000 -16000 0
v -48000 -12800 0
v -44800 -12800 0
v -48000 -16000 0
v -51200 -16000 0
v -51200 -12800 0
v -48000 -12800 0
v -3200 -19200 0
v -6400 -19200 0
v -6400 -16000 0
v -3200 -16000 0
v -6400 -19200 0
v -9600 -19200 0
v -9600 -16000 0
v -6400 -16000 0
v -9600 -19200 0
v -12800 -19200 0
v -12800 -16000 0
v -9600 -16000 0
v -19200 -19200 0
v -22400 -19200 0
v -22400 -16000 0
v -19200 -16000 0
v -22400 -19200 0
v -25600 -19200 0
v -25600 -16000 0
v -22400 -16000 0
v -25600 -19200 0
v -28800 -19200 0
v -28800 -16000 0
v -25600 -16000 0
v -41600 -19200 0
v -44800 -19200 0
v -44800 -16000 0
v -41600 -16000 0
v -44800 -19200 0
v -48000 -19200 0
v -48000 -16000 0
v -44800 -16000 0
v -48000 -19200 0
v -51200 -19200 0
v -51200 -16000 0
v -48000 -16000 0
v -3200 -22400 0
v -6400 -22400 0
v -6400 -19200 0
v -3200 -19200 0
v -6400 -22400 0
v -9600 -22400 0
v -9600 -19200 0
v -6400 -19200 0
v -9600 -22400 0
v -12800 -22400 0
v -12800 -19200 0
v -9600 -19200 0
v -41600 -32000 0
v -44800 -32000 0
v -44800 -28800 0
v -41600 -28800 0
v -44800 -32000 0
v -48000 -32000 0
v -48000 -28800 0
v -44800 -28800 0
v -48000 -32000 0
v -51200 -32000 0
v -51200 -28800 0
v -48000 -28800 0
v -12800 -35200 0
v -16000 -35200 0
v -16000 -32000 0
v -12800 -32000 0
v -16000 -35200 0
v -19200 -35200 0
v -19200 -32000 0
v -16000 -32000 0
v -19200 -35200 0
v -22400 -35200 0
v -22400 -32000 0
v -19200 -32000 0
v -41600 -35200 0
v -44800 -35200 0
v -44800 -32000 0
v -41600 -32000 0
v -44800 -35200 0
v -48000 -35200 0
v -48000 -32000 0
v -44800 -32000 0
v -48000 -35200 0
v -51200 -35200 0
v -51200 -32000 0
v -48000 -32000 0
v -12800 -38400 0
v -16000 -38400 0
v -16000 -35200 0
v -12800 -35200 0
v -16000 -38400 0
v -19200 -38400 0
v -19200 -35200 0
v -16000 -35200 0
v -19200 -38400 0
v -22400 -38400 0
v -22400 -35200 0
v -19200 -35200 0
v -41600 -38400 0
v -44800 -38400 0
v -44800 -35200 0
v -41600 -35200 0
v -44800 -38400 0
v -48000 -38400 0
v -48000 -35200 0
v -44800 -35200 0
v -48000 -38400 0
v -51200 -38400 0
v -51200 -35200 0
v -48000 -35200 0
v -12800 -41600 0
v -16000 -41600 0
v -16000 -38400 0
v -12800 -38400 0
v -16000 -41600 0
v -19200 -41600 0
v -19200 -38400 0
v -16000 -38400 0
v -19200 -41600 0
v -22400 -41600 0
v -22400 -38400 0
v -19200 -38400 0
v -41600 -41600 0
v -44800 -41600 0
v -44800 -38400 0
v -41600 -38400 0
v -44800 -41600 0
v -48000 -41600 0
v -48000 -38400 0
v -44800 -38400 0
v -48000 -41600 0
v -51200 -41600 0
v -51200 -38400 0
v -48000 -38400 0
v -12800 -44800 0
v -16000 -44800 0
v -16000 -41600 0
v -12800 -41600 0
v -16000 -44800 0
v -19200 -44800 0
v -19200 -41600 0
v -16000 -41600 0
v -19200 -44800 0
v -22400 -44800 0
v -22400 -41600 0
v -19200 -41600 0
v -41600 -44800 0
v -44800 -44800 0
v -44800 -41600 0
v -41600 -41600 0
v -44800 -44800 0
v -48000 -44800 0
v -48000 -41600 0
v -44800 -41600 0
v -48000 -44800 0
v -51200 -44800 0
v -51200 -41600 0
v -48000 -41600 0
v -12800 -48000 0
v -16000 -48000 0
v -16000 -44800 0
v -12800 -44800 0
v -16000 -48000 0
v -19200 -48000 0
v -19200 -44800 0
v -16000 -44800 0
v -19200 -48000 0
v -22400 -48000 0
v -22400 -44800 0
v -19200 -44800 0

# Texture cooridinates (Count = 24)
vt 0.2307692 0.6153846
vt 0.3076923 0.6153846
vt 0.3076923 0.6923077
vt 0.2307692 0.6923077
vt 0.3846154 0.6153846
vt 0.3846154 0.6923077
vt 0.4615385 0.6153846
vt 0.4615385 0.6923077
vt 0.2307692 0.5384616
vt 0.3076923 0.5384616
vt 0.3846154 0.5384616
vt 0.4615385 0.5384616
vt 0.2307692 0.4615384
vt 0.3076923 0.4615384
vt 0.3846154 0.4615384
vt 0.4615385 0.4615384
vt 0.2307692 0.3846154
vt 0.3076923 0.3846154
vt 0.3846154 0.3846154
vt 0.4615385 0.3846154
vt 0.2307692 0.3076923
vt 0.3076923 0.3076923
vt 0.3846154 0.3076923
vt 0.4615385 0.3076923

# Normal
vn 0 0 -1

# Mesh description
g forest222_mesh_0004

# Faces
f 1/1/1 2/2/1 3/3/1 4/4/1
f 5/2/1 6/5/1 7/6/1 8/3/1
f 9/5/1 10/7/1 11/8/1 12/6/1
f 13/1/1 14/2/1 15/3/1 16/4/1
f 17/2/1 18/5/1 19/6/1 20/3/1
f 21/5/1 22/7/1 23/8/1 24/6/1
f 25/1/1 26/2/1 27/3/1 28/4/1
f 29/2/1 30/5/1 31/6/1 32/3/1
f 33/5/1 34/7/1 35/8/1 36/6/1
f 37/9/1 38/10/1 39/2/1 40/1/1
f 41/10/1 42/11/1 43/5/1 44/2/1
f 45/11/1 46/12/1 47/7/1 48/5/1
f 49/9/1 50/10/1 51/2/1 52/1/1
f 53/10/1 54/11/1 55/5/1 56/2/1
f 57/11/1 58/12/1 59/7/1 60/5/1
f 61/9/1 62/10/1 63/2/1 64/1/1
f 65/10/1 66/11/1 67/5/1 68/2/1
f 69/11/1 70/12/1 71/7/1 72/5/1
f 73/13/1 74/14/1 75/10/1 76/9/1
f 77/14/1 78/15/1 79/11/1 80/10/1
f 81/15/1 82/16/1 83/12/1 84/11/1
f 85/13/1 86/14/1 87/10/1 88/9/1
f 89/14/1 90/15/1 91/11/1 92/10/1
f 93/15/1 94/16/1 95/12/1 96/11/1
f 97/13/1 98/14/1 99/10/1 100/9/1
f 101/14/1 102/15/1 103/11/1 104/10/1
f 105/15/1 106/16/1 107/12/1 108/11/1
f 109/17/1 110/18/1 111/14/1 112/13/1
f 113/18/1 114/19/1 115/15/1 116/14/1
f 117/19/1 118/20/1 119/16/1 120/15/1
f 121/17/1 122/18/1 123/14/1 124/13/1
f 125/18/1 126/19/1 127/15/1 128/14/1
f 129/19/1 130/20/1 131/16/1 132/15/1
f 133/17/1 134/18/1 135/14/1 136/13/1
f 137/18/1 138/19/1 139/15/1 140/14/1
f 141/19/1 142/20/1 143/16/1 144/15/1
f 145/21/1 146/22/1 147/18/1 148/17/1
f 149/22/1 150/23/1 151/19/1 152/18/1
f 153/23/1 154/24/1 155/20/1 156/19/1
f 157/21/1 158/22/1 159/18/1 160/17/1
f 161/22/1 162/23/1 163/19/1 164/18/1
f 165/23/1 166/24/1 167/20/1 168/19/1
f 169/21/1 170/22/1 171/18/1 172/17/1
f 173/22/1 174/23/1 175/19/1 176/18/1
f 177/23/1 178/24/1 179/20/1 180/19/1
f 181/1/1 182/2/1 183/3/1 184/4/1
f 185/2/1 186/5/1 187/6/1 188/3/1
f 189/5/1 190/7/1 191/8/1 192/6/1
f 193/1/1 194/2/1 195/3/1 196/4/1
f 197/2/1 198/5/1 199/6/1 200/3/1
f 201/5/1 202/7/1 203/8/1 204/6/1
f 205/9/1 206/10/1 207/2/1 208/1/1
f 209/10/1 210/11/1 211/5/1 212/2/1
f 213/11/1 214/12/1 215/7/1 216/5/1
f 217/9/1 218/10/1 219/2/1 220/1/1
f 221/10/1 222/11/1 223/5/1 224/2/1
f 225/11/1 226/12/1 227/7/1 228/5/1
f 229/13/1 230/14/1 231/10/1 232/9/1
f 233/14/1 234/15/1 235/11/1 236/10/1
f 237/15/1 238/16/1 239/12/1 240/11/1
f 241/13/1 242/14/1 243/10/1 244/9/1
f 245/14/1 246/15/1 247/11/1 248/10/1
f 249/15/1 250/16/1 251/12/1 252/11/1
f 253/17/1 254/18/1 255/14/1 256/13/1
f 257/18/1 258/19/1 259/15/1 260/14/1
f 261/19/1 262/20/1 263/16/1 264/15/1
f 265/17/1 266/18/1 267/14/1 268/13/1
f 269/18/1 270/19/1 271/15/1 272/14/1
f 273/19/1 274/20/1 275/16/1 276/15/1
f 277/21/1 278/22/1 279/18/1 280/17/1
f 281/22/1 282/23/1 283/19/1 284/18/1
f 285/23/1 286/24/1 287/20/1 288/19/1
f 289/21/1 290/22/1 291/18/1 292/17/1
f 293/22/1 294/23/1 295/19/1 296/18/1
f 297/23/1 298/24/1 299/20/1 300/19/1

